M48
; DRILL file {KiCad 9.0.0} date 2025-04-12T19:30:58-0400
; FORMAT={-:-/ absolute / metric / decimal}
; #@! TF.CreationDate,2025-04-12T19:30:58-04:00
; #@! TF.GenerationSoftware,Kicad,Pcbnew,9.0.0
; #@! TF.FileFunction,MixedPlating,1,2
FMAT,2
METRIC
; #@! TA.AperFunction,Plated,PTH,ViaDrill
T1C0.300
; #@! TA.AperFunction,Plated,PTH,ComponentDrill
T2C0.800
; #@! TA.AperFunction,Plated,PTH,ComponentDrill
T3C1.000
; #@! TA.AperFunction,Plated,PTH,ComponentDrill
T4C1.100
; #@! TA.AperFunction,Plated,PTH,ComponentDrill
T5C1.300
; #@! TA.AperFunction,Plated,PTH,ComponentDrill
T6C2.500
; #@! TA.AperFunction,Plated,PTH,ComponentDrill
T7C2.973
; #@! TA.AperFunction,NonPlated,NPTH,ComponentDrill
T8C2.500
%
G90
G05
T1
X85.25Y-99.75
X85.5Y-60.0
X85.5Y-72.0
X85.5Y-76.25
X85.5Y-80.75
X85.5Y-86.0
X85.5Y-110.5
X85.5Y-120.0
X85.5Y-121.5
X85.75Y-89.75
X86.5Y-65.0
X87.0Y-121.5
X87.5Y-69.5
X89.0Y-81.75
X89.0Y-101.75
X89.25Y-87.75
X89.25Y-93.25
X90.5Y-105.5
X91.0Y-61.0
X91.0Y-73.0
X92.75Y-91.75
X92.75Y-97.5
X93.0Y-103.25
X95.0Y-76.5
X95.0Y-81.25
X96.0Y-112.5
X96.5Y-67.5
X97.0Y-71.5
X98.5Y-85.0
X100.5Y-76.5
X102.0Y-121.5
X103.5Y-90.0
X104.5Y-105.0
X106.0Y-67.5
X106.5Y-76.5
X107.5Y-71.5
X108.5Y-95.5
X110.0Y-63.5
X111.5Y-80.0
X112.5Y-67.0
X113.5Y-60.0
X114.5Y-75.0
X116.0Y-119.0
X116.5Y-102.0
X117.5Y-62.5
X117.5Y-86.0
X118.5Y-113.0
X118.5Y-120.5
X120.5Y-120.5
X122.5Y-120.5
X124.5Y-120.5
X125.5Y-66.5
X126.5Y-113.0
X128.0Y-68.5
X128.0Y-86.5
X128.0Y-102.5
X128.0Y-121.0
X128.5Y-64.0
X129.0Y-107.5
X129.5Y-65.0
X132.0Y-69.0
X132.0Y-72.5
X132.0Y-121.0
X134.5Y-102.5
X134.5Y-114.0
X135.0Y-65.0
X135.0Y-81.0
X135.5Y-117.0
X136.5Y-121.0
X138.5Y-86.5
X138.5Y-110.0
X140.5Y-117.0
X141.5Y-121.0
X146.0Y-117.0
X147.0Y-110.0
X147.0Y-121.0
X147.5Y-86.5
X151.5Y-117.0
X152.0Y-65.5
X152.5Y-121.0
X155.0Y-86.5
X155.5Y-110.0
X157.0Y-61.5
X158.5Y-114.0
X162.5Y-61.5
X162.5Y-63.5
X162.5Y-66.0
X162.5Y-110.5
X164.5Y-121.5
X167.5Y-60.0
X168.0Y-114.0
X169.025Y-59.974
X169.5Y-64.5
X170.5Y-60.0
X170.5Y-67.5
X170.5Y-72.5
X170.5Y-77.5
X170.5Y-82.5
X170.5Y-87.5
X170.5Y-93.0
X170.5Y-98.0
X170.5Y-103.0
X170.5Y-108.0
X170.5Y-111.5
X172.0Y-60.0
X173.0Y-62.5
X173.5Y-60.0
X175.0Y-60.0
X176.0Y-62.5
X176.0Y-67.5
X176.0Y-72.5
X176.0Y-77.5
X176.0Y-82.5
X176.0Y-87.5
X176.0Y-93.0
X176.0Y-98.0
X176.0Y-103.0
X176.0Y-108.0
X176.0Y-113.5
X176.0Y-121.5
X176.5Y-60.0
X178.0Y-60.0
X179.5Y-60.0
X181.0Y-60.0
X182.5Y-60.0
X184.0Y-60.0
X185.5Y-60.0
X186.5Y-121.5
X188.5Y-119.5
X188.5Y-121.5
T2
X165.136Y-108.177
X165.136Y-110.717
X165.136Y-113.257
X165.14Y-59.92
X165.14Y-62.46
X165.14Y-65.0
X165.14Y-67.54
X165.14Y-70.08
X165.14Y-72.62
X165.14Y-75.16
X165.14Y-77.7
X165.14Y-80.24
X165.14Y-82.78
X165.14Y-85.32
X165.14Y-87.86
X165.14Y-90.4
X165.14Y-92.94
X165.14Y-95.48
X165.14Y-98.02
X165.14Y-100.56
X165.14Y-103.1
X165.14Y-105.64
X188.0Y-59.92
X188.0Y-62.46
X188.0Y-65.0
X188.0Y-67.54
X188.0Y-70.08
X188.0Y-72.62
X188.0Y-75.16
X188.0Y-77.7
X188.0Y-80.24
X188.0Y-82.78
X188.0Y-85.32
X188.0Y-87.86
X188.0Y-90.4
X188.0Y-92.94
X188.0Y-95.48
X188.0Y-98.02
X188.0Y-100.56
X188.0Y-103.1
X188.0Y-105.64
X188.0Y-108.18
X188.0Y-110.72
X188.0Y-113.26
T3
X87.29Y-78.668
X89.83Y-78.668
X92.37Y-78.668
X94.91Y-78.668
X97.45Y-78.668
X99.99Y-78.668
X102.53Y-78.668
X105.07Y-78.668
X107.61Y-78.668
X118.5Y-115.5
X120.5Y-115.5
X122.5Y-115.5
X124.5Y-115.5
X126.5Y-115.5
X128.5Y-115.5
X130.5Y-115.5
X132.5Y-115.5
T4
X120.42Y-63.5
X125.5Y-63.5
T5
X138.1Y-81.5
X140.6Y-64.0
X143.1Y-81.5
X145.6Y-64.0
X148.1Y-81.5
T6
X87.925Y-62.031
X106.975Y-62.031
T7
X135.7Y-71.0
X150.5Y-71.0
T8
X93.0Y-86.3
X93.0Y-119.4
X158.0Y-86.3
X158.0Y-119.4
T3
G00X86.95Y-94.55
M15
G01X86.95Y-96.15
M16
G05
G00X86.95Y-103.05
M15
G01X86.95Y-104.65
M16
G05
M30
