<?xml version="1.0" standalone="no"?>
 <!DOCTYPE svg PUBLIC "-//W3C//DTD SVG 1.1//EN" 
 "http://www.w3.org/Graphics/SVG/1.1/DTD/svg11.dtd"> 
<svg
  xmlns:svg="http://www.w3.org/2000/svg"
  xmlns="http://www.w3.org/2000/svg"
  xmlns:xlink="http://www.w3.org/1999/xlink"
  version="1.1"
  width="297.002mm" height="210.007mm" viewBox="0.000 0.000 297.002 210.007">
<title>SVG Image created as phoenix_v1-01.svg date 2025/04/12 23:14:34 </title>
  <desc>Image generated by PCBNEW </desc>
<g style="fill:#000000; fill-opacity:1.000;stroke:#000000; stroke-opacity:1.000;
stroke-linecap:round; stroke-linejoin:round;"
 transform="translate(0 0) scale(1 1)">
</g>
<g style="fill:none; 
stroke:#000000; stroke-width:0.150; stroke-opacity:1; 
stroke-linecap:round; stroke-linejoin:round;">
<path d="M177.002 166.007
L285.002 166.007
L285.002 198.007
L177.002 198.007
L177.002 166.007
" />
</g>
<g style="fill:none; 
stroke:#000000; stroke-width:0.150; stroke-opacity:1; 
stroke-linecap:round; stroke-linejoin:round;">
<path d="M10.000 10.000
L287.002 10.000
L287.002 200.007
L10.000 200.007
L10.000 10.000
" />
</g>
<g style="fill:none; 
stroke:#000000; stroke-width:0.150; stroke-opacity:1; 
stroke-linecap:round; stroke-linejoin:round;">
<path d="M12.000 12.000
L285.002 12.000
L285.002 198.007
L12.000 198.007
L12.000 12.000
" />
</g>
<g style="fill:none; 
stroke:#000000; stroke-width:0.150; stroke-opacity:1; 
stroke-linecap:round; stroke-linejoin:round;">
<path d="M60.000 12.000
L60.000 10.000
" />
</g>
<g style="fill:none; 
stroke:#000000; stroke-width:0.150; stroke-opacity:1; 
stroke-linecap:round; stroke-linejoin:round;">
<path d="M110.000 12.000
L110.000 10.000
" />
</g>
<g style="fill:none; 
stroke:#000000; stroke-width:0.150; stroke-opacity:1; 
stroke-linecap:round; stroke-linejoin:round;">
<path d="M160.000 12.000
L160.000 10.000
" />
</g>
<g style="fill:none; 
stroke:#000000; stroke-width:0.150; stroke-opacity:1; 
stroke-linecap:round; stroke-linejoin:round;">
<path d="M210.000 12.000
L210.000 10.000
" />
</g>
<g style="fill:none; 
stroke:#000000; stroke-width:0.150; stroke-opacity:1; 
stroke-linecap:round; stroke-linejoin:round;">
<path d="M260.000 12.000
L260.000 10.000
" />
</g>
<g style="fill:none; 
stroke:#000000; stroke-width:0.150; stroke-opacity:1; 
stroke-linecap:round; stroke-linejoin:round;">
<text x="35.000" y="11.650"
textLength="1.428" font-size="1.733" lengthAdjust="spacingAndGlyphs"
text-anchor="start" opacity="0" stroke-opacity="0">1</text>
<g class="stroked-text"><desc>1</desc>
<path d="M36.089 11.594
L35.346 11.594
" />
<path d="M35.718 11.594
L35.718 10.294
" />
<path d="M35.718 10.294
L35.594 10.479
" />
<path d="M35.594 10.479
L35.470 10.603
" />
<path d="M35.470 10.603
L35.346 10.665
" />
</g></g>
<g style="fill:none; 
stroke:#000000; stroke-width:0.150; stroke-opacity:1; 
stroke-linecap:round; stroke-linejoin:round;">
<text x="85.000" y="11.650"
textLength="1.428" font-size="1.733" lengthAdjust="spacingAndGlyphs"
text-anchor="start" opacity="0" stroke-opacity="0">2</text>
<g class="stroked-text"><desc>2</desc>
<path d="M85.346 10.417
L85.408 10.356
" />
<path d="M85.408 10.356
L85.532 10.294
" />
<path d="M85.532 10.294
L85.842 10.294
" />
<path d="M85.842 10.294
L85.965 10.356
" />
<path d="M85.965 10.356
L86.027 10.417
" />
<path d="M86.027 10.417
L86.089 10.541
" />
<path d="M86.089 10.541
L86.089 10.665
" />
<path d="M86.089 10.665
L86.027 10.851
" />
<path d="M86.027 10.851
L85.284 11.594
" />
<path d="M85.284 11.594
L86.089 11.594
" />
</g></g>
<g style="fill:none; 
stroke:#000000; stroke-width:0.150; stroke-opacity:1; 
stroke-linecap:round; stroke-linejoin:round;">
<text x="135.000" y="11.650"
textLength="1.428" font-size="1.733" lengthAdjust="spacingAndGlyphs"
text-anchor="start" opacity="0" stroke-opacity="0">3</text>
<g class="stroked-text"><desc>3</desc>
<path d="M135.284 10.294
L136.089 10.294
" />
<path d="M136.089 10.294
L135.656 10.789
" />
<path d="M135.656 10.789
L135.842 10.789
" />
<path d="M135.842 10.789
L135.965 10.851
" />
<path d="M135.965 10.851
L136.027 10.913
" />
<path d="M136.027 10.913
L136.089 11.036
" />
<path d="M136.089 11.036
L136.089 11.346
" />
<path d="M136.089 11.346
L136.027 11.470
" />
<path d="M136.027 11.470
L135.965 11.532
" />
<path d="M135.965 11.532
L135.842 11.594
" />
<path d="M135.842 11.594
L135.470 11.594
" />
<path d="M135.470 11.594
L135.346 11.532
" />
<path d="M135.346 11.532
L135.284 11.470
" />
</g></g>
<g style="fill:none; 
stroke:#000000; stroke-width:0.150; stroke-opacity:1; 
stroke-linecap:round; stroke-linejoin:round;">
<text x="185.000" y="11.650"
textLength="1.428" font-size="1.733" lengthAdjust="spacingAndGlyphs"
text-anchor="start" opacity="0" stroke-opacity="0">4</text>
<g class="stroked-text"><desc>4</desc>
<path d="M185.965 10.727
L185.965 11.594
" />
<path d="M185.656 10.232
L185.346 11.160
" />
<path d="M185.346 11.160
L186.151 11.160
" />
</g></g>
<g style="fill:none; 
stroke:#000000; stroke-width:0.150; stroke-opacity:1; 
stroke-linecap:round; stroke-linejoin:round;">
<text x="235.000" y="11.650"
textLength="1.428" font-size="1.733" lengthAdjust="spacingAndGlyphs"
text-anchor="start" opacity="0" stroke-opacity="0">5</text>
<g class="stroked-text"><desc>5</desc>
<path d="M236.027 10.294
L235.408 10.294
" />
<path d="M235.408 10.294
L235.346 10.913
" />
<path d="M235.346 10.913
L235.408 10.851
" />
<path d="M235.408 10.851
L235.532 10.789
" />
<path d="M235.532 10.789
L235.842 10.789
" />
<path d="M235.842 10.789
L235.965 10.851
" />
<path d="M235.965 10.851
L236.027 10.913
" />
<path d="M236.027 10.913
L236.089 11.036
" />
<path d="M236.089 11.036
L236.089 11.346
" />
<path d="M236.089 11.346
L236.027 11.470
" />
<path d="M236.027 11.470
L235.965 11.532
" />
<path d="M235.965 11.532
L235.842 11.594
" />
<path d="M235.842 11.594
L235.532 11.594
" />
<path d="M235.532 11.594
L235.408 11.532
" />
<path d="M235.408 11.532
L235.346 11.470
" />
</g></g>
<g style="fill:none; 
stroke:#000000; stroke-width:0.150; stroke-opacity:1; 
stroke-linecap:round; stroke-linejoin:round;">
<text x="285.000" y="11.650"
textLength="1.428" font-size="1.733" lengthAdjust="spacingAndGlyphs"
text-anchor="start" opacity="0" stroke-opacity="0">6</text>
<g class="stroked-text"><desc>6</desc>
<path d="M285.965 10.294
L285.718 10.294
" />
<path d="M285.718 10.294
L285.594 10.356
" />
<path d="M285.594 10.356
L285.532 10.417
" />
<path d="M285.532 10.417
L285.408 10.603
" />
<path d="M285.408 10.603
L285.346 10.851
" />
<path d="M285.346 10.851
L285.346 11.346
" />
<path d="M285.346 11.346
L285.408 11.470
" />
<path d="M285.408 11.470
L285.470 11.532
" />
<path d="M285.470 11.532
L285.594 11.594
" />
<path d="M285.594 11.594
L285.842 11.594
" />
<path d="M285.842 11.594
L285.965 11.532
" />
<path d="M285.965 11.532
L286.027 11.470
" />
<path d="M286.027 11.470
L286.089 11.346
" />
<path d="M286.089 11.346
L286.089 11.036
" />
<path d="M286.089 11.036
L286.027 10.913
" />
<path d="M286.027 10.913
L285.965 10.851
" />
<path d="M285.965 10.851
L285.842 10.789
" />
<path d="M285.842 10.789
L285.594 10.789
" />
<path d="M285.594 10.789
L285.470 10.851
" />
<path d="M285.470 10.851
L285.408 10.913
" />
<path d="M285.408 10.913
L285.346 11.036
" />
</g></g>
<g style="fill:none; 
stroke:#000000; stroke-width:0.150; stroke-opacity:1; 
stroke-linecap:round; stroke-linejoin:round;">
<path d="M60.000 198.007
L60.000 200.007
" />
</g>
<g style="fill:none; 
stroke:#000000; stroke-width:0.150; stroke-opacity:1; 
stroke-linecap:round; stroke-linejoin:round;">
<path d="M110.000 198.007
L110.000 200.007
" />
</g>
<g style="fill:none; 
stroke:#000000; stroke-width:0.150; stroke-opacity:1; 
stroke-linecap:round; stroke-linejoin:round;">
<path d="M160.000 198.007
L160.000 200.007
" />
</g>
<g style="fill:none; 
stroke:#000000; stroke-width:0.150; stroke-opacity:1; 
stroke-linecap:round; stroke-linejoin:round;">
<path d="M210.000 198.007
L210.000 200.007
" />
</g>
<g style="fill:none; 
stroke:#000000; stroke-width:0.150; stroke-opacity:1; 
stroke-linecap:round; stroke-linejoin:round;">
<path d="M260.000 198.007
L260.000 200.007
" />
</g>
<g style="fill:none; 
stroke:#000000; stroke-width:0.150; stroke-opacity:1; 
stroke-linecap:round; stroke-linejoin:round;">
<text x="35.000" y="199.657"
textLength="1.428" font-size="1.733" lengthAdjust="spacingAndGlyphs"
text-anchor="start" opacity="0" stroke-opacity="0">1</text>
<g class="stroked-text"><desc>1</desc>
<path d="M36.089 199.601
L35.346 199.601
" />
<path d="M35.718 199.601
L35.718 198.301
" />
<path d="M35.718 198.301
L35.594 198.487
" />
<path d="M35.594 198.487
L35.470 198.610
" />
<path d="M35.470 198.610
L35.346 198.672
" />
</g></g>
<g style="fill:none; 
stroke:#000000; stroke-width:0.150; stroke-opacity:1; 
stroke-linecap:round; stroke-linejoin:round;">
<text x="85.000" y="199.657"
textLength="1.428" font-size="1.733" lengthAdjust="spacingAndGlyphs"
text-anchor="start" opacity="0" stroke-opacity="0">2</text>
<g class="stroked-text"><desc>2</desc>
<path d="M85.346 198.425
L85.408 198.363
" />
<path d="M85.408 198.363
L85.532 198.301
" />
<path d="M85.532 198.301
L85.842 198.301
" />
<path d="M85.842 198.301
L85.965 198.363
" />
<path d="M85.965 198.363
L86.027 198.425
" />
<path d="M86.027 198.425
L86.089 198.548
" />
<path d="M86.089 198.548
L86.089 198.672
" />
<path d="M86.089 198.672
L86.027 198.858
" />
<path d="M86.027 198.858
L85.284 199.601
" />
<path d="M85.284 199.601
L86.089 199.601
" />
</g></g>
<g style="fill:none; 
stroke:#000000; stroke-width:0.150; stroke-opacity:1; 
stroke-linecap:round; stroke-linejoin:round;">
<text x="135.000" y="199.657"
textLength="1.428" font-size="1.733" lengthAdjust="spacingAndGlyphs"
text-anchor="start" opacity="0" stroke-opacity="0">3</text>
<g class="stroked-text"><desc>3</desc>
<path d="M135.284 198.301
L136.089 198.301
" />
<path d="M136.089 198.301
L135.656 198.796
" />
<path d="M135.656 198.796
L135.842 198.796
" />
<path d="M135.842 198.796
L135.965 198.858
" />
<path d="M135.965 198.858
L136.027 198.920
" />
<path d="M136.027 198.920
L136.089 199.044
" />
<path d="M136.089 199.044
L136.089 199.353
" />
<path d="M136.089 199.353
L136.027 199.477
" />
<path d="M136.027 199.477
L135.965 199.539
" />
<path d="M135.965 199.539
L135.842 199.601
" />
<path d="M135.842 199.601
L135.470 199.601
" />
<path d="M135.470 199.601
L135.346 199.539
" />
<path d="M135.346 199.539
L135.284 199.477
" />
</g></g>
<g style="fill:none; 
stroke:#000000; stroke-width:0.150; stroke-opacity:1; 
stroke-linecap:round; stroke-linejoin:round;">
<text x="185.000" y="199.657"
textLength="1.428" font-size="1.733" lengthAdjust="spacingAndGlyphs"
text-anchor="start" opacity="0" stroke-opacity="0">4</text>
<g class="stroked-text"><desc>4</desc>
<path d="M185.965 198.734
L185.965 199.601
" />
<path d="M185.656 198.239
L185.346 199.167
" />
<path d="M185.346 199.167
L186.151 199.167
" />
</g></g>
<g style="fill:none; 
stroke:#000000; stroke-width:0.150; stroke-opacity:1; 
stroke-linecap:round; stroke-linejoin:round;">
<text x="235.000" y="199.657"
textLength="1.428" font-size="1.733" lengthAdjust="spacingAndGlyphs"
text-anchor="start" opacity="0" stroke-opacity="0">5</text>
<g class="stroked-text"><desc>5</desc>
<path d="M236.027 198.301
L235.408 198.301
" />
<path d="M235.408 198.301
L235.346 198.920
" />
<path d="M235.346 198.920
L235.408 198.858
" />
<path d="M235.408 198.858
L235.532 198.796
" />
<path d="M235.532 198.796
L235.842 198.796
" />
<path d="M235.842 198.796
L235.965 198.858
" />
<path d="M235.965 198.858
L236.027 198.920
" />
<path d="M236.027 198.920
L236.089 199.044
" />
<path d="M236.089 199.044
L236.089 199.353
" />
<path d="M236.089 199.353
L236.027 199.477
" />
<path d="M236.027 199.477
L235.965 199.539
" />
<path d="M235.965 199.539
L235.842 199.601
" />
<path d="M235.842 199.601
L235.532 199.601
" />
<path d="M235.532 199.601
L235.408 199.539
" />
<path d="M235.408 199.539
L235.346 199.477
" />
</g></g>
<g style="fill:none; 
stroke:#000000; stroke-width:0.150; stroke-opacity:1; 
stroke-linecap:round; stroke-linejoin:round;">
<text x="285.000" y="199.657"
textLength="1.428" font-size="1.733" lengthAdjust="spacingAndGlyphs"
text-anchor="start" opacity="0" stroke-opacity="0">6</text>
<g class="stroked-text"><desc>6</desc>
<path d="M285.965 198.301
L285.718 198.301
" />
<path d="M285.718 198.301
L285.594 198.363
" />
<path d="M285.594 198.363
L285.532 198.425
" />
<path d="M285.532 198.425
L285.408 198.610
" />
<path d="M285.408 198.610
L285.346 198.858
" />
<path d="M285.346 198.858
L285.346 199.353
" />
<path d="M285.346 199.353
L285.408 199.477
" />
<path d="M285.408 199.477
L285.470 199.539
" />
<path d="M285.470 199.539
L285.594 199.601
" />
<path d="M285.594 199.601
L285.842 199.601
" />
<path d="M285.842 199.601
L285.965 199.539
" />
<path d="M285.965 199.539
L286.027 199.477
" />
<path d="M286.027 199.477
L286.089 199.353
" />
<path d="M286.089 199.353
L286.089 199.044
" />
<path d="M286.089 199.044
L286.027 198.920
" />
<path d="M286.027 198.920
L285.965 198.858
" />
<path d="M285.965 198.858
L285.842 198.796
" />
<path d="M285.842 198.796
L285.594 198.796
" />
<path d="M285.594 198.796
L285.470 198.858
" />
<path d="M285.470 198.858
L285.408 198.920
" />
<path d="M285.408 198.920
L285.346 199.044
" />
</g></g>
<g style="fill:none; 
stroke:#000000; stroke-width:0.150; stroke-opacity:1; 
stroke-linecap:round; stroke-linejoin:round;">
<path d="M10.000 60.000
L12.000 60.000
" />
</g>
<g style="fill:none; 
stroke:#000000; stroke-width:0.150; stroke-opacity:1; 
stroke-linecap:round; stroke-linejoin:round;">
<path d="M10.000 110.000
L12.000 110.000
" />
</g>
<g style="fill:none; 
stroke:#000000; stroke-width:0.150; stroke-opacity:1; 
stroke-linecap:round; stroke-linejoin:round;">
<path d="M10.000 160.000
L12.000 160.000
" />
</g>
<g style="fill:none; 
stroke:#000000; stroke-width:0.150; stroke-opacity:1; 
stroke-linecap:round; stroke-linejoin:round;">
<text x="11.000" y="35.650"
textLength="1.304" font-size="1.733" lengthAdjust="spacingAndGlyphs"
text-anchor="middle" opacity="0" stroke-opacity="0">A</text>
<g class="stroked-text"><desc>A</desc>
<path d="M10.690 35.222
L11.310 35.222
" />
<path d="M10.567 35.594
L11.000 34.294
" />
<path d="M11.000 34.294
L11.433 35.594
" />
</g></g>
<g style="fill:none; 
stroke:#000000; stroke-width:0.150; stroke-opacity:1; 
stroke-linecap:round; stroke-linejoin:round;">
<text x="11.000" y="85.650"
textLength="1.490" font-size="1.733" lengthAdjust="spacingAndGlyphs"
text-anchor="middle" opacity="0" stroke-opacity="0">B</text>
<g class="stroked-text"><desc>B</desc>
<path d="M11.093 84.913
L11.279 84.975
" />
<path d="M11.279 84.975
L11.340 85.036
" />
<path d="M11.340 85.036
L11.402 85.160
" />
<path d="M11.402 85.160
L11.402 85.346
" />
<path d="M11.402 85.346
L11.340 85.470
" />
<path d="M11.340 85.470
L11.279 85.532
" />
<path d="M11.279 85.532
L11.155 85.594
" />
<path d="M11.155 85.594
L10.660 85.594
" />
<path d="M10.660 85.594
L10.660 84.294
" />
<path d="M10.660 84.294
L11.093 84.294
" />
<path d="M11.093 84.294
L11.217 84.356
" />
<path d="M11.217 84.356
L11.279 84.417
" />
<path d="M11.279 84.417
L11.340 84.541
" />
<path d="M11.340 84.541
L11.340 84.665
" />
<path d="M11.340 84.665
L11.279 84.789
" />
<path d="M11.279 84.789
L11.217 84.851
" />
<path d="M11.217 84.851
L11.093 84.913
" />
<path d="M11.093 84.913
L10.660 84.913
" />
</g></g>
<g style="fill:none; 
stroke:#000000; stroke-width:0.150; stroke-opacity:1; 
stroke-linecap:round; stroke-linejoin:round;">
<text x="11.000" y="135.650"
textLength="1.490" font-size="1.733" lengthAdjust="spacingAndGlyphs"
text-anchor="middle" opacity="0" stroke-opacity="0">C</text>
<g class="stroked-text"><desc>C</desc>
<path d="M11.402 135.470
L11.340 135.532
" />
<path d="M11.340 135.532
L11.155 135.594
" />
<path d="M11.155 135.594
L11.031 135.594
" />
<path d="M11.031 135.594
L10.845 135.532
" />
<path d="M10.845 135.532
L10.721 135.408
" />
<path d="M10.721 135.408
L10.660 135.284
" />
<path d="M10.660 135.284
L10.598 135.036
" />
<path d="M10.598 135.036
L10.598 134.851
" />
<path d="M10.598 134.851
L10.660 134.603
" />
<path d="M10.660 134.603
L10.721 134.479
" />
<path d="M10.721 134.479
L10.845 134.356
" />
<path d="M10.845 134.356
L11.031 134.294
" />
<path d="M11.031 134.294
L11.155 134.294
" />
<path d="M11.155 134.294
L11.340 134.356
" />
<path d="M11.340 134.356
L11.402 134.417
" />
</g></g>
<g style="fill:none; 
stroke:#000000; stroke-width:0.150; stroke-opacity:1; 
stroke-linecap:round; stroke-linejoin:round;">
<text x="11.000" y="185.650"
textLength="1.490" font-size="1.733" lengthAdjust="spacingAndGlyphs"
text-anchor="middle" opacity="0" stroke-opacity="0">D</text>
<g class="stroked-text"><desc>D</desc>
<path d="M10.660 185.594
L10.660 184.294
" />
<path d="M10.660 184.294
L10.969 184.294
" />
<path d="M10.969 184.294
L11.155 184.356
" />
<path d="M11.155 184.356
L11.279 184.479
" />
<path d="M11.279 184.479
L11.340 184.603
" />
<path d="M11.340 184.603
L11.402 184.851
" />
<path d="M11.402 184.851
L11.402 185.036
" />
<path d="M11.402 185.036
L11.340 185.284
" />
<path d="M11.340 185.284
L11.279 185.408
" />
<path d="M11.279 185.408
L11.155 185.532
" />
<path d="M11.155 185.532
L10.969 185.594
" />
<path d="M10.969 185.594
L10.660 185.594
" />
</g></g>
<g style="fill:none; 
stroke:#000000; stroke-width:0.150; stroke-opacity:1; 
stroke-linecap:round; stroke-linejoin:round;">
<path d="M287.002 60.000
L285.002 60.000
" />
</g>
<g style="fill:none; 
stroke:#000000; stroke-width:0.150; stroke-opacity:1; 
stroke-linecap:round; stroke-linejoin:round;">
<path d="M287.002 110.000
L285.002 110.000
" />
</g>
<g style="fill:none; 
stroke:#000000; stroke-width:0.150; stroke-opacity:1; 
stroke-linecap:round; stroke-linejoin:round;">
<path d="M287.002 160.000
L285.002 160.000
" />
</g>
<g style="fill:none; 
stroke:#000000; stroke-width:0.150; stroke-opacity:1; 
stroke-linecap:round; stroke-linejoin:round;">
<text x="286.002" y="35.650"
textLength="1.304" font-size="1.733" lengthAdjust="spacingAndGlyphs"
text-anchor="middle" opacity="0" stroke-opacity="0">A</text>
<g class="stroked-text"><desc>A</desc>
<path d="M285.693 35.222
L286.312 35.222
" />
<path d="M285.569 35.594
L286.002 34.294
" />
<path d="M286.002 34.294
L286.436 35.594
" />
</g></g>
<g style="fill:none; 
stroke:#000000; stroke-width:0.150; stroke-opacity:1; 
stroke-linecap:round; stroke-linejoin:round;">
<text x="286.002" y="85.650"
textLength="1.490" font-size="1.733" lengthAdjust="spacingAndGlyphs"
text-anchor="middle" opacity="0" stroke-opacity="0">B</text>
<g class="stroked-text"><desc>B</desc>
<path d="M286.095 84.913
L286.281 84.975
" />
<path d="M286.281 84.975
L286.343 85.036
" />
<path d="M286.343 85.036
L286.405 85.160
" />
<path d="M286.405 85.160
L286.405 85.346
" />
<path d="M286.405 85.346
L286.343 85.470
" />
<path d="M286.343 85.470
L286.281 85.532
" />
<path d="M286.281 85.532
L286.157 85.594
" />
<path d="M286.157 85.594
L285.662 85.594
" />
<path d="M285.662 85.594
L285.662 84.294
" />
<path d="M285.662 84.294
L286.095 84.294
" />
<path d="M286.095 84.294
L286.219 84.356
" />
<path d="M286.219 84.356
L286.281 84.417
" />
<path d="M286.281 84.417
L286.343 84.541
" />
<path d="M286.343 84.541
L286.343 84.665
" />
<path d="M286.343 84.665
L286.281 84.789
" />
<path d="M286.281 84.789
L286.219 84.851
" />
<path d="M286.219 84.851
L286.095 84.913
" />
<path d="M286.095 84.913
L285.662 84.913
" />
</g></g>
<g style="fill:none; 
stroke:#000000; stroke-width:0.150; stroke-opacity:1; 
stroke-linecap:round; stroke-linejoin:round;">
<text x="286.002" y="135.650"
textLength="1.490" font-size="1.733" lengthAdjust="spacingAndGlyphs"
text-anchor="middle" opacity="0" stroke-opacity="0">C</text>
<g class="stroked-text"><desc>C</desc>
<path d="M286.405 135.470
L286.343 135.532
" />
<path d="M286.343 135.532
L286.157 135.594
" />
<path d="M286.157 135.594
L286.033 135.594
" />
<path d="M286.033 135.594
L285.847 135.532
" />
<path d="M285.847 135.532
L285.724 135.408
" />
<path d="M285.724 135.408
L285.662 135.284
" />
<path d="M285.662 135.284
L285.600 135.036
" />
<path d="M285.600 135.036
L285.600 134.851
" />
<path d="M285.600 134.851
L285.662 134.603
" />
<path d="M285.662 134.603
L285.724 134.479
" />
<path d="M285.724 134.479
L285.847 134.356
" />
<path d="M285.847 134.356
L286.033 134.294
" />
<path d="M286.033 134.294
L286.157 134.294
" />
<path d="M286.157 134.294
L286.343 134.356
" />
<path d="M286.343 134.356
L286.405 134.417
" />
</g></g>
<g style="fill:none; 
stroke:#000000; stroke-width:0.150; stroke-opacity:1; 
stroke-linecap:round; stroke-linejoin:round;">
<text x="286.002" y="185.650"
textLength="1.490" font-size="1.733" lengthAdjust="spacingAndGlyphs"
text-anchor="middle" opacity="0" stroke-opacity="0">D</text>
<g class="stroked-text"><desc>D</desc>
<path d="M285.662 185.594
L285.662 184.294
" />
<path d="M285.662 184.294
L285.971 184.294
" />
<path d="M285.971 184.294
L286.157 184.356
" />
<path d="M286.157 184.356
L286.281 184.479
" />
<path d="M286.281 184.479
L286.343 184.603
" />
<path d="M286.343 184.603
L286.405 184.851
" />
<path d="M286.405 184.851
L286.405 185.036
" />
<path d="M286.405 185.036
L286.343 185.284
" />
<path d="M286.343 185.284
L286.281 185.408
" />
<path d="M286.281 185.408
L286.157 185.532
" />
<path d="M286.157 185.532
L285.971 185.594
" />
<path d="M285.971 185.594
L285.662 185.594
" />
</g></g>
<g style="fill:none; 
stroke:#000000; stroke-width:0.150; stroke-opacity:1; 
stroke-linecap:round; stroke-linejoin:round;">
<text x="200.002" y="193.857"
textLength="22.150" font-size="2.000" lengthAdjust="spacingAndGlyphs"
text-anchor="start" opacity="0" stroke-opacity="0">Date: 2025-03-26</text>
<g class="stroked-text"><desc>Date: 2025-03-26</desc>
<path d="M200.458 193.793
L200.458 192.293
" />
<path d="M200.458 192.293
L200.815 192.293
" />
<path d="M200.815 192.293
L201.029 192.365
" />
<path d="M201.029 192.365
L201.172 192.508
" />
<path d="M201.172 192.508
L201.244 192.650
" />
<path d="M201.244 192.650
L201.315 192.936
" />
<path d="M201.315 192.936
L201.315 193.150
" />
<path d="M201.315 193.150
L201.244 193.436
" />
<path d="M201.244 193.436
L201.172 193.579
" />
<path d="M201.172 193.579
L201.029 193.722
" />
<path d="M201.029 193.722
L200.815 193.793
" />
<path d="M200.815 193.793
L200.458 193.793
" />
<path d="M202.601 193.793
L202.601 193.008
" />
<path d="M202.601 193.008
L202.529 192.865
" />
<path d="M202.529 192.865
L202.387 192.793
" />
<path d="M202.387 192.793
L202.101 192.793
" />
<path d="M202.101 192.793
L201.958 192.865
" />
<path d="M202.601 193.722
L202.458 193.793
" />
<path d="M202.458 193.793
L202.101 193.793
" />
<path d="M202.101 193.793
L201.958 193.722
" />
<path d="M201.958 193.722
L201.887 193.579
" />
<path d="M201.887 193.579
L201.887 193.436
" />
<path d="M201.887 193.436
L201.958 193.293
" />
<path d="M201.958 193.293
L202.101 193.222
" />
<path d="M202.101 193.222
L202.458 193.222
" />
<path d="M202.458 193.222
L202.601 193.150
" />
<path d="M203.101 192.793
L203.672 192.793
" />
<path d="M203.315 192.293
L203.315 193.579
" />
<path d="M203.315 193.579
L203.387 193.722
" />
<path d="M203.387 193.722
L203.529 193.793
" />
<path d="M203.529 193.793
L203.672 193.793
" />
<path d="M204.744 193.722
L204.601 193.793
" />
<path d="M204.601 193.793
L204.315 193.793
" />
<path d="M204.315 193.793
L204.172 193.722
" />
<path d="M204.172 193.722
L204.101 193.579
" />
<path d="M204.101 193.579
L204.101 193.008
" />
<path d="M204.101 193.008
L204.172 192.865
" />
<path d="M204.172 192.865
L204.315 192.793
" />
<path d="M204.315 192.793
L204.601 192.793
" />
<path d="M204.601 192.793
L204.744 192.865
" />
<path d="M204.744 192.865
L204.815 193.008
" />
<path d="M204.815 193.008
L204.815 193.150
" />
<path d="M204.815 193.150
L204.101 193.293
" />
<path d="M205.458 193.650
L205.529 193.722
" />
<path d="M205.529 193.722
L205.458 193.793
" />
<path d="M205.458 193.793
L205.387 193.722
" />
<path d="M205.387 193.722
L205.458 193.650
" />
<path d="M205.458 193.650
L205.458 193.793
" />
<path d="M205.458 192.865
L205.529 192.936
" />
<path d="M205.529 192.936
L205.458 193.008
" />
<path d="M205.458 193.008
L205.387 192.936
" />
<path d="M205.387 192.936
L205.458 192.865
" />
<path d="M205.458 192.865
L205.458 193.008
" />
<path d="M207.244 192.436
L207.315 192.365
" />
<path d="M207.315 192.365
L207.458 192.293
" />
<path d="M207.458 192.293
L207.815 192.293
" />
<path d="M207.815 192.293
L207.958 192.365
" />
<path d="M207.958 192.365
L208.029 192.436
" />
<path d="M208.029 192.436
L208.101 192.579
" />
<path d="M208.101 192.579
L208.101 192.722
" />
<path d="M208.101 192.722
L208.029 192.936
" />
<path d="M208.029 192.936
L207.172 193.793
" />
<path d="M207.172 193.793
L208.101 193.793
" />
<path d="M209.029 192.293
L209.172 192.293
" />
<path d="M209.172 192.293
L209.315 192.365
" />
<path d="M209.315 192.365
L209.387 192.436
" />
<path d="M209.387 192.436
L209.458 192.579
" />
<path d="M209.458 192.579
L209.529 192.865
" />
<path d="M209.529 192.865
L209.529 193.222
" />
<path d="M209.529 193.222
L209.458 193.508
" />
<path d="M209.458 193.508
L209.387 193.650
" />
<path d="M209.387 193.650
L209.315 193.722
" />
<path d="M209.315 193.722
L209.172 193.793
" />
<path d="M209.172 193.793
L209.029 193.793
" />
<path d="M209.029 193.793
L208.887 193.722
" />
<path d="M208.887 193.722
L208.815 193.650
" />
<path d="M208.815 193.650
L208.744 193.508
" />
<path d="M208.744 193.508
L208.672 193.222
" />
<path d="M208.672 193.222
L208.672 192.865
" />
<path d="M208.672 192.865
L208.744 192.579
" />
<path d="M208.744 192.579
L208.815 192.436
" />
<path d="M208.815 192.436
L208.887 192.365
" />
<path d="M208.887 192.365
L209.029 192.293
" />
<path d="M210.101 192.436
L210.172 192.365
" />
<path d="M210.172 192.365
L210.315 192.293
" />
<path d="M210.315 192.293
L210.672 192.293
" />
<path d="M210.672 192.293
L210.815 192.365
" />
<path d="M210.815 192.365
L210.887 192.436
" />
<path d="M210.887 192.436
L210.958 192.579
" />
<path d="M210.958 192.579
L210.958 192.722
" />
<path d="M210.958 192.722
L210.887 192.936
" />
<path d="M210.887 192.936
L210.029 193.793
" />
<path d="M210.029 193.793
L210.958 193.793
" />
<path d="M212.315 192.293
L211.601 192.293
" />
<path d="M211.601 192.293
L211.529 193.008
" />
<path d="M211.529 193.008
L211.601 192.936
" />
<path d="M211.601 192.936
L211.744 192.865
" />
<path d="M211.744 192.865
L212.101 192.865
" />
<path d="M212.101 192.865
L212.244 192.936
" />
<path d="M212.244 192.936
L212.315 193.008
" />
<path d="M212.315 193.008
L212.387 193.150
" />
<path d="M212.387 193.150
L212.387 193.508
" />
<path d="M212.387 193.508
L212.315 193.650
" />
<path d="M212.315 193.650
L212.244 193.722
" />
<path d="M212.244 193.722
L212.101 193.793
" />
<path d="M212.101 193.793
L211.744 193.793
" />
<path d="M211.744 193.793
L211.601 193.722
" />
<path d="M211.601 193.722
L211.529 193.650
" />
<path d="M213.029 193.222
L214.172 193.222
" />
<path d="M215.172 192.293
L215.315 192.293
" />
<path d="M215.315 192.293
L215.458 192.365
" />
<path d="M215.458 192.365
L215.529 192.436
" />
<path d="M215.529 192.436
L215.601 192.579
" />
<path d="M215.601 192.579
L215.672 192.865
" />
<path d="M215.672 192.865
L215.672 193.222
" />
<path d="M215.672 193.222
L215.601 193.508
" />
<path d="M215.601 193.508
L215.529 193.650
" />
<path d="M215.529 193.650
L215.458 193.722
" />
<path d="M215.458 193.722
L215.315 193.793
" />
<path d="M215.315 193.793
L215.172 193.793
" />
<path d="M215.172 193.793
L215.029 193.722
" />
<path d="M215.029 193.722
L214.958 193.650
" />
<path d="M214.958 193.650
L214.887 193.508
" />
<path d="M214.887 193.508
L214.815 193.222
" />
<path d="M214.815 193.222
L214.815 192.865
" />
<path d="M214.815 192.865
L214.887 192.579
" />
<path d="M214.887 192.579
L214.958 192.436
" />
<path d="M214.958 192.436
L215.029 192.365
" />
<path d="M215.029 192.365
L215.172 192.293
" />
<path d="M216.172 192.293
L217.101 192.293
" />
<path d="M217.101 192.293
L216.601 192.865
" />
<path d="M216.601 192.865
L216.815 192.865
" />
<path d="M216.815 192.865
L216.958 192.936
" />
<path d="M216.958 192.936
L217.029 193.008
" />
<path d="M217.029 193.008
L217.101 193.150
" />
<path d="M217.101 193.150
L217.101 193.508
" />
<path d="M217.101 193.508
L217.029 193.650
" />
<path d="M217.029 193.650
L216.958 193.722
" />
<path d="M216.958 193.722
L216.815 193.793
" />
<path d="M216.815 193.793
L216.387 193.793
" />
<path d="M216.387 193.793
L216.244 193.722
" />
<path d="M216.244 193.722
L216.172 193.650
" />
<path d="M217.744 193.222
L218.887 193.222
" />
<path d="M219.529 192.436
L219.601 192.365
" />
<path d="M219.601 192.365
L219.744 192.293
" />
<path d="M219.744 192.293
L220.101 192.293
" />
<path d="M220.101 192.293
L220.244 192.365
" />
<path d="M220.244 192.365
L220.315 192.436
" />
<path d="M220.315 192.436
L220.387 192.579
" />
<path d="M220.387 192.579
L220.387 192.722
" />
<path d="M220.387 192.722
L220.315 192.936
" />
<path d="M220.315 192.936
L219.458 193.793
" />
<path d="M219.458 193.793
L220.387 193.793
" />
<path d="M221.672 192.293
L221.387 192.293
" />
<path d="M221.387 192.293
L221.244 192.365
" />
<path d="M221.244 192.365
L221.172 192.436
" />
<path d="M221.172 192.436
L221.029 192.650
" />
<path d="M221.029 192.650
L220.958 192.936
" />
<path d="M220.958 192.936
L220.958 193.508
" />
<path d="M220.958 193.508
L221.029 193.650
" />
<path d="M221.029 193.650
L221.101 193.722
" />
<path d="M221.101 193.722
L221.244 193.793
" />
<path d="M221.244 193.793
L221.529 193.793
" />
<path d="M221.529 193.793
L221.672 193.722
" />
<path d="M221.672 193.722
L221.744 193.650
" />
<path d="M221.744 193.650
L221.815 193.508
" />
<path d="M221.815 193.508
L221.815 193.150
" />
<path d="M221.815 193.150
L221.744 193.008
" />
<path d="M221.744 193.008
L221.672 192.936
" />
<path d="M221.672 192.936
L221.529 192.865
" />
<path d="M221.529 192.865
L221.244 192.865
" />
<path d="M221.244 192.865
L221.101 192.936
" />
<path d="M221.101 192.936
L221.029 193.008
" />
<path d="M221.029 193.008
L220.958 193.150
" />
</g></g>
<g style="fill:none; 
stroke:#000000; stroke-width:0.150; stroke-opacity:1; 
stroke-linecap:round; stroke-linejoin:round;">
<path d="M177.002 194.507
L285.002 194.507
" />
</g>
<g style="fill:none; 
stroke:#000000; stroke-width:0.150; stroke-opacity:1; 
stroke-linecap:round; stroke-linejoin:round;">
<text x="178.002" y="196.657"
textLength="20.650" font-size="2.000" lengthAdjust="spacingAndGlyphs"
text-anchor="start" opacity="0" stroke-opacity="0">${KICAD_VERSION}</text>
<g class="stroked-text"><desc>${KICAD_VERSION}</desc>
<path d="M178.387 196.522
L178.601 196.593
" />
<path d="M178.601 196.593
L178.958 196.593
" />
<path d="M178.958 196.593
L179.101 196.522
" />
<path d="M179.101 196.522
L179.172 196.450
" />
<path d="M179.172 196.450
L179.244 196.308
" />
<path d="M179.244 196.308
L179.244 196.165
" />
<path d="M179.244 196.165
L179.172 196.022
" />
<path d="M179.172 196.022
L179.101 195.950
" />
<path d="M179.101 195.950
L178.958 195.879
" />
<path d="M178.958 195.879
L178.672 195.808
" />
<path d="M178.672 195.808
L178.529 195.736
" />
<path d="M178.529 195.736
L178.458 195.665
" />
<path d="M178.458 195.665
L178.387 195.522
" />
<path d="M178.387 195.522
L178.387 195.379
" />
<path d="M178.387 195.379
L178.458 195.236
" />
<path d="M178.458 195.236
L178.529 195.165
" />
<path d="M178.529 195.165
L178.672 195.093
" />
<path d="M178.672 195.093
L179.029 195.093
" />
<path d="M179.029 195.093
L179.244 195.165
" />
<path d="M178.815 194.879
L178.815 196.808
" />
<path d="M180.315 197.165
L180.244 197.165
" />
<path d="M180.244 197.165
L180.101 197.093
" />
<path d="M180.101 197.093
L180.029 196.950
" />
<path d="M180.029 196.950
L180.029 196.236
" />
<path d="M180.029 196.236
L179.958 196.093
" />
<path d="M179.958 196.093
L179.815 196.022
" />
<path d="M179.815 196.022
L179.958 195.950
" />
<path d="M179.958 195.950
L180.029 195.808
" />
<path d="M180.029 195.808
L180.029 195.093
" />
<path d="M180.029 195.093
L180.101 194.950
" />
<path d="M180.101 194.950
L180.244 194.879
" />
<path d="M180.244 194.879
L180.315 194.879
" />
<path d="M180.887 196.593
L180.887 195.093
" />
<path d="M181.744 196.593
L181.101 195.736
" />
<path d="M181.744 195.093
L180.887 195.950
" />
<path d="M182.387 196.593
L182.387 195.093
" />
<path d="M183.958 196.450
L183.887 196.522
" />
<path d="M183.887 196.522
L183.672 196.593
" />
<path d="M183.672 196.593
L183.529 196.593
" />
<path d="M183.529 196.593
L183.315 196.522
" />
<path d="M183.315 196.522
L183.172 196.379
" />
<path d="M183.172 196.379
L183.101 196.236
" />
<path d="M183.101 196.236
L183.029 195.950
" />
<path d="M183.029 195.950
L183.029 195.736
" />
<path d="M183.029 195.736
L183.101 195.450
" />
<path d="M183.101 195.450
L183.172 195.308
" />
<path d="M183.172 195.308
L183.315 195.165
" />
<path d="M183.315 195.165
L183.529 195.093
" />
<path d="M183.529 195.093
L183.672 195.093
" />
<path d="M183.672 195.093
L183.887 195.165
" />
<path d="M183.887 195.165
L183.958 195.236
" />
<path d="M184.529 196.165
L185.244 196.165
" />
<path d="M184.387 196.593
L184.887 195.093
" />
<path d="M184.887 195.093
L185.387 196.593
" />
<path d="M185.887 196.593
L185.887 195.093
" />
<path d="M185.887 195.093
L186.244 195.093
" />
<path d="M186.244 195.093
L186.458 195.165
" />
<path d="M186.458 195.165
L186.601 195.308
" />
<path d="M186.601 195.308
L186.672 195.450
" />
<path d="M186.672 195.450
L186.744 195.736
" />
<path d="M186.744 195.736
L186.744 195.950
" />
<path d="M186.744 195.950
L186.672 196.236
" />
<path d="M186.672 196.236
L186.601 196.379
" />
<path d="M186.601 196.379
L186.458 196.522
" />
<path d="M186.458 196.522
L186.244 196.593
" />
<path d="M186.244 196.593
L185.887 196.593
" />
<path d="M187.029 196.736
L188.172 196.736
" />
<path d="M188.315 195.093
L188.815 196.593
" />
<path d="M188.815 196.593
L189.315 195.093
" />
<path d="M189.815 195.808
L190.315 195.808
" />
<path d="M190.529 196.593
L189.815 196.593
" />
<path d="M189.815 196.593
L189.815 195.093
" />
<path d="M189.815 195.093
L190.529 195.093
" />
<path d="M192.029 196.593
L191.529 195.879
" />
<path d="M191.172 196.593
L191.172 195.093
" />
<path d="M191.172 195.093
L191.744 195.093
" />
<path d="M191.744 195.093
L191.887 195.165
" />
<path d="M191.887 195.165
L191.958 195.236
" />
<path d="M191.958 195.236
L192.029 195.379
" />
<path d="M192.029 195.379
L192.029 195.593
" />
<path d="M192.029 195.593
L191.958 195.736
" />
<path d="M191.958 195.736
L191.887 195.808
" />
<path d="M191.887 195.808
L191.744 195.879
" />
<path d="M191.744 195.879
L191.172 195.879
" />
<path d="M192.601 196.522
L192.815 196.593
" />
<path d="M192.815 196.593
L193.172 196.593
" />
<path d="M193.172 196.593
L193.315 196.522
" />
<path d="M193.315 196.522
L193.387 196.450
" />
<path d="M193.387 196.450
L193.458 196.308
" />
<path d="M193.458 196.308
L193.458 196.165
" />
<path d="M193.458 196.165
L193.387 196.022
" />
<path d="M193.387 196.022
L193.315 195.950
" />
<path d="M193.315 195.950
L193.172 195.879
" />
<path d="M193.172 195.879
L192.887 195.808
" />
<path d="M192.887 195.808
L192.744 195.736
" />
<path d="M192.744 195.736
L192.672 195.665
" />
<path d="M192.672 195.665
L192.601 195.522
" />
<path d="M192.601 195.522
L192.601 195.379
" />
<path d="M192.601 195.379
L192.672 195.236
" />
<path d="M192.672 195.236
L192.744 195.165
" />
<path d="M192.744 195.165
L192.887 195.093
" />
<path d="M192.887 195.093
L193.244 195.093
" />
<path d="M193.244 195.093
L193.458 195.165
" />
<path d="M194.101 196.593
L194.101 195.093
" />
<path d="M195.101 195.093
L195.387 195.093
" />
<path d="M195.387 195.093
L195.529 195.165
" />
<path d="M195.529 195.165
L195.672 195.308
" />
<path d="M195.672 195.308
L195.744 195.593
" />
<path d="M195.744 195.593
L195.744 196.093
" />
<path d="M195.744 196.093
L195.672 196.379
" />
<path d="M195.672 196.379
L195.529 196.522
" />
<path d="M195.529 196.522
L195.387 196.593
" />
<path d="M195.387 196.593
L195.101 196.593
" />
<path d="M195.101 196.593
L194.958 196.522
" />
<path d="M194.958 196.522
L194.815 196.379
" />
<path d="M194.815 196.379
L194.744 196.093
" />
<path d="M194.744 196.093
L194.744 195.593
" />
<path d="M194.744 195.593
L194.815 195.308
" />
<path d="M194.815 195.308
L194.958 195.165
" />
<path d="M194.958 195.165
L195.101 195.093
" />
<path d="M196.387 196.593
L196.387 195.093
" />
<path d="M196.387 195.093
L197.244 196.593
" />
<path d="M197.244 196.593
L197.244 195.093
" />
<path d="M197.815 197.165
L197.887 197.165
" />
<path d="M197.887 197.165
L198.029 197.093
" />
<path d="M198.029 197.093
L198.101 196.950
" />
<path d="M198.101 196.950
L198.101 196.236
" />
<path d="M198.101 196.236
L198.172 196.093
" />
<path d="M198.172 196.093
L198.315 196.022
" />
<path d="M198.315 196.022
L198.172 195.950
" />
<path d="M198.172 195.950
L198.101 195.808
" />
<path d="M198.101 195.808
L198.101 195.093
" />
<path d="M198.101 195.093
L198.029 194.950
" />
<path d="M198.029 194.950
L197.887 194.879
" />
<path d="M197.887 194.879
L197.815 194.879
" />
</g></g>
<g style="fill:none; 
stroke:#000000; stroke-width:0.150; stroke-opacity:1; 
stroke-linecap:round; stroke-linejoin:round;">
<path d="M177.002 191.507
L285.002 191.507
" />
</g>
<g style="fill:none; 
stroke:#000000; stroke-width:0.300; stroke-opacity:1; 
stroke-linecap:round; stroke-linejoin:round;">
<text x="263.002" y="193.857"
textLength="8.957" font-size="2.000" lengthAdjust="spacingAndGlyphs"
text-anchor="start" opacity="0" stroke-opacity="0">Rev: v2</text>
<g class="stroked-text"><desc>Rev: v2</desc>
<path d="M264.414 193.786
L263.914 193.071
" />
<path d="M263.557 193.786
L263.557 192.286
" />
<path d="M263.557 192.286
L264.128 192.286
" />
<path d="M264.128 192.286
L264.271 192.357
" />
<path d="M264.271 192.357
L264.342 192.428
" />
<path d="M264.342 192.428
L264.414 192.571
" />
<path d="M264.414 192.571
L264.414 192.786
" />
<path d="M264.414 192.786
L264.342 192.928
" />
<path d="M264.342 192.928
L264.271 193.000
" />
<path d="M264.271 193.000
L264.128 193.071
" />
<path d="M264.128 193.071
L263.557 193.071
" />
<path d="M265.628 193.714
L265.485 193.786
" />
<path d="M265.485 193.786
L265.200 193.786
" />
<path d="M265.200 193.786
L265.057 193.714
" />
<path d="M265.057 193.714
L264.985 193.571
" />
<path d="M264.985 193.571
L264.985 193.000
" />
<path d="M264.985 193.000
L265.057 192.857
" />
<path d="M265.057 192.857
L265.200 192.786
" />
<path d="M265.200 192.786
L265.485 192.786
" />
<path d="M265.485 192.786
L265.628 192.857
" />
<path d="M265.628 192.857
L265.700 193.000
" />
<path d="M265.700 193.000
L265.700 193.143
" />
<path d="M265.700 193.143
L264.985 193.286
" />
<path d="M266.200 192.786
L266.557 193.786
" />
<path d="M266.557 193.786
L266.914 192.786
" />
<path d="M267.485 193.643
L267.557 193.714
" />
<path d="M267.557 193.714
L267.485 193.786
" />
<path d="M267.485 193.786
L267.414 193.714
" />
<path d="M267.414 193.714
L267.485 193.643
" />
<path d="M267.485 193.643
L267.485 193.786
" />
<path d="M267.485 192.857
L267.557 192.928
" />
<path d="M267.557 192.928
L267.485 193.000
" />
<path d="M267.485 193.000
L267.414 192.928
" />
<path d="M267.414 192.928
L267.485 192.857
" />
<path d="M267.485 192.857
L267.485 193.000
" />
<path d="M269.200 192.786
L269.557 193.786
" />
<path d="M269.557 193.786
L269.914 192.786
" />
<path d="M270.414 192.428
L270.485 192.357
" />
<path d="M270.485 192.357
L270.628 192.286
" />
<path d="M270.628 192.286
L270.985 192.286
" />
<path d="M270.985 192.286
L271.128 192.357
" />
<path d="M271.128 192.357
L271.200 192.428
" />
<path d="M271.200 192.428
L271.271 192.571
" />
<path d="M271.271 192.571
L271.271 192.714
" />
<path d="M271.271 192.714
L271.200 192.928
" />
<path d="M271.200 192.928
L270.342 193.786
" />
<path d="M270.342 193.786
L271.271 193.786
" />
</g></g>
<g style="fill:none; 
stroke:#000000; stroke-width:0.150; stroke-opacity:1; 
stroke-linecap:round; stroke-linejoin:round;">
<text x="178.002" y="193.857"
textLength="9.364" font-size="2.000" lengthAdjust="spacingAndGlyphs"
text-anchor="start" opacity="0" stroke-opacity="0">Size: A4</text>
<g class="stroked-text"><desc>Size: A4</desc>
<path d="M178.387 193.722
L178.601 193.793
" />
<path d="M178.601 193.793
L178.958 193.793
" />
<path d="M178.958 193.793
L179.101 193.722
" />
<path d="M179.101 193.722
L179.172 193.650
" />
<path d="M179.172 193.650
L179.244 193.508
" />
<path d="M179.244 193.508
L179.244 193.365
" />
<path d="M179.244 193.365
L179.172 193.222
" />
<path d="M179.172 193.222
L179.101 193.150
" />
<path d="M179.101 193.150
L178.958 193.079
" />
<path d="M178.958 193.079
L178.672 193.008
" />
<path d="M178.672 193.008
L178.529 192.936
" />
<path d="M178.529 192.936
L178.458 192.865
" />
<path d="M178.458 192.865
L178.387 192.722
" />
<path d="M178.387 192.722
L178.387 192.579
" />
<path d="M178.387 192.579
L178.458 192.436
" />
<path d="M178.458 192.436
L178.529 192.365
" />
<path d="M178.529 192.365
L178.672 192.293
" />
<path d="M178.672 192.293
L179.029 192.293
" />
<path d="M179.029 192.293
L179.244 192.365
" />
<path d="M179.887 193.793
L179.887 192.793
" />
<path d="M179.887 192.293
L179.815 192.365
" />
<path d="M179.815 192.365
L179.887 192.436
" />
<path d="M179.887 192.436
L179.958 192.365
" />
<path d="M179.958 192.365
L179.887 192.293
" />
<path d="M179.887 192.293
L179.887 192.436
" />
<path d="M180.458 192.793
L181.244 192.793
" />
<path d="M181.244 192.793
L180.458 193.793
" />
<path d="M180.458 193.793
L181.244 193.793
" />
<path d="M182.387 193.722
L182.244 193.793
" />
<path d="M182.244 193.793
L181.958 193.793
" />
<path d="M181.958 193.793
L181.815 193.722
" />
<path d="M181.815 193.722
L181.744 193.579
" />
<path d="M181.744 193.579
L181.744 193.008
" />
<path d="M181.744 193.008
L181.815 192.865
" />
<path d="M181.815 192.865
L181.958 192.793
" />
<path d="M181.958 192.793
L182.244 192.793
" />
<path d="M182.244 192.793
L182.387 192.865
" />
<path d="M182.387 192.865
L182.458 193.008
" />
<path d="M182.458 193.008
L182.458 193.150
" />
<path d="M182.458 193.150
L181.744 193.293
" />
<path d="M183.101 193.650
L183.172 193.722
" />
<path d="M183.172 193.722
L183.101 193.793
" />
<path d="M183.101 193.793
L183.029 193.722
" />
<path d="M183.029 193.722
L183.101 193.650
" />
<path d="M183.101 193.650
L183.101 193.793
" />
<path d="M183.101 192.865
L183.172 192.936
" />
<path d="M183.172 192.936
L183.101 193.008
" />
<path d="M183.101 193.008
L183.029 192.936
" />
<path d="M183.029 192.936
L183.101 192.865
" />
<path d="M183.101 192.865
L183.101 193.008
" />
<path d="M184.887 193.365
L185.601 193.365
" />
<path d="M184.744 193.793
L185.244 192.293
" />
<path d="M185.244 192.293
L185.744 193.793
" />
<path d="M186.887 192.793
L186.887 193.793
" />
<path d="M186.529 192.222
L186.172 193.293
" />
<path d="M186.172 193.293
L187.101 193.293
" />
</g></g>
<g style="fill:none; 
stroke:#000000; stroke-width:0.150; stroke-opacity:1; 
stroke-linecap:round; stroke-linejoin:round;">
<text x="263.002" y="196.657"
textLength="7.079" font-size="2.000" lengthAdjust="spacingAndGlyphs"
text-anchor="start" opacity="0" stroke-opacity="0">Id: /1</text>
<g class="stroked-text"><desc>Id: /1</desc>
<path d="M263.458 196.593
L263.458 195.093
" />
<path d="M264.815 196.593
L264.815 195.093
" />
<path d="M264.815 196.522
L264.672 196.593
" />
<path d="M264.672 196.593
L264.387 196.593
" />
<path d="M264.387 196.593
L264.244 196.522
" />
<path d="M264.244 196.522
L264.172 196.450
" />
<path d="M264.172 196.450
L264.101 196.308
" />
<path d="M264.101 196.308
L264.101 195.879
" />
<path d="M264.101 195.879
L264.172 195.736
" />
<path d="M264.172 195.736
L264.244 195.665
" />
<path d="M264.244 195.665
L264.387 195.593
" />
<path d="M264.387 195.593
L264.672 195.593
" />
<path d="M264.672 195.593
L264.815 195.665
" />
<path d="M265.529 196.450
L265.601 196.522
" />
<path d="M265.601 196.522
L265.529 196.593
" />
<path d="M265.529 196.593
L265.458 196.522
" />
<path d="M265.458 196.522
L265.529 196.450
" />
<path d="M265.529 196.450
L265.529 196.593
" />
<path d="M265.529 195.665
L265.601 195.736
" />
<path d="M265.601 195.736
L265.529 195.808
" />
<path d="M265.529 195.808
L265.458 195.736
" />
<path d="M265.458 195.736
L265.529 195.665
" />
<path d="M265.529 195.665
L265.529 195.808
" />
<path d="M268.458 195.022
L267.172 196.950
" />
<path d="M269.744 196.593
L268.887 196.593
" />
<path d="M269.315 196.593
L269.315 195.093
" />
<path d="M269.315 195.093
L269.172 195.308
" />
<path d="M269.172 195.308
L269.029 195.450
" />
<path d="M269.029 195.450
L268.887 195.522
" />
</g></g>
<g style="fill:none; 
stroke:#000000; stroke-width:0.150; stroke-opacity:1; 
stroke-linecap:round; stroke-linejoin:round;">
<path d="M177.002 187.507
L285.002 187.507
" />
</g>
<g style="fill:none; 
stroke:#000000; stroke-width:0.400; stroke-opacity:1; 
stroke-linecap:round; stroke-linejoin:round;">
<text x="178.002" y="190.307"
textLength="37.371" font-size="2.667" lengthAdjust="spacingAndGlyphs"
text-anchor="start" opacity="0" stroke-opacity="0">Title: Tube Furnace PCB</text>
<g class="stroked-text"><desc>Title: Tube Furnace PCB</desc>
<path d="M178.694 188.212
L179.837 188.212
" />
<path d="M179.015 190.212
L179.265 188.212
" />
<path d="M180.253 190.212
L180.420 188.878
" />
<path d="M180.503 188.212
L180.396 188.307
" />
<path d="M180.396 188.307
L180.480 188.402
" />
<path d="M180.480 188.402
L180.587 188.307
" />
<path d="M180.587 188.307
L180.503 188.212
" />
<path d="M180.503 188.212
L180.480 188.402
" />
<path d="M181.087 188.878
L181.849 188.878
" />
<path d="M181.456 188.212
L181.242 189.926
" />
<path d="M181.242 189.926
L181.313 190.116
" />
<path d="M181.313 190.116
L181.492 190.212
" />
<path d="M181.492 190.212
L181.682 190.212
" />
<path d="M182.634 190.212
L182.456 190.116
" />
<path d="M182.456 190.116
L182.384 189.926
" />
<path d="M182.384 189.926
L182.599 188.212
" />
<path d="M184.170 190.116
L183.968 190.212
" />
<path d="M183.968 190.212
L183.587 190.212
" />
<path d="M183.587 190.212
L183.408 190.116
" />
<path d="M183.408 190.116
L183.337 189.926
" />
<path d="M183.337 189.926
L183.432 189.164
" />
<path d="M183.432 189.164
L183.551 188.974
" />
<path d="M183.551 188.974
L183.753 188.878
" />
<path d="M183.753 188.878
L184.134 188.878
" />
<path d="M184.134 188.878
L184.313 188.974
" />
<path d="M184.313 188.974
L184.384 189.164
" />
<path d="M184.384 189.164
L184.361 189.354
" />
<path d="M184.361 189.354
L183.384 189.545
" />
<path d="M185.134 190.021
L185.218 190.116
" />
<path d="M185.218 190.116
L185.111 190.212
" />
<path d="M185.111 190.212
L185.027 190.116
" />
<path d="M185.027 190.116
L185.134 190.021
" />
<path d="M185.134 190.021
L185.111 190.212
" />
<path d="M185.265 188.974
L185.349 189.069
" />
<path d="M185.349 189.069
L185.242 189.164
" />
<path d="M185.242 189.164
L185.158 189.069
" />
<path d="M185.158 189.069
L185.265 188.974
" />
<path d="M185.265 188.974
L185.242 189.164
" />
<path d="M187.551 188.212
L188.694 188.212
" />
<path d="M187.873 190.212
L188.123 188.212
" />
<path d="M190.134 188.878
L189.968 190.212
" />
<path d="M189.277 188.878
L189.146 189.926
" />
<path d="M189.146 189.926
L189.218 190.116
" />
<path d="M189.218 190.116
L189.396 190.212
" />
<path d="M189.396 190.212
L189.682 190.212
" />
<path d="M189.682 190.212
L189.884 190.116
" />
<path d="M189.884 190.116
L189.992 190.021
" />
<path d="M190.920 190.212
L191.170 188.212
" />
<path d="M191.075 188.974
L191.277 188.878
" />
<path d="M191.277 188.878
L191.658 188.878
" />
<path d="M191.658 188.878
L191.837 188.974
" />
<path d="M191.837 188.974
L191.920 189.069
" />
<path d="M191.920 189.069
L191.992 189.259
" />
<path d="M191.992 189.259
L191.920 189.831
" />
<path d="M191.920 189.831
L191.801 190.021
" />
<path d="M191.801 190.021
L191.694 190.116
" />
<path d="M191.694 190.116
L191.492 190.212
" />
<path d="M191.492 190.212
L191.111 190.212
" />
<path d="M191.111 190.212
L190.932 190.116
" />
<path d="M193.503 190.116
L193.301 190.212
" />
<path d="M193.301 190.212
L192.920 190.212
" />
<path d="M192.920 190.212
L192.742 190.116
" />
<path d="M192.742 190.116
L192.670 189.926
" />
<path d="M192.670 189.926
L192.765 189.164
" />
<path d="M192.765 189.164
L192.884 188.974
" />
<path d="M192.884 188.974
L193.087 188.878
" />
<path d="M193.087 188.878
L193.468 188.878
" />
<path d="M193.468 188.878
L193.646 188.974
" />
<path d="M193.646 188.974
L193.718 189.164
" />
<path d="M193.718 189.164
L193.694 189.354
" />
<path d="M193.694 189.354
L192.718 189.545
" />
<path d="M196.765 189.164
L196.099 189.164
" />
<path d="M195.968 190.212
L196.218 188.212
" />
<path d="M196.218 188.212
L197.170 188.212
" />
<path d="M198.706 188.878
L198.539 190.212
" />
<path d="M197.849 188.878
L197.718 189.926
" />
<path d="M197.718 189.926
L197.789 190.116
" />
<path d="M197.789 190.116
L197.968 190.212
" />
<path d="M197.968 190.212
L198.253 190.212
" />
<path d="M198.253 190.212
L198.456 190.116
" />
<path d="M198.456 190.116
L198.563 190.021
" />
<path d="M199.492 190.212
L199.658 188.878
" />
<path d="M199.611 189.259
L199.730 189.069
" />
<path d="M199.730 189.069
L199.837 188.974
" />
<path d="M199.837 188.974
L200.039 188.878
" />
<path d="M200.039 188.878
L200.230 188.878
" />
<path d="M200.896 188.878
L200.730 190.212
" />
<path d="M200.873 189.069
L200.980 188.974
" />
<path d="M200.980 188.974
L201.182 188.878
" />
<path d="M201.182 188.878
L201.468 188.878
" />
<path d="M201.468 188.878
L201.646 188.974
" />
<path d="M201.646 188.974
L201.718 189.164
" />
<path d="M201.718 189.164
L201.587 190.212
" />
<path d="M203.396 190.212
L203.527 189.164
" />
<path d="M203.527 189.164
L203.456 188.974
" />
<path d="M203.456 188.974
L203.277 188.878
" />
<path d="M203.277 188.878
L202.896 188.878
" />
<path d="M202.896 188.878
L202.694 188.974
" />
<path d="M203.408 190.116
L203.206 190.212
" />
<path d="M203.206 190.212
L202.730 190.212
" />
<path d="M202.730 190.212
L202.551 190.116
" />
<path d="M202.551 190.116
L202.480 189.926
" />
<path d="M202.480 189.926
L202.503 189.735
" />
<path d="M202.503 189.735
L202.623 189.545
" />
<path d="M202.623 189.545
L202.825 189.450
" />
<path d="M202.825 189.450
L203.301 189.450
" />
<path d="M203.301 189.450
L203.503 189.354
" />
<path d="M205.218 190.116
L205.015 190.212
" />
<path d="M205.015 190.212
L204.634 190.212
" />
<path d="M204.634 190.212
L204.456 190.116
" />
<path d="M204.456 190.116
L204.373 190.021
" />
<path d="M204.373 190.021
L204.301 189.831
" />
<path d="M204.301 189.831
L204.373 189.259
" />
<path d="M204.373 189.259
L204.492 189.069
" />
<path d="M204.492 189.069
L204.599 188.974
" />
<path d="M204.599 188.974
L204.801 188.878
" />
<path d="M204.801 188.878
L205.182 188.878
" />
<path d="M205.182 188.878
L205.361 188.974
" />
<path d="M206.837 190.116
L206.634 190.212
" />
<path d="M206.634 190.212
L206.253 190.212
" />
<path d="M206.253 190.212
L206.075 190.116
" />
<path d="M206.075 190.116
L206.003 189.926
" />
<path d="M206.003 189.926
L206.099 189.164
" />
<path d="M206.099 189.164
L206.218 188.974
" />
<path d="M206.218 188.974
L206.420 188.878
" />
<path d="M206.420 188.878
L206.801 188.878
" />
<path d="M206.801 188.878
L206.980 188.974
" />
<path d="M206.980 188.974
L207.051 189.164
" />
<path d="M207.051 189.164
L207.027 189.354
" />
<path d="M207.027 189.354
L206.051 189.545
" />
<path d="M209.301 190.212
L209.551 188.212
" />
<path d="M209.551 188.212
L210.313 188.212
" />
<path d="M210.313 188.212
L210.492 188.307
" />
<path d="M210.492 188.307
L210.575 188.402
" />
<path d="M210.575 188.402
L210.646 188.593
" />
<path d="M210.646 188.593
L210.611 188.878
" />
<path d="M210.611 188.878
L210.492 189.069
" />
<path d="M210.492 189.069
L210.384 189.164
" />
<path d="M210.384 189.164
L210.182 189.259
" />
<path d="M210.182 189.259
L209.420 189.259
" />
<path d="M212.468 190.021
L212.361 190.116
" />
<path d="M212.361 190.116
L212.063 190.212
" />
<path d="M212.063 190.212
L211.873 190.212
" />
<path d="M211.873 190.212
L211.599 190.116
" />
<path d="M211.599 190.116
L211.432 189.926
" />
<path d="M211.432 189.926
L211.361 189.735
" />
<path d="M211.361 189.735
L211.313 189.354
" />
<path d="M211.313 189.354
L211.349 189.069
" />
<path d="M211.349 189.069
L211.492 188.688
" />
<path d="M211.492 188.688
L211.611 188.497
" />
<path d="M211.611 188.497
L211.825 188.307
" />
<path d="M211.825 188.307
L212.123 188.212
" />
<path d="M212.123 188.212
L212.313 188.212
" />
<path d="M212.313 188.212
L212.587 188.307
" />
<path d="M212.587 188.307
L212.670 188.402
" />
<path d="M214.099 189.164
L214.373 189.259
" />
<path d="M214.373 189.259
L214.456 189.354
" />
<path d="M214.456 189.354
L214.527 189.545
" />
<path d="M214.527 189.545
L214.492 189.831
" />
<path d="M214.492 189.831
L214.373 190.021
" />
<path d="M214.373 190.021
L214.265 190.116
" />
<path d="M214.265 190.116
L214.063 190.212
" />
<path d="M214.063 190.212
L213.301 190.212
" />
<path d="M213.301 190.212
L213.551 188.212
" />
<path d="M213.551 188.212
L214.218 188.212
" />
<path d="M214.218 188.212
L214.396 188.307
" />
<path d="M214.396 188.307
L214.480 188.402
" />
<path d="M214.480 188.402
L214.551 188.593
" />
<path d="M214.551 188.593
L214.527 188.783
" />
<path d="M214.527 188.783
L214.408 188.974
" />
<path d="M214.408 188.974
L214.301 189.069
" />
<path d="M214.301 189.069
L214.099 189.164
" />
<path d="M214.099 189.164
L213.432 189.164
" />
</g></g>
<g style="fill:none; 
stroke:#000000; stroke-width:0.150; stroke-opacity:1; 
stroke-linecap:round; stroke-linejoin:round;">
<text x="178.002" y="186.457"
textLength="30.221" font-size="2.000" lengthAdjust="spacingAndGlyphs"
text-anchor="start" opacity="0" stroke-opacity="0">File: phoenix_v1.kicad_pcb</text>
<g class="stroked-text"><desc>File: phoenix_v1.kicad_pcb</desc>
<path d="M178.958 185.608
L178.458 185.608
" />
<path d="M178.458 186.393
L178.458 184.893
" />
<path d="M178.458 184.893
L179.172 184.893
" />
<path d="M179.744 186.393
L179.744 185.393
" />
<path d="M179.744 184.893
L179.672 184.965
" />
<path d="M179.672 184.965
L179.744 185.036
" />
<path d="M179.744 185.036
L179.815 184.965
" />
<path d="M179.815 184.965
L179.744 184.893
" />
<path d="M179.744 184.893
L179.744 185.036
" />
<path d="M180.672 186.393
L180.529 186.322
" />
<path d="M180.529 186.322
L180.458 186.179
" />
<path d="M180.458 186.179
L180.458 184.893
" />
<path d="M181.815 186.322
L181.672 186.393
" />
<path d="M181.672 186.393
L181.387 186.393
" />
<path d="M181.387 186.393
L181.244 186.322
" />
<path d="M181.244 186.322
L181.172 186.179
" />
<path d="M181.172 186.179
L181.172 185.608
" />
<path d="M181.172 185.608
L181.244 185.465
" />
<path d="M181.244 185.465
L181.387 185.393
" />
<path d="M181.387 185.393
L181.672 185.393
" />
<path d="M181.672 185.393
L181.815 185.465
" />
<path d="M181.815 185.465
L181.887 185.608
" />
<path d="M181.887 185.608
L181.887 185.750
" />
<path d="M181.887 185.750
L181.172 185.893
" />
<path d="M182.529 186.250
L182.601 186.322
" />
<path d="M182.601 186.322
L182.529 186.393
" />
<path d="M182.529 186.393
L182.458 186.322
" />
<path d="M182.458 186.322
L182.529 186.250
" />
<path d="M182.529 186.250
L182.529 186.393
" />
<path d="M182.529 185.465
L182.601 185.536
" />
<path d="M182.601 185.536
L182.529 185.608
" />
<path d="M182.529 185.608
L182.458 185.536
" />
<path d="M182.458 185.536
L182.529 185.465
" />
<path d="M182.529 185.465
L182.529 185.608
" />
<path d="M184.387 185.393
L184.387 186.893
" />
<path d="M184.387 185.465
L184.529 185.393
" />
<path d="M184.529 185.393
L184.815 185.393
" />
<path d="M184.815 185.393
L184.958 185.465
" />
<path d="M184.958 185.465
L185.029 185.536
" />
<path d="M185.029 185.536
L185.101 185.679
" />
<path d="M185.101 185.679
L185.101 186.108
" />
<path d="M185.101 186.108
L185.029 186.250
" />
<path d="M185.029 186.250
L184.958 186.322
" />
<path d="M184.958 186.322
L184.815 186.393
" />
<path d="M184.815 186.393
L184.529 186.393
" />
<path d="M184.529 186.393
L184.387 186.322
" />
<path d="M185.744 186.393
L185.744 184.893
" />
<path d="M186.387 186.393
L186.387 185.608
" />
<path d="M186.387 185.608
L186.315 185.465
" />
<path d="M186.315 185.465
L186.172 185.393
" />
<path d="M186.172 185.393
L185.958 185.393
" />
<path d="M185.958 185.393
L185.815 185.465
" />
<path d="M185.815 185.465
L185.744 185.536
" />
<path d="M187.315 186.393
L187.172 186.322
" />
<path d="M187.172 186.322
L187.101 186.250
" />
<path d="M187.101 186.250
L187.029 186.108
" />
<path d="M187.029 186.108
L187.029 185.679
" />
<path d="M187.029 185.679
L187.101 185.536
" />
<path d="M187.101 185.536
L187.172 185.465
" />
<path d="M187.172 185.465
L187.315 185.393
" />
<path d="M187.315 185.393
L187.529 185.393
" />
<path d="M187.529 185.393
L187.672 185.465
" />
<path d="M187.672 185.465
L187.744 185.536
" />
<path d="M187.744 185.536
L187.815 185.679
" />
<path d="M187.815 185.679
L187.815 186.108
" />
<path d="M187.815 186.108
L187.744 186.250
" />
<path d="M187.744 186.250
L187.672 186.322
" />
<path d="M187.672 186.322
L187.529 186.393
" />
<path d="M187.529 186.393
L187.315 186.393
" />
<path d="M189.029 186.322
L188.887 186.393
" />
<path d="M188.887 186.393
L188.601 186.393
" />
<path d="M188.601 186.393
L188.458 186.322
" />
<path d="M188.458 186.322
L188.387 186.179
" />
<path d="M188.387 186.179
L188.387 185.608
" />
<path d="M188.387 185.608
L188.458 185.465
" />
<path d="M188.458 185.465
L188.601 185.393
" />
<path d="M188.601 185.393
L188.887 185.393
" />
<path d="M188.887 185.393
L189.029 185.465
" />
<path d="M189.029 185.465
L189.101 185.608
" />
<path d="M189.101 185.608
L189.101 185.750
" />
<path d="M189.101 185.750
L188.387 185.893
" />
<path d="M189.744 185.393
L189.744 186.393
" />
<path d="M189.744 185.536
L189.815 185.465
" />
<path d="M189.815 185.465
L189.958 185.393
" />
<path d="M189.958 185.393
L190.172 185.393
" />
<path d="M190.172 185.393
L190.315 185.465
" />
<path d="M190.315 185.465
L190.387 185.608
" />
<path d="M190.387 185.608
L190.387 186.393
" />
<path d="M191.101 186.393
L191.101 185.393
" />
<path d="M191.101 184.893
L191.029 184.965
" />
<path d="M191.029 184.965
L191.101 185.036
" />
<path d="M191.101 185.036
L191.172 184.965
" />
<path d="M191.172 184.965
L191.101 184.893
" />
<path d="M191.101 184.893
L191.101 185.036
" />
<path d="M191.672 186.393
L192.458 185.393
" />
<path d="M191.672 185.393
L192.458 186.393
" />
<path d="M192.672 186.536
L193.815 186.536
" />
<path d="M194.029 185.393
L194.387 186.393
" />
<path d="M194.387 186.393
L194.744 185.393
" />
<path d="M196.101 186.393
L195.244 186.393
" />
<path d="M195.672 186.393
L195.672 184.893
" />
<path d="M195.672 184.893
L195.529 185.108
" />
<path d="M195.529 185.108
L195.387 185.250
" />
<path d="M195.387 185.250
L195.244 185.322
" />
<path d="M196.744 186.250
L196.815 186.322
" />
<path d="M196.815 186.322
L196.744 186.393
" />
<path d="M196.744 186.393
L196.672 186.322
" />
<path d="M196.672 186.322
L196.744 186.250
" />
<path d="M196.744 186.250
L196.744 186.393
" />
<path d="M197.458 186.393
L197.458 184.893
" />
<path d="M197.601 185.822
L198.029 186.393
" />
<path d="M198.029 185.393
L197.458 185.965
" />
<path d="M198.672 186.393
L198.672 185.393
" />
<path d="M198.672 184.893
L198.601 184.965
" />
<path d="M198.601 184.965
L198.672 185.036
" />
<path d="M198.672 185.036
L198.744 184.965
" />
<path d="M198.744 184.965
L198.672 184.893
" />
<path d="M198.672 184.893
L198.672 185.036
" />
<path d="M200.029 186.322
L199.887 186.393
" />
<path d="M199.887 186.393
L199.601 186.393
" />
<path d="M199.601 186.393
L199.458 186.322
" />
<path d="M199.458 186.322
L199.387 186.250
" />
<path d="M199.387 186.250
L199.315 186.108
" />
<path d="M199.315 186.108
L199.315 185.679
" />
<path d="M199.315 185.679
L199.387 185.536
" />
<path d="M199.387 185.536
L199.458 185.465
" />
<path d="M199.458 185.465
L199.601 185.393
" />
<path d="M199.601 185.393
L199.887 185.393
" />
<path d="M199.887 185.393
L200.029 185.465
" />
<path d="M201.315 186.393
L201.315 185.608
" />
<path d="M201.315 185.608
L201.244 185.465
" />
<path d="M201.244 185.465
L201.101 185.393
" />
<path d="M201.101 185.393
L200.815 185.393
" />
<path d="M200.815 185.393
L200.672 185.465
" />
<path d="M201.315 186.322
L201.172 186.393
" />
<path d="M201.172 186.393
L200.815 186.393
" />
<path d="M200.815 186.393
L200.672 186.322
" />
<path d="M200.672 186.322
L200.601 186.179
" />
<path d="M200.601 186.179
L200.601 186.036
" />
<path d="M200.601 186.036
L200.672 185.893
" />
<path d="M200.672 185.893
L200.815 185.822
" />
<path d="M200.815 185.822
L201.172 185.822
" />
<path d="M201.172 185.822
L201.315 185.750
" />
<path d="M202.672 186.393
L202.672 184.893
" />
<path d="M202.672 186.322
L202.529 186.393
" />
<path d="M202.529 186.393
L202.244 186.393
" />
<path d="M202.244 186.393
L202.101 186.322
" />
<path d="M202.101 186.322
L202.029 186.250
" />
<path d="M202.029 186.250
L201.958 186.108
" />
<path d="M201.958 186.108
L201.958 185.679
" />
<path d="M201.958 185.679
L202.029 185.536
" />
<path d="M202.029 185.536
L202.101 185.465
" />
<path d="M202.101 185.465
L202.244 185.393
" />
<path d="M202.244 185.393
L202.529 185.393
" />
<path d="M202.529 185.393
L202.672 185.465
" />
<path d="M203.029 186.536
L204.172 186.536
" />
<path d="M204.529 185.393
L204.529 186.893
" />
<path d="M204.529 185.465
L204.672 185.393
" />
<path d="M204.672 185.393
L204.958 185.393
" />
<path d="M204.958 185.393
L205.101 185.465
" />
<path d="M205.101 185.465
L205.172 185.536
" />
<path d="M205.172 185.536
L205.244 185.679
" />
<path d="M205.244 185.679
L205.244 186.108
" />
<path d="M205.244 186.108
L205.172 186.250
" />
<path d="M205.172 186.250
L205.101 186.322
" />
<path d="M205.101 186.322
L204.958 186.393
" />
<path d="M204.958 186.393
L204.672 186.393
" />
<path d="M204.672 186.393
L204.529 186.322
" />
<path d="M206.529 186.322
L206.387 186.393
" />
<path d="M206.387 186.393
L206.101 186.393
" />
<path d="M206.101 186.393
L205.958 186.322
" />
<path d="M205.958 186.322
L205.887 186.250
" />
<path d="M205.887 186.250
L205.815 186.108
" />
<path d="M205.815 186.108
L205.815 185.679
" />
<path d="M205.815 185.679
L205.887 185.536
" />
<path d="M205.887 185.536
L205.958 185.465
" />
<path d="M205.958 185.465
L206.101 185.393
" />
<path d="M206.101 185.393
L206.387 185.393
" />
<path d="M206.387 185.393
L206.529 185.465
" />
<path d="M207.172 186.393
L207.172 184.893
" />
<path d="M207.172 185.465
L207.315 185.393
" />
<path d="M207.315 185.393
L207.601 185.393
" />
<path d="M207.601 185.393
L207.744 185.465
" />
<path d="M207.744 185.465
L207.815 185.536
" />
<path d="M207.815 185.536
L207.887 185.679
" />
<path d="M207.887 185.679
L207.887 186.108
" />
<path d="M207.887 186.108
L207.815 186.250
" />
<path d="M207.815 186.250
L207.744 186.322
" />
<path d="M207.744 186.322
L207.601 186.393
" />
<path d="M207.601 186.393
L207.315 186.393
" />
<path d="M207.315 186.393
L207.172 186.322
" />
</g></g>
<g style="fill:none; 
stroke:#000000; stroke-width:0.150; stroke-opacity:1; 
stroke-linecap:round; stroke-linejoin:round;">
<path d="M177.002 181.507
L285.002 181.507
" />
</g>
<g style="fill:none; 
stroke:#000000; stroke-width:0.150; stroke-opacity:1; 
stroke-linecap:round; stroke-linejoin:round;">
<text x="178.002" y="183.757"
textLength="8.221" font-size="2.000" lengthAdjust="spacingAndGlyphs"
text-anchor="start" opacity="0" stroke-opacity="0">Sheet: </text>
<g class="stroked-text"><desc>Sheet: </desc>
<path d="M178.387 183.622
L178.601 183.693
" />
<path d="M178.601 183.693
L178.958 183.693
" />
<path d="M178.958 183.693
L179.101 183.622
" />
<path d="M179.101 183.622
L179.172 183.550
" />
<path d="M179.172 183.550
L179.244 183.408
" />
<path d="M179.244 183.408
L179.244 183.265
" />
<path d="M179.244 183.265
L179.172 183.122
" />
<path d="M179.172 183.122
L179.101 183.050
" />
<path d="M179.101 183.050
L178.958 182.979
" />
<path d="M178.958 182.979
L178.672 182.908
" />
<path d="M178.672 182.908
L178.529 182.836
" />
<path d="M178.529 182.836
L178.458 182.765
" />
<path d="M178.458 182.765
L178.387 182.622
" />
<path d="M178.387 182.622
L178.387 182.479
" />
<path d="M178.387 182.479
L178.458 182.336
" />
<path d="M178.458 182.336
L178.529 182.265
" />
<path d="M178.529 182.265
L178.672 182.193
" />
<path d="M178.672 182.193
L179.029 182.193
" />
<path d="M179.029 182.193
L179.244 182.265
" />
<path d="M179.887 183.693
L179.887 182.193
" />
<path d="M180.529 183.693
L180.529 182.908
" />
<path d="M180.529 182.908
L180.458 182.765
" />
<path d="M180.458 182.765
L180.315 182.693
" />
<path d="M180.315 182.693
L180.101 182.693
" />
<path d="M180.101 182.693
L179.958 182.765
" />
<path d="M179.958 182.765
L179.887 182.836
" />
<path d="M181.815 183.622
L181.672 183.693
" />
<path d="M181.672 183.693
L181.387 183.693
" />
<path d="M181.387 183.693
L181.244 183.622
" />
<path d="M181.244 183.622
L181.172 183.479
" />
<path d="M181.172 183.479
L181.172 182.908
" />
<path d="M181.172 182.908
L181.244 182.765
" />
<path d="M181.244 182.765
L181.387 182.693
" />
<path d="M181.387 182.693
L181.672 182.693
" />
<path d="M181.672 182.693
L181.815 182.765
" />
<path d="M181.815 182.765
L181.887 182.908
" />
<path d="M181.887 182.908
L181.887 183.050
" />
<path d="M181.887 183.050
L181.172 183.193
" />
<path d="M183.101 183.622
L182.958 183.693
" />
<path d="M182.958 183.693
L182.672 183.693
" />
<path d="M182.672 183.693
L182.529 183.622
" />
<path d="M182.529 183.622
L182.458 183.479
" />
<path d="M182.458 183.479
L182.458 182.908
" />
<path d="M182.458 182.908
L182.529 182.765
" />
<path d="M182.529 182.765
L182.672 182.693
" />
<path d="M182.672 182.693
L182.958 182.693
" />
<path d="M182.958 182.693
L183.101 182.765
" />
<path d="M183.101 182.765
L183.172 182.908
" />
<path d="M183.172 182.908
L183.172 183.050
" />
<path d="M183.172 183.050
L182.458 183.193
" />
<path d="M183.601 182.693
L184.172 182.693
" />
<path d="M183.815 182.193
L183.815 183.479
" />
<path d="M183.815 183.479
L183.887 183.622
" />
<path d="M183.887 183.622
L184.029 183.693
" />
<path d="M184.029 183.693
L184.172 183.693
" />
<path d="M184.672 183.550
L184.744 183.622
" />
<path d="M184.744 183.622
L184.672 183.693
" />
<path d="M184.672 183.693
L184.601 183.622
" />
<path d="M184.601 183.622
L184.672 183.550
" />
<path d="M184.672 183.550
L184.672 183.693
" />
<path d="M184.672 182.765
L184.744 182.836
" />
<path d="M184.744 182.836
L184.672 182.908
" />
<path d="M184.672 182.908
L184.601 182.836
" />
<path d="M184.601 182.836
L184.672 182.765
" />
<path d="M184.672 182.765
L184.672 182.908
" />
</g></g>
<g style="fill:none; 
stroke:#000000; stroke-width:0.300; stroke-opacity:1; 
stroke-linecap:round; stroke-linejoin:round;">
<text x="178.002" y="180.757"
textLength="24.171" font-size="2.000" lengthAdjust="spacingAndGlyphs"
text-anchor="start" opacity="0" stroke-opacity="0">Waterloo Hacker Fab</text>
<g class="stroked-text"><desc>Waterloo Hacker Fab</desc>
<path d="M178.414 179.186
L178.771 180.686
" />
<path d="M178.771 180.686
L179.057 179.614
" />
<path d="M179.057 179.614
L179.342 180.686
" />
<path d="M179.342 180.686
L179.700 179.186
" />
<path d="M180.914 180.686
L180.914 179.900
" />
<path d="M180.914 179.900
L180.842 179.757
" />
<path d="M180.842 179.757
L180.700 179.686
" />
<path d="M180.700 179.686
L180.414 179.686
" />
<path d="M180.414 179.686
L180.271 179.757
" />
<path d="M180.914 180.614
L180.771 180.686
" />
<path d="M180.771 180.686
L180.414 180.686
" />
<path d="M180.414 180.686
L180.271 180.614
" />
<path d="M180.271 180.614
L180.200 180.471
" />
<path d="M180.200 180.471
L180.200 180.328
" />
<path d="M180.200 180.328
L180.271 180.186
" />
<path d="M180.271 180.186
L180.414 180.114
" />
<path d="M180.414 180.114
L180.771 180.114
" />
<path d="M180.771 180.114
L180.914 180.043
" />
<path d="M181.414 179.686
L181.985 179.686
" />
<path d="M181.628 179.186
L181.628 180.471
" />
<path d="M181.628 180.471
L181.700 180.614
" />
<path d="M181.700 180.614
L181.842 180.686
" />
<path d="M181.842 180.686
L181.985 180.686
" />
<path d="M183.057 180.614
L182.914 180.686
" />
<path d="M182.914 180.686
L182.628 180.686
" />
<path d="M182.628 180.686
L182.485 180.614
" />
<path d="M182.485 180.614
L182.414 180.471
" />
<path d="M182.414 180.471
L182.414 179.900
" />
<path d="M182.414 179.900
L182.485 179.757
" />
<path d="M182.485 179.757
L182.628 179.686
" />
<path d="M182.628 179.686
L182.914 179.686
" />
<path d="M182.914 179.686
L183.057 179.757
" />
<path d="M183.057 179.757
L183.128 179.900
" />
<path d="M183.128 179.900
L183.128 180.043
" />
<path d="M183.128 180.043
L182.414 180.186
" />
<path d="M183.771 180.686
L183.771 179.686
" />
<path d="M183.771 179.971
L183.842 179.828
" />
<path d="M183.842 179.828
L183.914 179.757
" />
<path d="M183.914 179.757
L184.057 179.686
" />
<path d="M184.057 179.686
L184.200 179.686
" />
<path d="M184.914 180.686
L184.771 180.614
" />
<path d="M184.771 180.614
L184.700 180.471
" />
<path d="M184.700 180.471
L184.700 179.186
" />
<path d="M185.700 180.686
L185.557 180.614
" />
<path d="M185.557 180.614
L185.485 180.543
" />
<path d="M185.485 180.543
L185.414 180.400
" />
<path d="M185.414 180.400
L185.414 179.971
" />
<path d="M185.414 179.971
L185.485 179.828
" />
<path d="M185.485 179.828
L185.557 179.757
" />
<path d="M185.557 179.757
L185.700 179.686
" />
<path d="M185.700 179.686
L185.914 179.686
" />
<path d="M185.914 179.686
L186.057 179.757
" />
<path d="M186.057 179.757
L186.128 179.828
" />
<path d="M186.128 179.828
L186.200 179.971
" />
<path d="M186.200 179.971
L186.200 180.400
" />
<path d="M186.200 180.400
L186.128 180.543
" />
<path d="M186.128 180.543
L186.057 180.614
" />
<path d="M186.057 180.614
L185.914 180.686
" />
<path d="M185.914 180.686
L185.700 180.686
" />
<path d="M187.057 180.686
L186.914 180.614
" />
<path d="M186.914 180.614
L186.842 180.543
" />
<path d="M186.842 180.543
L186.771 180.400
" />
<path d="M186.771 180.400
L186.771 179.971
" />
<path d="M186.771 179.971
L186.842 179.828
" />
<path d="M186.842 179.828
L186.914 179.757
" />
<path d="M186.914 179.757
L187.057 179.686
" />
<path d="M187.057 179.686
L187.271 179.686
" />
<path d="M187.271 179.686
L187.414 179.757
" />
<path d="M187.414 179.757
L187.485 179.828
" />
<path d="M187.485 179.828
L187.557 179.971
" />
<path d="M187.557 179.971
L187.557 180.400
" />
<path d="M187.557 180.400
L187.485 180.543
" />
<path d="M187.485 180.543
L187.414 180.614
" />
<path d="M187.414 180.614
L187.271 180.686
" />
<path d="M187.271 180.686
L187.057 180.686
" />
<path d="M189.342 180.686
L189.342 179.186
" />
<path d="M189.342 179.900
L190.200 179.900
" />
<path d="M190.200 180.686
L190.200 179.186
" />
<path d="M191.557 180.686
L191.557 179.900
" />
<path d="M191.557 179.900
L191.485 179.757
" />
<path d="M191.485 179.757
L191.342 179.686
" />
<path d="M191.342 179.686
L191.057 179.686
" />
<path d="M191.057 179.686
L190.914 179.757
" />
<path d="M191.557 180.614
L191.414 180.686
" />
<path d="M191.414 180.686
L191.057 180.686
" />
<path d="M191.057 180.686
L190.914 180.614
" />
<path d="M190.914 180.614
L190.842 180.471
" />
<path d="M190.842 180.471
L190.842 180.328
" />
<path d="M190.842 180.328
L190.914 180.186
" />
<path d="M190.914 180.186
L191.057 180.114
" />
<path d="M191.057 180.114
L191.414 180.114
" />
<path d="M191.414 180.114
L191.557 180.043
" />
<path d="M192.914 180.614
L192.771 180.686
" />
<path d="M192.771 180.686
L192.485 180.686
" />
<path d="M192.485 180.686
L192.342 180.614
" />
<path d="M192.342 180.614
L192.271 180.543
" />
<path d="M192.271 180.543
L192.200 180.400
" />
<path d="M192.200 180.400
L192.200 179.971
" />
<path d="M192.200 179.971
L192.271 179.828
" />
<path d="M192.271 179.828
L192.342 179.757
" />
<path d="M192.342 179.757
L192.485 179.686
" />
<path d="M192.485 179.686
L192.771 179.686
" />
<path d="M192.771 179.686
L192.914 179.757
" />
<path d="M193.557 180.686
L193.557 179.186
" />
<path d="M193.700 180.114
L194.128 180.686
" />
<path d="M194.128 179.686
L193.557 180.257
" />
<path d="M195.342 180.614
L195.200 180.686
" />
<path d="M195.200 180.686
L194.914 180.686
" />
<path d="M194.914 180.686
L194.771 180.614
" />
<path d="M194.771 180.614
L194.700 180.471
" />
<path d="M194.700 180.471
L194.700 179.900
" />
<path d="M194.700 179.900
L194.771 179.757
" />
<path d="M194.771 179.757
L194.914 179.686
" />
<path d="M194.914 179.686
L195.200 179.686
" />
<path d="M195.200 179.686
L195.342 179.757
" />
<path d="M195.342 179.757
L195.414 179.900
" />
<path d="M195.414 179.900
L195.414 180.043
" />
<path d="M195.414 180.043
L194.700 180.186
" />
<path d="M196.057 180.686
L196.057 179.686
" />
<path d="M196.057 179.971
L196.128 179.828
" />
<path d="M196.128 179.828
L196.200 179.757
" />
<path d="M196.200 179.757
L196.342 179.686
" />
<path d="M196.342 179.686
L196.485 179.686
" />
<path d="M198.628 179.900
L198.128 179.900
" />
<path d="M198.128 180.686
L198.128 179.186
" />
<path d="M198.128 179.186
L198.842 179.186
" />
<path d="M200.057 180.686
L200.057 179.900
" />
<path d="M200.057 179.900
L199.985 179.757
" />
<path d="M199.985 179.757
L199.842 179.686
" />
<path d="M199.842 179.686
L199.557 179.686
" />
<path d="M199.557 179.686
L199.414 179.757
" />
<path d="M200.057 180.614
L199.914 180.686
" />
<path d="M199.914 180.686
L199.557 180.686
" />
<path d="M199.557 180.686
L199.414 180.614
" />
<path d="M199.414 180.614
L199.342 180.471
" />
<path d="M199.342 180.471
L199.342 180.328
" />
<path d="M199.342 180.328
L199.414 180.186
" />
<path d="M199.414 180.186
L199.557 180.114
" />
<path d="M199.557 180.114
L199.914 180.114
" />
<path d="M199.914 180.114
L200.057 180.043
" />
<path d="M200.771 180.686
L200.771 179.186
" />
<path d="M200.771 179.757
L200.914 179.686
" />
<path d="M200.914 179.686
L201.200 179.686
" />
<path d="M201.200 179.686
L201.342 179.757
" />
<path d="M201.342 179.757
L201.414 179.828
" />
<path d="M201.414 179.828
L201.485 179.971
" />
<path d="M201.485 179.971
L201.485 180.400
" />
<path d="M201.485 180.400
L201.414 180.543
" />
<path d="M201.414 180.543
L201.342 180.614
" />
<path d="M201.342 180.614
L201.200 180.686
" />
<path d="M201.200 180.686
L200.914 180.686
" />
<path d="M200.914 180.686
L200.771 180.614
" />
</g></g>
<g style="fill:none; 
stroke:#000000; stroke-width:0.150; stroke-opacity:1; 
stroke-linecap:round; stroke-linejoin:round;">
<text x="178.002" y="177.757"
textLength="0.450" font-size="2.000" lengthAdjust="spacingAndGlyphs"
text-anchor="start" opacity="0" stroke-opacity="0"></text>
<g class="stroked-text"><desc></desc>
</g></g>
<g style="fill:none; 
stroke:#000000; stroke-width:0.150; stroke-opacity:1; 
stroke-linecap:round; stroke-linejoin:round;">
<text x="178.002" y="174.757"
textLength="0.450" font-size="2.000" lengthAdjust="spacingAndGlyphs"
text-anchor="start" opacity="0" stroke-opacity="0"></text>
<g class="stroked-text"><desc></desc>
</g></g>
<g style="fill:none; 
stroke:#000000; stroke-width:0.150; stroke-opacity:1; 
stroke-linecap:round; stroke-linejoin:round;">
<text x="178.002" y="171.757"
textLength="0.450" font-size="2.000" lengthAdjust="spacingAndGlyphs"
text-anchor="start" opacity="0" stroke-opacity="0"></text>
<g class="stroked-text"><desc></desc>
</g></g>
<g style="fill:none; 
stroke:#000000; stroke-width:0.150; stroke-opacity:1; 
stroke-linecap:round; stroke-linejoin:round;">
<text x="178.002" y="168.757"
textLength="0.450" font-size="2.000" lengthAdjust="spacingAndGlyphs"
text-anchor="start" opacity="0" stroke-opacity="0"></text>
<g class="stroked-text"><desc></desc>
</g></g>
<g style="fill:none; 
stroke:#000000; stroke-width:0.150; stroke-opacity:1; 
stroke-linecap:round; stroke-linejoin:round;">
<path d="M197.002 191.507
L197.002 194.507
" />
</g>
<g style="fill:none; 
stroke:#000000; stroke-width:0.150; stroke-opacity:1; 
stroke-linecap:round; stroke-linejoin:round;">
<path d="M261.002 191.507
L261.002 198.007
" />
<path style="fill:none; 
stroke:#000000; stroke-width:0.050; stroke-opacity:1; 
stroke-linecap:round; stroke-linejoin:round;fill:none"
d="M 84.000,58.500
190.000,58.500
190.000,123.000
84.000,123.000
Z" /> 
</g>
<g style="fill:#000000; fill-opacity:1.000; stroke:none;">
<circle cx="120.420" cy="63.500" r="0.175" /> 
</g>
<g style="fill:#000000; fill-opacity:1.000; stroke:none;">
<circle cx="125.500" cy="63.500" r="0.175" /> 
</g>
<g style="fill:#000000; fill-opacity:1.000; stroke:none;">
<circle cx="138.100" cy="81.500" r="0.175" /> 
</g>
<g style="fill:#000000; fill-opacity:1.000; stroke:none;">
<circle cx="143.100" cy="81.500" r="0.175" /> 
</g>
<g style="fill:#000000; fill-opacity:1.000; stroke:none;">
<circle cx="148.100" cy="81.500" r="0.175" /> 
</g>
<g style="fill:#000000; fill-opacity:1.000; stroke:none;">
<circle cx="135.700" cy="71.000" r="0.175" /> 
</g>
<g style="fill:#000000; fill-opacity:1.000; stroke:none;">
<circle cx="150.500" cy="71.000" r="0.175" /> 
</g>
<g style="fill:#000000; fill-opacity:1.000; stroke:none;">
<circle cx="140.600" cy="64.000" r="0.175" /> 
</g>
<g style="fill:#000000; fill-opacity:1.000; stroke:none;">
<circle cx="145.600" cy="64.000" r="0.175" /> 
</g>
<g style="fill:#000000; fill-opacity:1.000; stroke:none;">
<circle cx="93.000" cy="86.300" r="0.175" /> 
</g>
<g style="fill:#000000; fill-opacity:1.000; stroke:none;">
<circle cx="93.000" cy="119.400" r="0.175" /> 
</g>
<g style="fill:#000000; fill-opacity:1.000; stroke:none;">
<circle cx="158.000" cy="86.300" r="0.175" /> 
</g>
<g style="fill:#000000; fill-opacity:1.000; stroke:none;">
<circle cx="158.000" cy="119.400" r="0.175" /> 
</g>
<g style="fill:#000000; fill-opacity:1.000; stroke:none;">
<circle cx="132.500" cy="115.500" r="0.175" /> 
</g>
<g style="fill:#000000; fill-opacity:1.000; stroke:none;">
<circle cx="130.500" cy="115.500" r="0.175" /> 
</g>
<g style="fill:#000000; fill-opacity:1.000; stroke:none;">
<circle cx="128.500" cy="115.500" r="0.175" /> 
</g>
<g style="fill:#000000; fill-opacity:1.000; stroke:none;">
<circle cx="126.500" cy="115.500" r="0.175" /> 
</g>
<g style="fill:#000000; fill-opacity:1.000; stroke:none;">
<circle cx="124.500" cy="115.500" r="0.175" /> 
</g>
<g style="fill:#000000; fill-opacity:1.000; stroke:none;">
<circle cx="122.500" cy="115.500" r="0.175" /> 
</g>
<g style="fill:#000000; fill-opacity:1.000; stroke:none;">
<circle cx="120.500" cy="115.500" r="0.175" /> 
</g>
<g style="fill:#000000; fill-opacity:1.000; stroke:none;">
<circle cx="118.500" cy="115.500" r="0.175" /> 
</g>
<g style="fill:none; 
stroke:#000000; stroke-width:1.000; stroke-opacity:1; 
stroke-linecap:round; stroke-linejoin:round;">
<path d="M86.950 103.050
L86.950 104.650
" />
<path d="M86.950 94.550
L86.950 96.150
" />
</g>
<g style="fill:#000000; fill-opacity:1.000; stroke:none;">
<circle cx="165.140" cy="59.920" r="0.175" /> 
</g>
<g style="fill:#000000; fill-opacity:1.000; stroke:none;">
<circle cx="165.140" cy="62.460" r="0.175" /> 
</g>
<g style="fill:#000000; fill-opacity:1.000; stroke:none;">
<circle cx="165.140" cy="65.000" r="0.175" /> 
</g>
<g style="fill:#000000; fill-opacity:1.000; stroke:none;">
<circle cx="165.140" cy="67.540" r="0.175" /> 
</g>
<g style="fill:#000000; fill-opacity:1.000; stroke:none;">
<circle cx="165.140" cy="70.080" r="0.175" /> 
</g>
<g style="fill:#000000; fill-opacity:1.000; stroke:none;">
<circle cx="165.140" cy="72.620" r="0.175" /> 
</g>
<g style="fill:#000000; fill-opacity:1.000; stroke:none;">
<circle cx="165.140" cy="75.160" r="0.175" /> 
</g>
<g style="fill:#000000; fill-opacity:1.000; stroke:none;">
<circle cx="165.140" cy="77.700" r="0.175" /> 
</g>
<g style="fill:#000000; fill-opacity:1.000; stroke:none;">
<circle cx="165.140" cy="80.240" r="0.175" /> 
</g>
<g style="fill:#000000; fill-opacity:1.000; stroke:none;">
<circle cx="165.140" cy="82.780" r="0.175" /> 
</g>
<g style="fill:#000000; fill-opacity:1.000; stroke:none;">
<circle cx="165.140" cy="85.320" r="0.175" /> 
</g>
<g style="fill:#000000; fill-opacity:1.000; stroke:none;">
<circle cx="165.140" cy="87.860" r="0.175" /> 
</g>
<g style="fill:#000000; fill-opacity:1.000; stroke:none;">
<circle cx="165.140" cy="90.400" r="0.175" /> 
</g>
<g style="fill:#000000; fill-opacity:1.000; stroke:none;">
<circle cx="165.140" cy="92.940" r="0.175" /> 
</g>
<g style="fill:#000000; fill-opacity:1.000; stroke:none;">
<circle cx="165.140" cy="95.480" r="0.175" /> 
</g>
<g style="fill:#000000; fill-opacity:1.000; stroke:none;">
<circle cx="165.140" cy="98.020" r="0.175" /> 
</g>
<g style="fill:#000000; fill-opacity:1.000; stroke:none;">
<circle cx="165.140" cy="100.560" r="0.175" /> 
</g>
<g style="fill:#000000; fill-opacity:1.000; stroke:none;">
<circle cx="165.140" cy="103.100" r="0.175" /> 
</g>
<g style="fill:#000000; fill-opacity:1.000; stroke:none;">
<circle cx="165.140" cy="105.640" r="0.175" /> 
</g>
<g style="fill:#000000; fill-opacity:1.000; stroke:none;">
<circle cx="165.136" cy="108.177" r="0.175" /> 
</g>
<g style="fill:#000000; fill-opacity:1.000; stroke:none;">
<circle cx="165.136" cy="110.717" r="0.175" /> 
</g>
<g style="fill:#000000; fill-opacity:1.000; stroke:none;">
<circle cx="165.136" cy="113.257" r="0.175" /> 
</g>
<g style="fill:#000000; fill-opacity:1.000; stroke:none;">
<circle cx="188.000" cy="113.260" r="0.175" /> 
</g>
<g style="fill:#000000; fill-opacity:1.000; stroke:none;">
<circle cx="188.000" cy="110.720" r="0.175" /> 
</g>
<g style="fill:#000000; fill-opacity:1.000; stroke:none;">
<circle cx="188.000" cy="108.180" r="0.175" /> 
</g>
<g style="fill:#000000; fill-opacity:1.000; stroke:none;">
<circle cx="188.000" cy="105.640" r="0.175" /> 
</g>
<g style="fill:#000000; fill-opacity:1.000; stroke:none;">
<circle cx="188.000" cy="103.100" r="0.175" /> 
</g>
<g style="fill:#000000; fill-opacity:1.000; stroke:none;">
<circle cx="188.000" cy="100.560" r="0.175" /> 
</g>
<g style="fill:#000000; fill-opacity:1.000; stroke:none;">
<circle cx="188.000" cy="98.020" r="0.175" /> 
</g>
<g style="fill:#000000; fill-opacity:1.000; stroke:none;">
<circle cx="188.000" cy="95.480" r="0.175" /> 
</g>
<g style="fill:#000000; fill-opacity:1.000; stroke:none;">
<circle cx="188.000" cy="92.940" r="0.175" /> 
</g>
<g style="fill:#000000; fill-opacity:1.000; stroke:none;">
<circle cx="188.000" cy="90.400" r="0.175" /> 
</g>
<g style="fill:#000000; fill-opacity:1.000; stroke:none;">
<circle cx="188.000" cy="87.860" r="0.175" /> 
</g>
<g style="fill:#000000; fill-opacity:1.000; stroke:none;">
<circle cx="188.000" cy="85.320" r="0.175" /> 
</g>
<g style="fill:#000000; fill-opacity:1.000; stroke:none;">
<circle cx="188.000" cy="82.780" r="0.175" /> 
</g>
<g style="fill:#000000; fill-opacity:1.000; stroke:none;">
<circle cx="188.000" cy="80.240" r="0.175" /> 
</g>
<g style="fill:#000000; fill-opacity:1.000; stroke:none;">
<circle cx="188.000" cy="77.700" r="0.175" /> 
</g>
<g style="fill:#000000; fill-opacity:1.000; stroke:none;">
<circle cx="188.000" cy="75.160" r="0.175" /> 
</g>
<g style="fill:#000000; fill-opacity:1.000; stroke:none;">
<circle cx="188.000" cy="72.620" r="0.175" /> 
</g>
<g style="fill:#000000; fill-opacity:1.000; stroke:none;">
<circle cx="188.000" cy="70.080" r="0.175" /> 
</g>
<g style="fill:#000000; fill-opacity:1.000; stroke:none;">
<circle cx="188.000" cy="67.540" r="0.175" /> 
</g>
<g style="fill:#000000; fill-opacity:1.000; stroke:none;">
<circle cx="188.000" cy="65.000" r="0.175" /> 
</g>
<g style="fill:#000000; fill-opacity:1.000; stroke:none;">
<circle cx="188.000" cy="62.460" r="0.175" /> 
</g>
<g style="fill:#000000; fill-opacity:1.000; stroke:none;">
<circle cx="188.000" cy="59.920" r="0.175" /> 
</g>
<g style="fill:#000000; fill-opacity:1.000; stroke:none;">
<circle cx="107.610" cy="78.668" r="0.175" /> 
</g>
<g style="fill:#000000; fill-opacity:1.000; stroke:none;">
<circle cx="105.070" cy="78.668" r="0.175" /> 
</g>
<g style="fill:#000000; fill-opacity:1.000; stroke:none;">
<circle cx="102.530" cy="78.668" r="0.175" /> 
</g>
<g style="fill:#000000; fill-opacity:1.000; stroke:none;">
<circle cx="99.990" cy="78.668" r="0.175" /> 
</g>
<g style="fill:#000000; fill-opacity:1.000; stroke:none;">
<circle cx="97.450" cy="78.668" r="0.175" /> 
</g>
<g style="fill:#000000; fill-opacity:1.000; stroke:none;">
<circle cx="94.910" cy="78.668" r="0.175" /> 
</g>
<g style="fill:#000000; fill-opacity:1.000; stroke:none;">
<circle cx="92.370" cy="78.668" r="0.175" /> 
</g>
<g style="fill:#000000; fill-opacity:1.000; stroke:none;">
<circle cx="89.830" cy="78.668" r="0.175" /> 
</g>
<g style="fill:#000000; fill-opacity:1.000; stroke:none;">
<circle cx="87.290" cy="78.668" r="0.175" /> 
</g>
<g style="fill:#000000; fill-opacity:1.000; stroke:none;">
<circle cx="87.925" cy="62.031" r="0.175" /> 
</g>
<g style="fill:#000000; fill-opacity:1.000; stroke:none;">
<circle cx="106.975" cy="62.031" r="0.175" /> 
<path style="fill:#000000; fill-opacity:1.000; stroke:none;fill-rule:evenodd;"
d="M 119.400,76.050
119.419,75.954
119.473,75.873
119.554,75.819
119.650,75.800
120.300,75.800
120.396,75.819
120.477,75.873
120.531,75.954
120.550,76.050
120.550,76.950
120.531,77.046
120.477,77.127
120.396,77.181
120.300,77.200
119.650,77.200
119.554,77.181
119.473,77.127
119.419,77.046
119.400,76.950
Z" /> 
<path style="fill:#000000; fill-opacity:1.000; stroke:none;fill-rule:evenodd;"
d="M 121.450,76.050
121.469,75.954
121.523,75.873
121.604,75.819
121.700,75.800
122.350,75.800
122.446,75.819
122.527,75.873
122.581,75.954
122.600,76.050
122.600,76.950
122.581,77.046
122.527,77.127
122.446,77.181
122.350,77.200
121.700,77.200
121.604,77.181
121.523,77.127
121.469,77.046
121.450,76.950
Z" /> 
<path style="fill:#000000; fill-opacity:1.000; stroke:none;fill-rule:evenodd;"
d="M 119.493,62.675
119.501,62.636
119.523,62.603
119.556,62.581
119.595,62.573
121.245,62.573
121.284,62.581
121.317,62.603
121.339,62.636
121.347,62.675
121.347,64.325
121.339,64.364
121.317,64.397
121.284,64.419
121.245,64.427
119.595,64.427
119.556,64.419
119.523,64.397
119.501,64.364
119.493,64.325
Z" /> 
</g>
<g style="fill:#000000; fill-opacity:1.000; stroke:none;">
<circle cx="125.500" cy="63.500" r="0.927" /> 
<path style="fill:#000000; fill-opacity:1.000; stroke:none;fill-rule:evenodd;"
d="M 125.000,119.475
124.981,119.571
124.927,119.652
124.846,119.706
124.750,119.725
124.250,119.725
124.154,119.706
124.073,119.652
124.019,119.571
124.000,119.475
124.000,118.525
124.019,118.429
124.073,118.348
124.154,118.294
124.250,118.275
124.750,118.275
124.846,118.294
124.927,118.348
124.981,118.429
125.000,118.525
Z" /> 
<path style="fill:#000000; fill-opacity:1.000; stroke:none;fill-rule:evenodd;"
d="M 123.100,119.475
123.081,119.571
123.027,119.652
122.946,119.706
122.850,119.725
122.350,119.725
122.254,119.706
122.173,119.652
122.119,119.571
122.100,119.475
122.100,118.525
122.119,118.429
122.173,118.348
122.254,118.294
122.350,118.275
122.850,118.275
122.946,118.294
123.027,118.348
123.081,118.429
123.100,118.525
Z" /> 
<path style="fill:#000000; fill-opacity:1.000; stroke:none;fill-rule:evenodd;"
d="M 127.100,76.910
127.081,77.006
127.027,77.087
126.946,77.141
126.850,77.160
126.150,77.160
126.054,77.141
125.973,77.087
125.919,77.006
125.900,76.910
125.900,76.010
125.919,75.914
125.973,75.833
126.054,75.779
126.150,75.760
126.850,75.760
126.946,75.779
127.027,75.833
127.081,75.914
127.100,76.010
Z" /> 
<path style="fill:#000000; fill-opacity:1.000; stroke:none;fill-rule:evenodd;"
d="M 125.100,76.910
125.081,77.006
125.027,77.087
124.946,77.141
124.850,77.160
124.150,77.160
124.054,77.141
123.973,77.087
123.919,77.006
123.900,76.910
123.900,76.010
123.919,75.914
123.973,75.833
124.054,75.779
124.150,75.760
124.850,75.760
124.946,75.779
125.027,75.833
125.081,75.914
125.100,76.010
Z" /> 
<path style="fill:#000000; fill-opacity:1.000; stroke:none;fill-rule:evenodd;"
d="M 121.000,119.475
120.981,119.571
120.927,119.652
120.846,119.706
120.750,119.725
120.250,119.725
120.154,119.706
120.073,119.652
120.019,119.571
120.000,119.475
120.000,118.525
120.019,118.429
120.073,118.348
120.154,118.294
120.250,118.275
120.750,118.275
120.846,118.294
120.927,118.348
120.981,118.429
121.000,118.525
Z" /> 
<path style="fill:#000000; fill-opacity:1.000; stroke:none;fill-rule:evenodd;"
d="M 119.100,119.475
119.081,119.571
119.027,119.652
118.946,119.706
118.850,119.725
118.350,119.725
118.254,119.706
118.173,119.652
118.119,119.571
118.100,119.475
118.100,118.525
118.119,118.429
118.173,118.348
118.254,118.294
118.350,118.275
118.850,118.275
118.946,118.294
119.027,118.348
119.081,118.429
119.100,118.525
Z" /> 
<path style="fill:#000000; fill-opacity:1.000; stroke:none;fill-rule:evenodd;"
d="M 127.100,79.450
127.081,79.546
127.027,79.627
126.946,79.681
126.850,79.700
126.150,79.700
126.054,79.681
125.973,79.627
125.919,79.546
125.900,79.450
125.900,78.550
125.919,78.454
125.973,78.373
126.054,78.319
126.150,78.300
126.850,78.300
126.946,78.319
127.027,78.373
127.081,78.454
127.100,78.550
Z" /> 
<path style="fill:#000000; fill-opacity:1.000; stroke:none;fill-rule:evenodd;"
d="M 125.100,79.450
125.081,79.546
125.027,79.627
124.946,79.681
124.850,79.700
124.150,79.700
124.054,79.681
123.973,79.627
123.919,79.546
123.900,79.450
123.900,78.550
123.919,78.454
123.973,78.373
124.054,78.319
124.150,78.300
124.850,78.300
124.946,78.319
125.027,78.373
125.081,78.454
125.100,78.550
Z" /> 
</g>
<g style="fill:#000000; fill-opacity:1.000; stroke:none;">
<circle cx="138.100" cy="81.500" r="0.975" /> 
</g>
<g style="fill:#000000; fill-opacity:1.000; stroke:none;">
<circle cx="143.100" cy="81.500" r="0.975" /> 
</g>
<g style="fill:#000000; fill-opacity:1.000; stroke:none;">
<circle cx="148.100" cy="81.500" r="0.975" /> 
</g>
<g style="fill:#000000; fill-opacity:1.000; stroke:none;">
<circle cx="135.700" cy="71.000" r="2.230" /> 
</g>
<g style="fill:#000000; fill-opacity:1.000; stroke:none;">
<circle cx="150.500" cy="71.000" r="2.230" /> 
</g>
<g style="fill:#000000; fill-opacity:1.000; stroke:none;">
<circle cx="140.600" cy="64.000" r="0.975" /> 
</g>
<g style="fill:#000000; fill-opacity:1.000; stroke:none;">
<circle cx="145.600" cy="64.000" r="0.975" /> 
<path style="fill:#000000; fill-opacity:1.000; stroke:none;fill-rule:evenodd;"
d="M 119.400,78.630
119.419,78.534
119.473,78.453
119.554,78.399
119.650,78.380
120.300,78.380
120.396,78.399
120.477,78.453
120.531,78.534
120.550,78.630
120.550,79.530
120.531,79.626
120.477,79.707
120.396,79.761
120.300,79.780
119.650,79.780
119.554,79.761
119.473,79.707
119.419,79.626
119.400,79.530
Z" /> 
<path style="fill:#000000; fill-opacity:1.000; stroke:none;fill-rule:evenodd;"
d="M 121.450,78.630
121.469,78.534
121.523,78.453
121.604,78.399
121.700,78.380
122.350,78.380
122.446,78.399
122.527,78.453
122.581,78.534
122.600,78.630
122.600,79.530
122.581,79.626
122.527,79.707
122.446,79.761
122.350,79.780
121.700,79.780
121.604,79.761
121.523,79.707
121.469,79.626
121.450,79.530
Z" /> 
<path style="fill:#000000; fill-opacity:1.000; stroke:none;fill-rule:evenodd;"
d="M 157.900,66.000
157.919,65.904
157.973,65.823
158.054,65.769
158.150,65.750
158.850,65.750
158.946,65.769
159.027,65.823
159.081,65.904
159.100,66.000
159.100,66.900
159.081,66.996
159.027,67.077
158.946,67.131
158.850,67.150
158.150,67.150
158.054,67.131
157.973,67.077
157.919,66.996
157.900,66.900
Z" /> 
<path style="fill:#000000; fill-opacity:1.000; stroke:none;fill-rule:evenodd;"
d="M 159.900,66.000
159.919,65.904
159.973,65.823
160.054,65.769
160.150,65.750
160.850,65.750
160.946,65.769
161.027,65.823
161.081,65.904
161.100,66.000
161.100,66.900
161.081,66.996
161.027,67.077
160.946,67.131
160.850,67.150
160.150,67.150
160.054,67.131
159.973,67.077
159.919,66.996
159.900,66.900
Z" /> 
<path style="fill:#000000; fill-opacity:1.000; stroke:none;fill-rule:evenodd;"
d="M 157.900,63.050
157.919,62.954
157.973,62.873
158.054,62.819
158.150,62.800
158.850,62.800
158.946,62.819
159.027,62.873
159.081,62.954
159.100,63.050
159.100,63.950
159.081,64.046
159.027,64.127
158.946,64.181
158.850,64.200
158.150,64.200
158.054,64.181
157.973,64.127
157.919,64.046
157.900,63.950
Z" /> 
<path style="fill:#000000; fill-opacity:1.000; stroke:none;fill-rule:evenodd;"
d="M 159.900,63.050
159.919,62.954
159.973,62.873
160.054,62.819
160.150,62.800
160.850,62.800
160.946,62.819
161.027,62.873
161.081,62.954
161.100,63.050
161.100,63.950
161.081,64.046
161.027,64.127
160.946,64.181
160.850,64.200
160.150,64.200
160.054,64.181
159.973,64.127
159.919,64.046
159.900,63.950
Z" /> 
<path style="fill:#000000; fill-opacity:1.000; stroke:none;fill-rule:evenodd;"
d="M 119.400,73.550
119.419,73.454
119.473,73.373
119.554,73.319
119.650,73.300
120.300,73.300
120.396,73.319
120.477,73.373
120.531,73.454
120.550,73.550
120.550,74.450
120.531,74.546
120.477,74.627
120.396,74.681
120.300,74.700
119.650,74.700
119.554,74.681
119.473,74.627
119.419,74.546
119.400,74.450
Z" /> 
<path style="fill:#000000; fill-opacity:1.000; stroke:none;fill-rule:evenodd;"
d="M 121.450,73.550
121.469,73.454
121.523,73.373
121.604,73.319
121.700,73.300
122.350,73.300
122.446,73.319
122.527,73.373
122.581,73.454
122.600,73.550
122.600,74.450
122.581,74.546
122.527,74.627
122.446,74.681
122.350,74.700
121.700,74.700
121.604,74.681
121.523,74.627
121.469,74.546
121.450,74.450
Z" /> 
</g>
<g style="fill:#000000; fill-opacity:1.000; stroke:none;">
<circle cx="93.000" cy="86.300" r="1.250" /> 
</g>
<g style="fill:#000000; fill-opacity:1.000; stroke:none;">
<circle cx="93.000" cy="119.400" r="1.250" /> 
</g>
<g style="fill:#000000; fill-opacity:1.000; stroke:none;">
<circle cx="158.000" cy="86.300" r="1.250" /> 
</g>
<g style="fill:#000000; fill-opacity:1.000; stroke:none;">
<circle cx="158.000" cy="119.400" r="1.250" /> 
<path style="fill:#000000; fill-opacity:1.000; stroke:none;fill-rule:evenodd;"
d="M 131.700,116.300
131.700,114.700
133.300,114.700
133.300,116.300
Z" /> 
</g>
<g style="fill:#000000; fill-opacity:1.000; stroke:none;">
<circle cx="130.500" cy="115.500" r="0.800" /> 
</g>
<g style="fill:#000000; fill-opacity:1.000; stroke:none;">
<circle cx="128.500" cy="115.500" r="0.800" /> 
</g>
<g style="fill:#000000; fill-opacity:1.000; stroke:none;">
<circle cx="126.500" cy="115.500" r="0.800" /> 
</g>
<g style="fill:#000000; fill-opacity:1.000; stroke:none;">
<circle cx="124.500" cy="115.500" r="0.800" /> 
</g>
<g style="fill:#000000; fill-opacity:1.000; stroke:none;">
<circle cx="122.500" cy="115.500" r="0.800" /> 
</g>
<g style="fill:#000000; fill-opacity:1.000; stroke:none;">
<circle cx="120.500" cy="115.500" r="0.800" /> 
</g>
<g style="fill:#000000; fill-opacity:1.000; stroke:none;">
<circle cx="118.500" cy="115.500" r="0.800" /> 
</g>
<g style="fill:none; 
stroke:#000000; stroke-width:1.800; stroke-opacity:1; 
stroke-linecap:round; stroke-linejoin:round;">
<path d="M86.950 103.050
L86.950 104.650
" />
<path d="M86.950 94.550
L86.950 96.150
" />
<path style="fill:#000000; fill-opacity:1.000; stroke:none;fill-rule:evenodd;"
d="M 164.140,59.320
166.140,59.320
166.140,60.520
164.140,60.520
Z" /> 
</g>
<g style="fill:none; 
stroke:#000000; stroke-width:1.200; stroke-opacity:1; 
stroke-linecap:round; stroke-linejoin:round;">
<path d="M165.540 62.460
L164.740 62.460
" />
<path d="M165.540 65.000
L164.740 65.000
" />
<path d="M165.540 67.540
L164.740 67.540
" />
<path d="M165.540 70.080
L164.740 70.080
" />
<path d="M165.540 72.620
L164.740 72.620
" />
<path d="M165.540 75.160
L164.740 75.160
" />
<path d="M165.540 77.700
L164.740 77.700
" />
<path d="M165.540 80.240
L164.740 80.240
" />
<path d="M165.540 82.780
L164.740 82.780
" />
<path d="M165.540 85.320
L164.740 85.320
" />
<path d="M165.540 87.860
L164.740 87.860
" />
<path d="M165.540 90.400
L164.740 90.400
" />
<path d="M165.540 92.940
L164.740 92.940
" />
<path d="M165.540 95.480
L164.740 95.480
" />
<path d="M165.540 98.020
L164.740 98.020
" />
<path d="M165.540 100.560
L164.740 100.560
" />
<path d="M165.540 103.100
L164.740 103.100
" />
<path d="M165.540 105.640
L164.740 105.640
" />
<path d="M165.536 108.177
L164.736 108.177
" />
<path d="M165.536 110.717
L164.736 110.717
" />
<path d="M165.536 113.257
L164.736 113.257
" />
<path d="M188.400 113.260
L187.600 113.260
" />
<path d="M188.400 110.720
L187.600 110.720
" />
<path d="M188.400 108.180
L187.600 108.180
" />
<path d="M188.400 105.640
L187.600 105.640
" />
<path d="M188.400 103.100
L187.600 103.100
" />
<path d="M188.400 100.560
L187.600 100.560
" />
<path d="M188.400 98.020
L187.600 98.020
" />
<path d="M188.400 95.480
L187.600 95.480
" />
<path d="M188.400 92.940
L187.600 92.940
" />
<path d="M188.400 90.400
L187.600 90.400
" />
<path d="M188.400 87.860
L187.600 87.860
" />
<path d="M188.400 85.320
L187.600 85.320
" />
<path d="M188.400 82.780
L187.600 82.780
" />
<path d="M188.400 80.240
L187.600 80.240
" />
<path d="M188.400 77.700
L187.600 77.700
" />
<path d="M188.400 75.160
L187.600 75.160
" />
<path d="M188.400 72.620
L187.600 72.620
" />
<path d="M188.400 70.080
L187.600 70.080
" />
<path d="M188.400 67.540
L187.600 67.540
" />
<path d="M188.400 65.000
L187.600 65.000
" />
<path d="M188.400 62.460
L187.600 62.460
" />
<path d="M188.400 59.920
L187.600 59.920
" />
</g>
<g style="fill:#000000; fill-opacity:1.000; stroke:none;">
<circle cx="107.610" cy="78.668" r="0.940" /> 
</g>
<g style="fill:#000000; fill-opacity:1.000; stroke:none;">
<circle cx="105.070" cy="78.668" r="0.940" /> 
</g>
<g style="fill:#000000; fill-opacity:1.000; stroke:none;">
<circle cx="102.530" cy="78.668" r="0.940" /> 
</g>
<g style="fill:#000000; fill-opacity:1.000; stroke:none;">
<circle cx="99.990" cy="78.668" r="0.940" /> 
</g>
<g style="fill:#000000; fill-opacity:1.000; stroke:none;">
<circle cx="97.450" cy="78.668" r="0.940" /> 
</g>
<g style="fill:#000000; fill-opacity:1.000; stroke:none;">
<circle cx="94.910" cy="78.668" r="0.940" /> 
</g>
<g style="fill:#000000; fill-opacity:1.000; stroke:none;">
<circle cx="92.370" cy="78.668" r="0.940" /> 
</g>
<g style="fill:#000000; fill-opacity:1.000; stroke:none;">
<circle cx="89.830" cy="78.668" r="0.940" /> 
</g>
<g style="fill:#000000; fill-opacity:1.000; stroke:none;">
<circle cx="87.290" cy="78.668" r="0.940" /> 
</g>
<g style="fill:#000000; fill-opacity:1.000; stroke:none;">
<circle cx="87.925" cy="62.031" r="1.651" /> 
</g>
<g style="fill:#000000; fill-opacity:1.000; stroke:none;">
<circle cx="106.975" cy="62.031" r="1.651" /> 
<path style="fill:#000000; fill-opacity:1.000; stroke:none;fill-rule:evenodd;"
d="M 127.100,74.450
127.081,74.546
127.027,74.627
126.946,74.681
126.850,74.700
126.150,74.700
126.054,74.681
125.973,74.627
125.919,74.546
125.900,74.450
125.900,73.550
125.919,73.454
125.973,73.373
126.054,73.319
126.150,73.300
126.850,73.300
126.946,73.319
127.027,73.373
127.081,73.454
127.100,73.550
Z" /> 
<path style="fill:#000000; fill-opacity:1.000; stroke:none;fill-rule:evenodd;"
d="M 125.100,74.450
125.081,74.546
125.027,74.627
124.946,74.681
124.850,74.700
124.150,74.700
124.054,74.681
123.973,74.627
123.919,74.546
123.900,74.450
123.900,73.550
123.919,73.454
123.973,73.373
124.054,73.319
124.150,73.300
124.850,73.300
124.946,73.319
125.027,73.373
125.081,73.454
125.100,73.550
Z" /> 
</g> 
</svg>
