%TF.GenerationSoftware,KiCad,Pcbnew,9.0.0*%
%TF.CreationDate,2025-04-12T20:32:53-04:00*%
%TF.ProjectId,phoenix_v1,70686f65-6e69-4785-9f76-312e6b696361,v2*%
%TF.SameCoordinates,Original*%
%TF.FileFunction,Legend,Bot*%
%TF.FilePolarity,Positive*%
%FSLAX46Y46*%
G04 Gerber Fmt 4.6, Leading zero omitted, Abs format (unit mm)*
G04 Created by KiCad (PCBNEW 9.0.0) date 2025-04-12 20:32:53*
%MOMM*%
%LPD*%
G01*
G04 APERTURE LIST*
%ADD10C,0.150000*%
%ADD11C,0.120000*%
G04 APERTURE END LIST*
D10*
X133841792Y-76869819D02*
X134175125Y-76393628D01*
X134413220Y-76869819D02*
X134413220Y-75869819D01*
X134413220Y-75869819D02*
X134032268Y-75869819D01*
X134032268Y-75869819D02*
X133937030Y-75917438D01*
X133937030Y-75917438D02*
X133889411Y-75965057D01*
X133889411Y-75965057D02*
X133841792Y-76060295D01*
X133841792Y-76060295D02*
X133841792Y-76203152D01*
X133841792Y-76203152D02*
X133889411Y-76298390D01*
X133889411Y-76298390D02*
X133937030Y-76346009D01*
X133937030Y-76346009D02*
X134032268Y-76393628D01*
X134032268Y-76393628D02*
X134413220Y-76393628D01*
X132889411Y-76869819D02*
X133460839Y-76869819D01*
X133175125Y-76869819D02*
X133175125Y-75869819D01*
X133175125Y-75869819D02*
X133270363Y-76012676D01*
X133270363Y-76012676D02*
X133365601Y-76107914D01*
X133365601Y-76107914D02*
X133460839Y-76155533D01*
X133916666Y-81954819D02*
X134249999Y-81478628D01*
X134488094Y-81954819D02*
X134488094Y-80954819D01*
X134488094Y-80954819D02*
X134107142Y-80954819D01*
X134107142Y-80954819D02*
X134011904Y-81002438D01*
X134011904Y-81002438D02*
X133964285Y-81050057D01*
X133964285Y-81050057D02*
X133916666Y-81145295D01*
X133916666Y-81145295D02*
X133916666Y-81288152D01*
X133916666Y-81288152D02*
X133964285Y-81383390D01*
X133964285Y-81383390D02*
X134011904Y-81431009D01*
X134011904Y-81431009D02*
X134107142Y-81478628D01*
X134107142Y-81478628D02*
X134488094Y-81478628D01*
X133583332Y-80954819D02*
X132964285Y-80954819D01*
X132964285Y-80954819D02*
X133297618Y-81335771D01*
X133297618Y-81335771D02*
X133154761Y-81335771D01*
X133154761Y-81335771D02*
X133059523Y-81383390D01*
X133059523Y-81383390D02*
X133011904Y-81431009D01*
X133011904Y-81431009D02*
X132964285Y-81526247D01*
X132964285Y-81526247D02*
X132964285Y-81764342D01*
X132964285Y-81764342D02*
X133011904Y-81859580D01*
X133011904Y-81859580D02*
X133059523Y-81907200D01*
X133059523Y-81907200D02*
X133154761Y-81954819D01*
X133154761Y-81954819D02*
X133440475Y-81954819D01*
X133440475Y-81954819D02*
X133535713Y-81907200D01*
X133535713Y-81907200D02*
X133583332Y-81859580D01*
X133916666Y-79454819D02*
X134249999Y-78978628D01*
X134488094Y-79454819D02*
X134488094Y-78454819D01*
X134488094Y-78454819D02*
X134107142Y-78454819D01*
X134107142Y-78454819D02*
X134011904Y-78502438D01*
X134011904Y-78502438D02*
X133964285Y-78550057D01*
X133964285Y-78550057D02*
X133916666Y-78645295D01*
X133916666Y-78645295D02*
X133916666Y-78788152D01*
X133916666Y-78788152D02*
X133964285Y-78883390D01*
X133964285Y-78883390D02*
X134011904Y-78931009D01*
X134011904Y-78931009D02*
X134107142Y-78978628D01*
X134107142Y-78978628D02*
X134488094Y-78978628D01*
X133535713Y-78550057D02*
X133488094Y-78502438D01*
X133488094Y-78502438D02*
X133392856Y-78454819D01*
X133392856Y-78454819D02*
X133154761Y-78454819D01*
X133154761Y-78454819D02*
X133059523Y-78502438D01*
X133059523Y-78502438D02*
X133011904Y-78550057D01*
X133011904Y-78550057D02*
X132964285Y-78645295D01*
X132964285Y-78645295D02*
X132964285Y-78740533D01*
X132964285Y-78740533D02*
X133011904Y-78883390D01*
X133011904Y-78883390D02*
X133583332Y-79454819D01*
X133583332Y-79454819D02*
X132964285Y-79454819D01*
D11*
%TO.C,R3*%
X130489642Y-81066471D02*
X130035514Y-81066471D01*
X130489642Y-79596471D02*
X130035514Y-79596471D01*
%TO.C,R1*%
X130477064Y-74515000D02*
X130022936Y-74515000D01*
X130477064Y-75985000D02*
X130022936Y-75985000D01*
%TO.C,R2*%
X130473949Y-76979021D02*
X130019821Y-76979021D01*
X130473949Y-78449021D02*
X130019821Y-78449021D01*
%TD*%
M02*
