%TF.GenerationSoftware,KiCad,Pcbnew,9.0.5*%
%TF.CreationDate,2025-10-16T17:25:57-04:00*%
%TF.ProjectId,phoenix_v2,70686f65-6e69-4785-9f76-322e6b696361,v3*%
%TF.SameCoordinates,Original*%
%TF.FileFunction,Paste,Top*%
%TF.FilePolarity,Positive*%
%FSLAX46Y46*%
G04 Gerber Fmt 4.6, Leading zero omitted, Abs format (unit mm)*
G04 Created by KiCad (PCBNEW 9.0.5) date 2025-10-16 17:25:57*
%MOMM*%
%LPD*%
G01*
G04 APERTURE LIST*
G04 Aperture macros list*
%AMRoundRect*
0 Rectangle with rounded corners*
0 $1 Rounding radius*
0 $2 $3 $4 $5 $6 $7 $8 $9 X,Y pos of 4 corners*
0 Add a 4 corners polygon primitive as box body*
4,1,4,$2,$3,$4,$5,$6,$7,$8,$9,$2,$3,0*
0 Add four circle primitives for the rounded corners*
1,1,$1+$1,$2,$3*
1,1,$1+$1,$4,$5*
1,1,$1+$1,$6,$7*
1,1,$1+$1,$8,$9*
0 Add four rect primitives between the rounded corners*
20,1,$1+$1,$2,$3,$4,$5,0*
20,1,$1+$1,$4,$5,$6,$7,0*
20,1,$1+$1,$6,$7,$8,$9,0*
20,1,$1+$1,$8,$9,$2,$3,0*%
G04 Aperture macros list end*
%ADD10RoundRect,0.250000X-0.250000X-0.475000X0.250000X-0.475000X0.250000X0.475000X-0.250000X0.475000X0*%
%ADD11RoundRect,0.250000X0.250000X0.475000X-0.250000X0.475000X-0.250000X-0.475000X0.250000X-0.475000X0*%
%ADD12RoundRect,0.250000X-0.350000X-0.450000X0.350000X-0.450000X0.350000X0.450000X-0.350000X0.450000X0*%
%ADD13RoundRect,0.250000X0.412500X0.650000X-0.412500X0.650000X-0.412500X-0.650000X0.412500X-0.650000X0*%
%ADD14R,0.900000X0.900000*%
%ADD15R,1.500000X0.900000*%
%ADD16R,0.900000X1.500000*%
%ADD17R,0.600000X1.140000*%
%ADD18R,0.300000X1.140000*%
%ADD19O,1.000000X2.100000*%
%ADD20O,1.000000X1.800000*%
%ADD21RoundRect,0.250000X-0.450000X0.350000X-0.450000X-0.350000X0.450000X-0.350000X0.450000X0.350000X0*%
%ADD22RoundRect,0.250000X-0.475000X0.250000X-0.475000X-0.250000X0.475000X-0.250000X0.475000X0.250000X0*%
%ADD23RoundRect,0.250000X0.325000X0.450000X-0.325000X0.450000X-0.325000X-0.450000X0.325000X-0.450000X0*%
%ADD24RoundRect,0.090000X0.210000X-0.460000X0.210000X0.460000X-0.210000X0.460000X-0.210000X-0.460000X0*%
%ADD25RoundRect,0.250000X0.450000X-0.350000X0.450000X0.350000X-0.450000X0.350000X-0.450000X-0.350000X0*%
%ADD26RoundRect,0.150000X0.150000X-0.512500X0.150000X0.512500X-0.150000X0.512500X-0.150000X-0.512500X0*%
%ADD27RoundRect,0.250000X0.350000X0.450000X-0.350000X0.450000X-0.350000X-0.450000X0.350000X-0.450000X0*%
%ADD28RoundRect,0.250000X-0.412500X-0.650000X0.412500X-0.650000X0.412500X0.650000X-0.412500X0.650000X0*%
%ADD29RoundRect,0.100000X-0.100000X0.637500X-0.100000X-0.637500X0.100000X-0.637500X0.100000X0.637500X0*%
G04 APERTURE END LIST*
D10*
%TO.C,C8*%
X95750000Y-85850000D03*
X97650000Y-85850000D03*
%TD*%
D11*
%TO.C,C3*%
X157400000Y-106850000D03*
X155500000Y-106850000D03*
%TD*%
D12*
%TO.C,R5*%
X120700000Y-115600000D03*
X122700000Y-115600000D03*
%TD*%
D13*
%TO.C,C12*%
X138262500Y-129600000D03*
X135137500Y-129600000D03*
%TD*%
D11*
%TO.C,C9*%
X113900000Y-119100000D03*
X112000000Y-119100000D03*
%TD*%
%TO.C,C5*%
X89650000Y-95100000D03*
X87750000Y-95100000D03*
%TD*%
D12*
%TO.C,R3*%
X88200000Y-80850000D03*
X90200000Y-80850000D03*
%TD*%
D10*
%TO.C,C4*%
X87750000Y-92600000D03*
X89650000Y-92600000D03*
%TD*%
D14*
%TO.C,U5*%
X95600000Y-119540000D03*
X95600000Y-118140000D03*
X95600000Y-116740000D03*
X94200000Y-119540000D03*
X94200000Y-118140000D03*
X94200000Y-116740000D03*
X92800000Y-119540000D03*
X92800000Y-118140000D03*
X92800000Y-116740000D03*
D15*
X101450000Y-125860000D03*
X101450000Y-124590000D03*
X101450000Y-123320000D03*
X101450000Y-122050000D03*
X101450000Y-120780000D03*
X101450000Y-119510000D03*
X101450000Y-118240000D03*
X101450000Y-116970000D03*
X101450000Y-115700000D03*
X101450000Y-114430000D03*
X101450000Y-113160000D03*
X101450000Y-111890000D03*
X101450000Y-110620000D03*
X101450000Y-109350000D03*
D16*
X99685000Y-108100000D03*
X98415000Y-108100000D03*
X97145000Y-108100000D03*
X95875000Y-108100000D03*
X94605000Y-108100000D03*
X93335000Y-108100000D03*
X92065000Y-108100000D03*
X90795000Y-108100000D03*
X89525000Y-108100000D03*
X88255000Y-108100000D03*
X86985000Y-108100000D03*
X85715000Y-108100000D03*
D15*
X83950000Y-109350000D03*
X83950000Y-110620000D03*
X83950000Y-111890000D03*
X83950000Y-113160000D03*
X83950000Y-114430000D03*
X83950000Y-115700000D03*
X83950000Y-116970000D03*
X83950000Y-118240000D03*
X83950000Y-119510000D03*
X83950000Y-120780000D03*
X83950000Y-122050000D03*
X83950000Y-123320000D03*
X83950000Y-124590000D03*
X83950000Y-125860000D03*
%TD*%
D17*
%TO.C,J1*%
X146750000Y-126750000D03*
X147550000Y-126750000D03*
D18*
X148700000Y-126750000D03*
X149700000Y-126750000D03*
X150200000Y-126750000D03*
X151200000Y-126750000D03*
D17*
X152350000Y-126750000D03*
X153150000Y-126750000D03*
X153150000Y-126750000D03*
X152350000Y-126750000D03*
D18*
X151700000Y-126750000D03*
X150700000Y-126750000D03*
X149200000Y-126750000D03*
X148200000Y-126750000D03*
D17*
X147550000Y-126750000D03*
X146750000Y-126750000D03*
D19*
X145630000Y-127320000D03*
D20*
X145630000Y-131500000D03*
D19*
X154270000Y-127320000D03*
D20*
X154270000Y-131500000D03*
%TD*%
D12*
%TO.C,R8*%
X106700000Y-119100000D03*
X108700000Y-119100000D03*
%TD*%
D10*
%TO.C,C6*%
X90750000Y-85850000D03*
X92650000Y-85850000D03*
%TD*%
D21*
%TO.C,R1*%
X142700000Y-129100000D03*
X142700000Y-131100000D03*
%TD*%
%TO.C,R2*%
X157200000Y-129100000D03*
X157200000Y-131100000D03*
%TD*%
D11*
%TO.C,C1*%
X157400000Y-104600000D03*
X155500000Y-104600000D03*
%TD*%
D22*
%TO.C,C14*%
X104450000Y-123650000D03*
X104450000Y-125550000D03*
%TD*%
D12*
%TO.C,R6*%
X120700000Y-118600000D03*
X122700000Y-118600000D03*
%TD*%
D11*
%TO.C,C2*%
X153650000Y-104600000D03*
X151750000Y-104600000D03*
%TD*%
D12*
%TO.C,R7*%
X120700000Y-121600000D03*
X122700000Y-121600000D03*
%TD*%
D23*
%TO.C,D1*%
X127725000Y-115600000D03*
X125675000Y-115600000D03*
%TD*%
D24*
%TO.C,U4*%
X135750000Y-123900000D03*
X136700000Y-123900000D03*
X137650000Y-123900000D03*
X137650000Y-121300000D03*
X135750000Y-121300000D03*
%TD*%
D25*
%TO.C,R9*%
X163950000Y-106600000D03*
X163950000Y-104600000D03*
%TD*%
%TO.C,R10*%
X161450000Y-106600000D03*
X161450000Y-104600000D03*
%TD*%
D23*
%TO.C,D3*%
X127725000Y-121600000D03*
X125675000Y-121600000D03*
%TD*%
D11*
%TO.C,C10*%
X137650000Y-126600000D03*
X135750000Y-126600000D03*
%TD*%
D26*
%TO.C,U2*%
X148500000Y-122737500D03*
X149450000Y-122737500D03*
X150400000Y-122737500D03*
X150400000Y-120462500D03*
X149450000Y-120462500D03*
X148500000Y-120462500D03*
%TD*%
D23*
%TO.C,D2*%
X127725000Y-118600000D03*
X125675000Y-118600000D03*
%TD*%
D10*
%TO.C,C11*%
X135750000Y-118600000D03*
X137650000Y-118600000D03*
%TD*%
D27*
%TO.C,R4*%
X100200000Y-80850000D03*
X98200000Y-80850000D03*
%TD*%
D28*
%TO.C,C13*%
X135137500Y-115600000D03*
X138262500Y-115600000D03*
%TD*%
D10*
%TO.C,C7*%
X93250000Y-80850000D03*
X95150000Y-80850000D03*
%TD*%
D29*
%TO.C,U3*%
X95900000Y-90987500D03*
X95250000Y-90987500D03*
X94600000Y-90987500D03*
X93950000Y-90987500D03*
X93300000Y-90987500D03*
X92650000Y-90987500D03*
X92000000Y-90987500D03*
X92000000Y-96712500D03*
X92650000Y-96712500D03*
X93300000Y-96712500D03*
X93950000Y-96712500D03*
X94600000Y-96712500D03*
X95250000Y-96712500D03*
X95900000Y-96712500D03*
%TD*%
M02*
