%TF.GenerationSoftware,KiCad,Pcbnew,9.0.5*%
%TF.CreationDate,2025-10-20T16:28:33-04:00*%
%TF.ProjectId,phoenix_v2,70686f65-6e69-4785-9f76-322e6b696361,v3*%
%TF.SameCoordinates,Original*%
%TF.FileFunction,Legend,Bot*%
%TF.FilePolarity,Positive*%
%FSLAX46Y46*%
G04 Gerber Fmt 4.6, Leading zero omitted, Abs format (unit mm)*
G04 Created by KiCad (PCBNEW 9.0.5) date 2025-10-20 16:28:33*
%MOMM*%
%LPD*%
G01*
G04 APERTURE LIST*
%ADD10C,0.200000*%
G04 APERTURE END LIST*
D10*
X189794612Y-131467219D02*
X189794612Y-132181504D01*
X189794612Y-132181504D02*
X189842231Y-132324361D01*
X189842231Y-132324361D02*
X189937469Y-132419600D01*
X189937469Y-132419600D02*
X190080326Y-132467219D01*
X190080326Y-132467219D02*
X190175564Y-132467219D01*
X188842231Y-132467219D02*
X189318421Y-132467219D01*
X189318421Y-132467219D02*
X189318421Y-131467219D01*
X187937469Y-132371980D02*
X187985088Y-132419600D01*
X187985088Y-132419600D02*
X188127945Y-132467219D01*
X188127945Y-132467219D02*
X188223183Y-132467219D01*
X188223183Y-132467219D02*
X188366040Y-132419600D01*
X188366040Y-132419600D02*
X188461278Y-132324361D01*
X188461278Y-132324361D02*
X188508897Y-132229123D01*
X188508897Y-132229123D02*
X188556516Y-132038647D01*
X188556516Y-132038647D02*
X188556516Y-131895790D01*
X188556516Y-131895790D02*
X188508897Y-131705314D01*
X188508897Y-131705314D02*
X188461278Y-131610076D01*
X188461278Y-131610076D02*
X188366040Y-131514838D01*
X188366040Y-131514838D02*
X188223183Y-131467219D01*
X188223183Y-131467219D02*
X188127945Y-131467219D01*
X188127945Y-131467219D02*
X187985088Y-131514838D01*
X187985088Y-131514838D02*
X187937469Y-131562457D01*
X187223183Y-131467219D02*
X187223183Y-132181504D01*
X187223183Y-132181504D02*
X187270802Y-132324361D01*
X187270802Y-132324361D02*
X187366040Y-132419600D01*
X187366040Y-132419600D02*
X187508897Y-132467219D01*
X187508897Y-132467219D02*
X187604135Y-132467219D01*
X186270802Y-132467219D02*
X186746992Y-132467219D01*
X186746992Y-132467219D02*
X186746992Y-131467219D01*
X185366040Y-132371980D02*
X185413659Y-132419600D01*
X185413659Y-132419600D02*
X185556516Y-132467219D01*
X185556516Y-132467219D02*
X185651754Y-132467219D01*
X185651754Y-132467219D02*
X185794611Y-132419600D01*
X185794611Y-132419600D02*
X185889849Y-132324361D01*
X185889849Y-132324361D02*
X185937468Y-132229123D01*
X185937468Y-132229123D02*
X185985087Y-132038647D01*
X185985087Y-132038647D02*
X185985087Y-131895790D01*
X185985087Y-131895790D02*
X185937468Y-131705314D01*
X185937468Y-131705314D02*
X185889849Y-131610076D01*
X185889849Y-131610076D02*
X185794611Y-131514838D01*
X185794611Y-131514838D02*
X185651754Y-131467219D01*
X185651754Y-131467219D02*
X185556516Y-131467219D01*
X185556516Y-131467219D02*
X185413659Y-131514838D01*
X185413659Y-131514838D02*
X185366040Y-131562457D01*
X184651754Y-131467219D02*
X184651754Y-132181504D01*
X184651754Y-132181504D02*
X184699373Y-132324361D01*
X184699373Y-132324361D02*
X184794611Y-132419600D01*
X184794611Y-132419600D02*
X184937468Y-132467219D01*
X184937468Y-132467219D02*
X185032706Y-132467219D01*
X183699373Y-132467219D02*
X184175563Y-132467219D01*
X184175563Y-132467219D02*
X184175563Y-131467219D01*
X182794611Y-132371980D02*
X182842230Y-132419600D01*
X182842230Y-132419600D02*
X182985087Y-132467219D01*
X182985087Y-132467219D02*
X183080325Y-132467219D01*
X183080325Y-132467219D02*
X183223182Y-132419600D01*
X183223182Y-132419600D02*
X183318420Y-132324361D01*
X183318420Y-132324361D02*
X183366039Y-132229123D01*
X183366039Y-132229123D02*
X183413658Y-132038647D01*
X183413658Y-132038647D02*
X183413658Y-131895790D01*
X183413658Y-131895790D02*
X183366039Y-131705314D01*
X183366039Y-131705314D02*
X183318420Y-131610076D01*
X183318420Y-131610076D02*
X183223182Y-131514838D01*
X183223182Y-131514838D02*
X183080325Y-131467219D01*
X183080325Y-131467219D02*
X182985087Y-131467219D01*
X182985087Y-131467219D02*
X182842230Y-131514838D01*
X182842230Y-131514838D02*
X182794611Y-131562457D01*
X182080325Y-131467219D02*
X182080325Y-132181504D01*
X182080325Y-132181504D02*
X182127944Y-132324361D01*
X182127944Y-132324361D02*
X182223182Y-132419600D01*
X182223182Y-132419600D02*
X182366039Y-132467219D01*
X182366039Y-132467219D02*
X182461277Y-132467219D01*
X181127944Y-132467219D02*
X181604134Y-132467219D01*
X181604134Y-132467219D02*
X181604134Y-131467219D01*
X180223182Y-132371980D02*
X180270801Y-132419600D01*
X180270801Y-132419600D02*
X180413658Y-132467219D01*
X180413658Y-132467219D02*
X180508896Y-132467219D01*
X180508896Y-132467219D02*
X180651753Y-132419600D01*
X180651753Y-132419600D02*
X180746991Y-132324361D01*
X180746991Y-132324361D02*
X180794610Y-132229123D01*
X180794610Y-132229123D02*
X180842229Y-132038647D01*
X180842229Y-132038647D02*
X180842229Y-131895790D01*
X180842229Y-131895790D02*
X180794610Y-131705314D01*
X180794610Y-131705314D02*
X180746991Y-131610076D01*
X180746991Y-131610076D02*
X180651753Y-131514838D01*
X180651753Y-131514838D02*
X180508896Y-131467219D01*
X180508896Y-131467219D02*
X180413658Y-131467219D01*
X180413658Y-131467219D02*
X180270801Y-131514838D01*
X180270801Y-131514838D02*
X180223182Y-131562457D01*
M02*
