%TF.GenerationSoftware,KiCad,Pcbnew,9.0.0*%
%TF.CreationDate,2025-04-12T19:30:56-04:00*%
%TF.ProjectId,phoenix_v1,70686f65-6e69-4785-9f76-312e6b696361,v2*%
%TF.SameCoordinates,Original*%
%TF.FileFunction,Soldermask,Top*%
%TF.FilePolarity,Negative*%
%FSLAX46Y46*%
G04 Gerber Fmt 4.6, Leading zero omitted, Abs format (unit mm)*
G04 Created by KiCad (PCBNEW 9.0.0) date 2025-04-12 19:30:56*
%MOMM*%
%LPD*%
G01*
G04 APERTURE LIST*
G04 Aperture macros list*
%AMRoundRect*
0 Rectangle with rounded corners*
0 $1 Rounding radius*
0 $2 $3 $4 $5 $6 $7 $8 $9 X,Y pos of 4 corners*
0 Add a 4 corners polygon primitive as box body*
4,1,4,$2,$3,$4,$5,$6,$7,$8,$9,$2,$3,0*
0 Add four circle primitives for the rounded corners*
1,1,$1+$1,$2,$3*
1,1,$1+$1,$4,$5*
1,1,$1+$1,$6,$7*
1,1,$1+$1,$8,$9*
0 Add four rect primitives between the rounded corners*
20,1,$1+$1,$2,$3,$4,$5,0*
20,1,$1+$1,$4,$5,$6,$7,0*
20,1,$1+$1,$6,$7,$8,$9,0*
20,1,$1+$1,$8,$9,$2,$3,0*%
G04 Aperture macros list end*
%ADD10C,1.879600*%
%ADD11C,3.301600*%
%ADD12RoundRect,0.250000X-0.325000X-0.450000X0.325000X-0.450000X0.325000X0.450000X-0.325000X0.450000X0*%
%ADD13RoundRect,0.102000X-0.825000X-0.825000X0.825000X-0.825000X0.825000X0.825000X-0.825000X0.825000X0*%
%ADD14C,1.854000*%
%ADD15RoundRect,0.250000X0.250000X0.475000X-0.250000X0.475000X-0.250000X-0.475000X0.250000X-0.475000X0*%
%ADD16RoundRect,0.250000X0.350000X0.450000X-0.350000X0.450000X-0.350000X-0.450000X0.350000X-0.450000X0*%
%ADD17C,1.950000*%
%ADD18C,4.460000*%
%ADD19RoundRect,0.250000X-0.350000X-0.450000X0.350000X-0.450000X0.350000X0.450000X-0.350000X0.450000X0*%
%ADD20C,2.500000*%
%ADD21R,1.600000X1.600000*%
%ADD22C,1.600000*%
%ADD23O,1.800000X3.400000*%
%ADD24R,2.000000X1.200000*%
%ADD25O,2.000000X1.200000*%
G04 APERTURE END LIST*
D10*
%TO.C,J2*%
X107610000Y-78668000D03*
X105070000Y-78668000D03*
X102530000Y-78668000D03*
X99990000Y-78668000D03*
X97450000Y-78668000D03*
X94910000Y-78668000D03*
X92370000Y-78668000D03*
X89830000Y-78668000D03*
X87290000Y-78668000D03*
D11*
X87925000Y-62031000D03*
X106975000Y-62031000D03*
%TD*%
D12*
%TO.C,D2*%
X119975000Y-76500000D03*
X122025000Y-76500000D03*
%TD*%
D13*
%TO.C,J1*%
X120420000Y-63500000D03*
D14*
X125500000Y-63500000D03*
%TD*%
D15*
%TO.C,C1*%
X124500000Y-119000000D03*
X122600000Y-119000000D03*
%TD*%
D16*
%TO.C,R2*%
X126500000Y-76460000D03*
X124500000Y-76460000D03*
%TD*%
D15*
%TO.C,C2*%
X120500000Y-119000000D03*
X118600000Y-119000000D03*
%TD*%
D16*
%TO.C,R3*%
X126500000Y-79000000D03*
X124500000Y-79000000D03*
%TD*%
D17*
%TO.C,SW1*%
X138100000Y-81500000D03*
X143100000Y-81500000D03*
X148100000Y-81500000D03*
D18*
X135700000Y-71000000D03*
X150500000Y-71000000D03*
D17*
X140600000Y-64000000D03*
X145600000Y-64000000D03*
%TD*%
D12*
%TO.C,D3*%
X119975000Y-79080000D03*
X122025000Y-79080000D03*
%TD*%
D19*
%TO.C,R5*%
X158500000Y-66450000D03*
X160500000Y-66450000D03*
%TD*%
%TO.C,R4*%
X158500000Y-63500000D03*
X160500000Y-63500000D03*
%TD*%
D12*
%TO.C,D1*%
X119975000Y-74000000D03*
X122025000Y-74000000D03*
%TD*%
D20*
%TO.C,U2*%
X93000000Y-86300000D03*
X93000000Y-119400000D03*
X158000000Y-86300000D03*
X158000000Y-119400000D03*
D21*
X132500000Y-115500000D03*
D22*
X130500000Y-115500000D03*
X128500000Y-115500000D03*
X126500000Y-115500000D03*
X124500000Y-115500000D03*
X122500000Y-115500000D03*
X120500000Y-115500000D03*
X118500000Y-115500000D03*
D23*
X86950000Y-103850000D03*
X86950000Y-95350000D03*
%TD*%
D24*
%TO.C,U1*%
X165140000Y-59920000D03*
D25*
X165140000Y-62460000D03*
X165140000Y-65000000D03*
X165140000Y-67540000D03*
X165140000Y-70080000D03*
X165140000Y-72620000D03*
X165140000Y-75160000D03*
X165140000Y-77700000D03*
X165140000Y-80240000D03*
X165140000Y-82780000D03*
X165140000Y-85320000D03*
X165140000Y-87860000D03*
X165140000Y-90400000D03*
X165140000Y-92940000D03*
X165140000Y-95480000D03*
X165140000Y-98020000D03*
X165140000Y-100560000D03*
X165140000Y-103100000D03*
X165140000Y-105640000D03*
X165136320Y-108177280D03*
X165136320Y-110717280D03*
X165136320Y-113257280D03*
X188000000Y-113260000D03*
X188000000Y-110720000D03*
X188000000Y-108180000D03*
X188000000Y-105640000D03*
X188000000Y-103100000D03*
X188000000Y-100560000D03*
X188000000Y-98020000D03*
X188000000Y-95480000D03*
X188000000Y-92940000D03*
X188000000Y-90400000D03*
X188000000Y-87860000D03*
X188000000Y-85320000D03*
X188000000Y-82780000D03*
X188000000Y-80240000D03*
X188000000Y-77700000D03*
X188000000Y-75160000D03*
X188000000Y-72620000D03*
X188000000Y-70080000D03*
X188000000Y-67540000D03*
X188000000Y-65000000D03*
X188000000Y-62460000D03*
X188000000Y-59920000D03*
%TD*%
D16*
%TO.C,R1*%
X126500000Y-74000000D03*
X124500000Y-74000000D03*
%TD*%
M02*
