%TF.GenerationSoftware,KiCad,Pcbnew,9.0.0*%
%TF.CreationDate,2025-04-12T19:30:55-04:00*%
%TF.ProjectId,phoenix_v1,70686f65-6e69-4785-9f76-312e6b696361,v2*%
%TF.SameCoordinates,Original*%
%TF.FileFunction,Copper,L1,Top*%
%TF.FilePolarity,Positive*%
%FSLAX46Y46*%
G04 Gerber Fmt 4.6, Leading zero omitted, Abs format (unit mm)*
G04 Created by KiCad (PCBNEW 9.0.0) date 2025-04-12 19:30:55*
%MOMM*%
%LPD*%
G01*
G04 APERTURE LIST*
G04 Aperture macros list*
%AMRoundRect*
0 Rectangle with rounded corners*
0 $1 Rounding radius*
0 $2 $3 $4 $5 $6 $7 $8 $9 X,Y pos of 4 corners*
0 Add a 4 corners polygon primitive as box body*
4,1,4,$2,$3,$4,$5,$6,$7,$8,$9,$2,$3,0*
0 Add four circle primitives for the rounded corners*
1,1,$1+$1,$2,$3*
1,1,$1+$1,$4,$5*
1,1,$1+$1,$6,$7*
1,1,$1+$1,$8,$9*
0 Add four rect primitives between the rounded corners*
20,1,$1+$1,$2,$3,$4,$5,0*
20,1,$1+$1,$4,$5,$6,$7,0*
20,1,$1+$1,$6,$7,$8,$9,0*
20,1,$1+$1,$8,$9,$2,$3,0*%
G04 Aperture macros list end*
%TA.AperFunction,ComponentPad*%
%ADD10C,1.778000*%
%TD*%
%TA.AperFunction,ComponentPad*%
%ADD11C,3.200000*%
%TD*%
%TA.AperFunction,SMDPad,CuDef*%
%ADD12RoundRect,0.250000X-0.325000X-0.450000X0.325000X-0.450000X0.325000X0.450000X-0.325000X0.450000X0*%
%TD*%
%TA.AperFunction,ComponentPad*%
%ADD13R,1.650000X1.650000*%
%TD*%
%TA.AperFunction,ComponentPad*%
%ADD14C,1.650000*%
%TD*%
%TA.AperFunction,SMDPad,CuDef*%
%ADD15RoundRect,0.250000X0.250000X0.475000X-0.250000X0.475000X-0.250000X-0.475000X0.250000X-0.475000X0*%
%TD*%
%TA.AperFunction,SMDPad,CuDef*%
%ADD16RoundRect,0.250000X0.350000X0.450000X-0.350000X0.450000X-0.350000X-0.450000X0.350000X-0.450000X0*%
%TD*%
%TA.AperFunction,ComponentPad*%
%ADD17C,1.950000*%
%TD*%
%TA.AperFunction,ComponentPad*%
%ADD18C,4.460000*%
%TD*%
%TA.AperFunction,SMDPad,CuDef*%
%ADD19RoundRect,0.250000X-0.350000X-0.450000X0.350000X-0.450000X0.350000X0.450000X-0.350000X0.450000X0*%
%TD*%
%TA.AperFunction,ComponentPad*%
%ADD20R,1.600000X1.600000*%
%TD*%
%TA.AperFunction,ComponentPad*%
%ADD21C,1.600000*%
%TD*%
%TA.AperFunction,ComponentPad*%
%ADD22O,1.800000X3.400000*%
%TD*%
%TA.AperFunction,ComponentPad*%
%ADD23R,2.000000X1.200000*%
%TD*%
%TA.AperFunction,ComponentPad*%
%ADD24O,2.000000X1.200000*%
%TD*%
%TA.AperFunction,ViaPad*%
%ADD25C,0.600000*%
%TD*%
%TA.AperFunction,Conductor*%
%ADD26C,1.000000*%
%TD*%
%TA.AperFunction,Conductor*%
%ADD27C,0.500000*%
%TD*%
%TA.AperFunction,Conductor*%
%ADD28C,0.200000*%
%TD*%
%TA.AperFunction,Conductor*%
%ADD29C,0.250000*%
%TD*%
G04 APERTURE END LIST*
D10*
%TO.P,J2,1,Pin_1*%
%TO.N,/MAX_DRDY*%
X107610000Y-78668000D03*
%TO.P,J2,2,Pin_2*%
%TO.N,/MAX_FAULT*%
X105070000Y-78668000D03*
%TO.P,J2,3,Pin_3*%
%TO.N,/MAX_CS*%
X102530000Y-78668000D03*
%TO.P,J2,4,Pin_4*%
%TO.N,/MAX_SDI*%
X99990000Y-78668000D03*
%TO.P,J2,5,Pin_5*%
%TO.N,/MAX_SDO*%
X97450000Y-78668000D03*
%TO.P,J2,6,Pin_6*%
%TO.N,/MAX_SCK*%
X94910000Y-78668000D03*
%TO.P,J2,7,Pin_7*%
%TO.N,GND*%
X92370000Y-78668000D03*
%TO.P,J2,8,Pin_8*%
%TO.N,/MAX_3.3VOUT*%
X89830000Y-78668000D03*
%TO.P,J2,9,Pin_9*%
%TO.N,+3.3V*%
X87290000Y-78668000D03*
D11*
%TO.P,J2,P$1*%
%TO.N,N/C*%
X87925000Y-62031000D03*
X106975000Y-62031000D03*
%TD*%
D12*
%TO.P,D2,1,K*%
%TO.N,GND*%
X119975000Y-76500000D03*
%TO.P,D2,2,A*%
%TO.N,Net-(D2-A)*%
X122025000Y-76500000D03*
%TD*%
D13*
%TO.P,J1,1,Pin_1*%
%TO.N,GND*%
X120420000Y-63500000D03*
D14*
%TO.P,J1,2,Pin_2*%
%TO.N,/SSR_PWM*%
X125500000Y-63500000D03*
%TD*%
D15*
%TO.P,C1,1*%
%TO.N,+3.3V*%
X124500000Y-119000000D03*
%TO.P,C1,2*%
%TO.N,Net-(U2-VOUT)*%
X122600000Y-119000000D03*
%TD*%
D16*
%TO.P,R2,1*%
%TO.N,/LED_2*%
X126500000Y-76460000D03*
%TO.P,R2,2*%
%TO.N,Net-(D2-A)*%
X124500000Y-76460000D03*
%TD*%
D15*
%TO.P,C2,1*%
%TO.N,Net-(U2-C1+)*%
X120500000Y-119000000D03*
%TO.P,C2,2*%
%TO.N,Net-(U2-C1-)*%
X118600000Y-119000000D03*
%TD*%
D16*
%TO.P,R3,1*%
%TO.N,/LED_3*%
X126500000Y-79000000D03*
%TO.P,R3,2*%
%TO.N,Net-(D3-A)*%
X124500000Y-79000000D03*
%TD*%
D17*
%TO.P,SW1,A,A*%
%TO.N,/ENC_A*%
X138100000Y-81500000D03*
%TO.P,SW1,B,B*%
%TO.N,/ENC_B*%
X143100000Y-81500000D03*
%TO.P,SW1,C,C*%
%TO.N,GND*%
X148100000Y-81500000D03*
D18*
%TO.P,SW1,MH1*%
%TO.N,N/C*%
X135700000Y-71000000D03*
%TO.P,SW1,MH2*%
X150500000Y-71000000D03*
D17*
%TO.P,SW1,S1,S1*%
%TO.N,GND*%
X140600000Y-64000000D03*
%TO.P,SW1,S2,S2*%
%TO.N,/ENC_SW*%
X145600000Y-64000000D03*
%TD*%
D12*
%TO.P,D3,1,K*%
%TO.N,GND*%
X119975000Y-79080000D03*
%TO.P,D3,2,A*%
%TO.N,Net-(D3-A)*%
X122025000Y-79080000D03*
%TD*%
D19*
%TO.P,R5,1*%
%TO.N,+3.3V*%
X158500000Y-66450000D03*
%TO.P,R5,2*%
%TO.N,/SDA*%
X160500000Y-66450000D03*
%TD*%
%TO.P,R4,1*%
%TO.N,+3.3V*%
X158500000Y-63500000D03*
%TO.P,R4,2*%
%TO.N,/SCL*%
X160500000Y-63500000D03*
%TD*%
D12*
%TO.P,D1,1,K*%
%TO.N,GND*%
X119975000Y-74000000D03*
%TO.P,D1,2,A*%
%TO.N,Net-(D1-A)*%
X122025000Y-74000000D03*
%TD*%
D20*
%TO.P,U2,1,~{RST}*%
%TO.N,/DISPLAY_RST*%
X132500000Y-115500000D03*
D21*
%TO.P,U2,2,SCL*%
%TO.N,/SCL*%
X130500000Y-115500000D03*
%TO.P,U2,3,SDA*%
%TO.N,/SDA*%
X128500000Y-115500000D03*
%TO.P,U2,4,VSS*%
%TO.N,GND*%
X126500000Y-115500000D03*
%TO.P,U2,5,VDD*%
%TO.N,+3.3V*%
X124500000Y-115500000D03*
%TO.P,U2,6,VOUT*%
%TO.N,Net-(U2-VOUT)*%
X122500000Y-115500000D03*
%TO.P,U2,7,C1+*%
%TO.N,Net-(U2-C1+)*%
X120500000Y-115500000D03*
%TO.P,U2,8,C1-*%
%TO.N,Net-(U2-C1-)*%
X118500000Y-115500000D03*
D22*
%TO.P,U2,9,A*%
%TO.N,+3.3V*%
X86950000Y-103850000D03*
%TO.P,U2,10,K*%
%TO.N,GND*%
X86950000Y-95350000D03*
%TD*%
D23*
%TO.P,U1,1,3V3*%
%TO.N,+3.3V*%
X165140000Y-59920000D03*
D24*
%TO.P,U1,2,3V3*%
X165140000Y-62460000D03*
%TO.P,U1,3,CHIP_PU*%
%TO.N,unconnected-(U1-CHIP_PU-Pad3)*%
X165140000Y-65000000D03*
%TO.P,U1,4,GPIO4/ADC1_CH3*%
%TO.N,/ENC_SW*%
X165140000Y-67540000D03*
%TO.P,U1,5,GPIO5/ADC1_CH4*%
%TO.N,/SSR_PWM*%
X165140000Y-70080000D03*
%TO.P,U1,6,GPIO6/ADC1_CH5*%
%TO.N,unconnected-(U1-GPIO6{slash}ADC1_CH5-Pad6)*%
X165140000Y-72620000D03*
%TO.P,U1,7,GPIO7/ADC1_CH6*%
%TO.N,/LED_1*%
X165140000Y-75160000D03*
%TO.P,U1,8,GPIO15/ADC2_CH4/32K_P*%
%TO.N,/LED_2*%
X165140000Y-77700000D03*
%TO.P,U1,9,GPIO16/ADC2_CH5/32K_N*%
%TO.N,/LED_3*%
X165140000Y-80240000D03*
%TO.P,U1,10,GPIO17/ADC2_CH6*%
%TO.N,/ENC_B*%
X165140000Y-82780000D03*
%TO.P,U1,11,GPIO18/ADC2_CH7*%
%TO.N,/ENC_A*%
X165140000Y-85320000D03*
%TO.P,U1,12,GPIO8/ADC1_CH7*%
%TO.N,/MAX_DRDY*%
X165140000Y-87860000D03*
%TO.P,U1,13,GPIO3/ADC1_CH2*%
%TO.N,/MAX_FAULT*%
X165140000Y-90400000D03*
%TO.P,U1,14,GPIO46*%
%TO.N,/MAX_CS*%
X165140000Y-92940000D03*
%TO.P,U1,15,GPIO9/ADC1_CH8*%
%TO.N,/MAX_SDI*%
X165140000Y-95480000D03*
%TO.P,U1,16,GPIO10/ADC1_CH9*%
%TO.N,/MAX_SDO*%
X165140000Y-98020000D03*
%TO.P,U1,17,GPIO11/ADC2_CH0*%
%TO.N,/MAX_SCK*%
X165140000Y-100560000D03*
%TO.P,U1,18,GPIO12/ADC2_CH1*%
%TO.N,/SDA*%
X165140000Y-103100000D03*
%TO.P,U1,19,GPIO13/ADC2_CH2*%
%TO.N,/SCL*%
X165140000Y-105640000D03*
%TO.P,U1,20,GPIO14/ADC2_CH3*%
%TO.N,/DISPLAY_RST*%
X165136320Y-108177280D03*
%TO.P,U1,21,5V*%
%TO.N,+5V*%
X165136320Y-110717280D03*
%TO.P,U1,22,GND*%
%TO.N,GND*%
X165136320Y-113257280D03*
%TO.P,U1,23,GND*%
X188000000Y-113260000D03*
%TO.P,U1,24,GND*%
X188000000Y-110720000D03*
%TO.P,U1,25,GPIO19/USB_D-*%
%TO.N,unconnected-(U1-GPIO19{slash}USB_D--Pad25)*%
X188000000Y-108180000D03*
%TO.P,U1,26,GPIO20/USB_D+*%
%TO.N,unconnected-(U1-GPIO20{slash}USB_D+-Pad26)*%
X188000000Y-105640000D03*
%TO.P,U1,27,GPIO21*%
%TO.N,unconnected-(U1-GPIO21-Pad27)*%
X188000000Y-103100000D03*
%TO.P,U1,28,GPIO47*%
%TO.N,unconnected-(U1-GPIO47-Pad28)*%
X188000000Y-100560000D03*
%TO.P,U1,29,GPIO48*%
%TO.N,unconnected-(U1-GPIO48-Pad29)*%
X188000000Y-98020000D03*
%TO.P,U1,30,GPIO45*%
%TO.N,unconnected-(U1-GPIO45-Pad30)*%
X188000000Y-95480000D03*
%TO.P,U1,31,GPIO0*%
%TO.N,unconnected-(U1-GPIO0-Pad31)*%
X188000000Y-92940000D03*
%TO.P,U1,32,GPIO35*%
%TO.N,unconnected-(U1-GPIO35-Pad32)*%
X188000000Y-90400000D03*
%TO.P,U1,33,GPIO36*%
%TO.N,unconnected-(U1-GPIO36-Pad33)*%
X188000000Y-87860000D03*
%TO.P,U1,34,GPIO37*%
%TO.N,unconnected-(U1-GPIO37-Pad34)*%
X188000000Y-85320000D03*
%TO.P,U1,35,GPIO38*%
%TO.N,unconnected-(U1-GPIO38-Pad35)*%
X188000000Y-82780000D03*
%TO.P,U1,36,GPIO39/MTCK*%
%TO.N,unconnected-(U1-GPIO39{slash}MTCK-Pad36)*%
X188000000Y-80240000D03*
%TO.P,U1,37,GPIO40/MTDO*%
%TO.N,unconnected-(U1-GPIO40{slash}MTDO-Pad37)*%
X188000000Y-77700000D03*
%TO.P,U1,38,GPIO41/MTDI*%
%TO.N,unconnected-(U1-GPIO41{slash}MTDI-Pad38)*%
X188000000Y-75160000D03*
%TO.P,U1,39,GPIO42/MTMS*%
%TO.N,unconnected-(U1-GPIO42{slash}MTMS-Pad39)*%
X188000000Y-72620000D03*
%TO.P,U1,40,GPIO2/ADC1_CH1*%
%TO.N,unconnected-(U1-GPIO2{slash}ADC1_CH1-Pad40)*%
X188000000Y-70080000D03*
%TO.P,U1,41,GPIO1/ADC1_CH0*%
%TO.N,unconnected-(U1-GPIO1{slash}ADC1_CH0-Pad41)*%
X188000000Y-67540000D03*
%TO.P,U1,42,GPIO44/U0RXD*%
%TO.N,unconnected-(U1-GPIO44{slash}U0RXD-Pad42)*%
X188000000Y-65000000D03*
%TO.P,U1,43,GPIO43/U0TXD*%
%TO.N,unconnected-(U1-GPIO43{slash}U0TXD-Pad43)*%
X188000000Y-62460000D03*
%TO.P,U1,44,GND*%
%TO.N,GND*%
X188000000Y-59920000D03*
%TD*%
D16*
%TO.P,R1,1*%
%TO.N,/LED_1*%
X126500000Y-74000000D03*
%TO.P,R1,2*%
%TO.N,Net-(D1-A)*%
X124500000Y-74000000D03*
%TD*%
D25*
%TO.N,GND*%
X95000000Y-81250000D03*
X95000000Y-76500000D03*
X106500000Y-76500000D03*
X100500000Y-76500000D03*
X85750000Y-89750000D03*
X85250000Y-99750000D03*
X89250000Y-93250000D03*
X89000000Y-101750000D03*
X85500000Y-60000000D03*
X85500000Y-72000000D03*
X85500000Y-76250000D03*
X85500000Y-80750000D03*
X89000000Y-81750000D03*
X92750000Y-97500000D03*
X89250000Y-87750000D03*
X90500000Y-105500000D03*
X93000000Y-103250000D03*
X92750000Y-91750000D03*
X152500000Y-121000000D03*
X185500000Y-60000000D03*
X179500000Y-60000000D03*
X170500000Y-93000000D03*
X91000000Y-73000000D03*
X98500000Y-85000000D03*
X96500000Y-67500000D03*
X140500000Y-117000000D03*
X132000000Y-121000000D03*
X132000000Y-72500000D03*
X162500000Y-110500000D03*
X170500000Y-60000000D03*
X85500000Y-121500000D03*
X172000000Y-60000000D03*
X182500000Y-60000000D03*
X122500000Y-120500000D03*
X170500000Y-103000000D03*
X176000000Y-77500000D03*
X176000000Y-87500000D03*
X96000000Y-112500000D03*
X169024610Y-59973958D03*
X141500000Y-121000000D03*
X186500000Y-121500000D03*
X116500000Y-102000000D03*
X176000000Y-98000000D03*
X170500000Y-72500000D03*
X126500000Y-113000000D03*
X176500000Y-60000000D03*
X152000000Y-65500000D03*
X135000000Y-65000000D03*
X188500000Y-119500000D03*
X164500000Y-121500000D03*
X87000000Y-121500000D03*
X128000000Y-86500000D03*
X147500000Y-86500000D03*
X178000000Y-60000000D03*
X175000000Y-60000000D03*
X125500000Y-66500000D03*
X136500000Y-121000000D03*
X97000000Y-71500000D03*
X176000000Y-82500000D03*
X87500000Y-69500000D03*
X117500000Y-86000000D03*
X85500000Y-110500000D03*
X134500000Y-114000000D03*
X120500000Y-120500000D03*
X118500000Y-120500000D03*
X102000000Y-121500000D03*
X129500000Y-65000000D03*
X138500000Y-110000000D03*
X108500000Y-95500000D03*
X116000000Y-119000000D03*
X176000000Y-121500000D03*
X132000000Y-69000000D03*
X128000000Y-121000000D03*
X117500000Y-62500000D03*
X112500000Y-67000000D03*
X124500000Y-120500000D03*
X85500000Y-120000000D03*
X170500000Y-98000000D03*
X91000000Y-61000000D03*
X169500000Y-64500000D03*
X170500000Y-87500000D03*
X184000000Y-60000000D03*
X114500000Y-75000000D03*
X128000000Y-102500000D03*
X107500000Y-71500000D03*
X85500000Y-86000000D03*
X158500000Y-114000000D03*
X170500000Y-111500000D03*
X113500000Y-60000000D03*
X176000000Y-62500000D03*
X188500000Y-121500000D03*
X146000000Y-117000000D03*
X170500000Y-77500000D03*
X151500000Y-117000000D03*
X173000000Y-62500000D03*
X128000000Y-68500000D03*
X86500000Y-65000000D03*
X170500000Y-108000000D03*
X103500000Y-90000000D03*
X111500000Y-80000000D03*
X135500000Y-117000000D03*
X181000000Y-60000000D03*
X147000000Y-121000000D03*
X176000000Y-108000000D03*
X147000000Y-110000000D03*
X135000000Y-81000000D03*
X176000000Y-67500000D03*
X118500000Y-113000000D03*
X106000000Y-67500000D03*
X176000000Y-72500000D03*
X176000000Y-113500000D03*
X170500000Y-82500000D03*
X128500000Y-64000000D03*
X176000000Y-103000000D03*
X155500000Y-110000000D03*
X134500000Y-102500000D03*
X173500000Y-60000000D03*
X129000000Y-107500000D03*
X162500000Y-61500000D03*
X104500000Y-105000000D03*
X110000000Y-63500000D03*
X155000000Y-86500000D03*
X157000000Y-61500000D03*
X168000000Y-114000000D03*
X167500000Y-60000000D03*
X138500000Y-86500000D03*
X176000000Y-93000000D03*
X170500000Y-67500000D03*
%TO.N,/SCL*%
X162500000Y-63500000D03*
%TO.N,/SDA*%
X162500000Y-66000000D03*
%TD*%
D26*
%TO.N,+3.3V*%
X87290000Y-88790000D02*
X87290000Y-78668000D01*
X169000000Y-116000000D02*
X172500000Y-112500000D01*
X91000000Y-92500000D02*
X87290000Y-88790000D01*
X107000000Y-69500000D02*
X90500000Y-69500000D01*
X87290000Y-72710000D02*
X87290000Y-78668000D01*
X152500000Y-119000000D02*
X155500000Y-116000000D01*
X162000000Y-59920000D02*
X158500000Y-59920000D01*
X169960000Y-62460000D02*
X165140000Y-62460000D01*
X172500000Y-65000000D02*
X169960000Y-62460000D01*
X124500000Y-119000000D02*
X152500000Y-119000000D01*
X158500000Y-63500000D02*
X158500000Y-66450000D01*
X158500000Y-59920000D02*
X116580000Y-59920000D01*
X158500000Y-63500000D02*
X158500000Y-59920000D01*
X90500000Y-69500000D02*
X87290000Y-72710000D01*
X155500000Y-116000000D02*
X169000000Y-116000000D01*
X124500000Y-115500000D02*
X124500000Y-119000000D01*
X89650000Y-103850000D02*
X91000000Y-102500000D01*
X172500000Y-112500000D02*
X172500000Y-65000000D01*
X116580000Y-59920000D02*
X107000000Y-69500000D01*
X91000000Y-102500000D02*
X91000000Y-92500000D01*
X86950000Y-103850000D02*
X89650000Y-103850000D01*
X162000000Y-59920000D02*
X165140000Y-59920000D01*
X165140000Y-59920000D02*
X165140000Y-62460000D01*
%TO.N,/SSR_PWM*%
X125500000Y-63500000D02*
X129000000Y-67000000D01*
X129000000Y-67000000D02*
X152500000Y-67000000D01*
X152500000Y-67000000D02*
X155580000Y-70080000D01*
X155580000Y-70080000D02*
X165140000Y-70080000D01*
D27*
%TO.N,Net-(D3-A)*%
X122025000Y-79080000D02*
X124420000Y-79080000D01*
X124420000Y-79080000D02*
X124500000Y-79000000D01*
%TO.N,Net-(D2-A)*%
X122065000Y-76460000D02*
X122025000Y-76500000D01*
X124500000Y-76460000D02*
X122065000Y-76460000D01*
%TO.N,Net-(D1-A)*%
X122025000Y-74000000D02*
X124500000Y-74000000D01*
D26*
%TO.N,Net-(U2-VOUT)*%
X122500000Y-115500000D02*
X122500000Y-118900000D01*
D28*
X122600000Y-115600000D02*
X122500000Y-115500000D01*
D26*
X122500000Y-118900000D02*
X122600000Y-119000000D01*
%TO.N,Net-(U2-C1+)*%
X120500000Y-115500000D02*
X120500000Y-119000000D01*
D28*
%TO.N,Net-(U2-C1-)*%
X118600000Y-115600000D02*
X118500000Y-115500000D01*
D26*
X118500000Y-115500000D02*
X118500000Y-118900000D01*
X118500000Y-118900000D02*
X118600000Y-119000000D01*
D29*
%TO.N,/SCL*%
X160500000Y-63500000D02*
X162500000Y-63500000D01*
D27*
X137299761Y-105640000D02*
X130500000Y-112439761D01*
X165140000Y-105640000D02*
X137299761Y-105640000D01*
X130500000Y-112439761D02*
X130500000Y-115500000D01*
%TO.N,/SDA*%
X128500000Y-111500000D02*
X128500000Y-115500000D01*
D29*
X160500000Y-66450000D02*
X162050000Y-66450000D01*
D27*
X165140000Y-103100000D02*
X136900000Y-103100000D01*
D29*
X162050000Y-66450000D02*
X162500000Y-66000000D01*
D27*
X136900000Y-103100000D02*
X128500000Y-111500000D01*
%TO.N,/ENC_B*%
X151500000Y-83500000D02*
X145100000Y-83500000D01*
X152220000Y-82780000D02*
X151500000Y-83500000D01*
X165140000Y-82780000D02*
X152220000Y-82780000D01*
X145100000Y-83500000D02*
X143100000Y-81500000D01*
%TO.N,/ENC_A*%
X161320000Y-85320000D02*
X165140000Y-85320000D01*
X156000000Y-83750000D02*
X159750000Y-83750000D01*
X154250000Y-85500000D02*
X156000000Y-83750000D01*
X159750000Y-83750000D02*
X161320000Y-85320000D01*
X138100000Y-81500000D02*
X142100000Y-85500000D01*
X142100000Y-85500000D02*
X154250000Y-85500000D01*
%TO.N,/ENC_SW*%
X152500000Y-64000000D02*
X157000000Y-68500000D01*
X162960000Y-67540000D02*
X165140000Y-67540000D01*
X145600000Y-64000000D02*
X152500000Y-64000000D01*
X162000000Y-68500000D02*
X162960000Y-67540000D01*
X157000000Y-68500000D02*
X162000000Y-68500000D01*
%TO.N,/MAX_SDO*%
X97450000Y-78668000D02*
X116802000Y-98020000D01*
X116802000Y-98020000D02*
X165140000Y-98020000D01*
%TO.N,/MAX_SCK*%
X116802000Y-100560000D02*
X165140000Y-100560000D01*
X94910000Y-78668000D02*
X116802000Y-100560000D01*
%TO.N,/MAX_DRDY*%
X107610000Y-78668000D02*
X116942000Y-88000000D01*
X156000000Y-89000000D02*
X160250000Y-89000000D01*
X155000000Y-88000000D02*
X156000000Y-89000000D01*
X161390000Y-87860000D02*
X165140000Y-87860000D01*
X160250000Y-89000000D02*
X161390000Y-87860000D01*
X116942000Y-88000000D02*
X155000000Y-88000000D01*
%TO.N,/MAX_SDI*%
X99990000Y-78668000D02*
X116802000Y-95480000D01*
X116802000Y-95480000D02*
X165140000Y-95480000D01*
%TO.N,/MAX_CS*%
X116802000Y-92940000D02*
X165140000Y-92940000D01*
X102530000Y-78668000D02*
X116802000Y-92940000D01*
%TO.N,/MAX_FAULT*%
X116802000Y-90400000D02*
X165140000Y-90400000D01*
X105070000Y-78668000D02*
X116802000Y-90400000D01*
%TO.N,/DISPLAY_RST*%
X165136320Y-108177280D02*
X137822720Y-108177280D01*
X132500000Y-113500000D02*
X132500000Y-115500000D01*
X137822720Y-108177280D02*
X132500000Y-113500000D01*
%TO.N,/LED_1*%
X126500000Y-74000000D02*
X147500000Y-74000000D01*
X147500000Y-74000000D02*
X148660000Y-75160000D01*
X148660000Y-75160000D02*
X165140000Y-75160000D01*
%TO.N,/LED_2*%
X150960000Y-76460000D02*
X126500000Y-76460000D01*
X152200000Y-77700000D02*
X150960000Y-76460000D01*
X165140000Y-77700000D02*
X152200000Y-77700000D01*
%TO.N,/LED_3*%
X126500000Y-79000000D02*
X151000000Y-79000000D01*
X151000000Y-79000000D02*
X152240000Y-80240000D01*
X152240000Y-80240000D02*
X165140000Y-80240000D01*
%TD*%
%TA.AperFunction,Conductor*%
%TO.N,GND*%
G36*
X115578727Y-59019454D02*
G01*
X115659509Y-59073430D01*
X115713485Y-59154212D01*
X115732439Y-59249500D01*
X115713485Y-59344788D01*
X115659509Y-59425570D01*
X106658510Y-68426570D01*
X106577728Y-68480546D01*
X106482440Y-68499500D01*
X90610849Y-68499500D01*
X90610829Y-68499499D01*
X90598541Y-68499499D01*
X90401460Y-68499499D01*
X90401455Y-68499499D01*
X90208168Y-68537946D01*
X90208165Y-68537947D01*
X90026090Y-68613365D01*
X90026085Y-68613368D01*
X89862222Y-68722857D01*
X89862219Y-68722860D01*
X86652220Y-71932859D01*
X86652218Y-71932861D01*
X86652217Y-71932860D01*
X86512862Y-72072216D01*
X86512860Y-72072219D01*
X86403369Y-72236084D01*
X86403365Y-72236091D01*
X86327949Y-72418164D01*
X86327947Y-72418169D01*
X86289500Y-72611454D01*
X86289500Y-77601447D01*
X86270546Y-77696735D01*
X86235217Y-77754390D01*
X86235899Y-77754886D01*
X86230149Y-77762799D01*
X86230148Y-77762801D01*
X86164392Y-77853307D01*
X86101592Y-77939744D01*
X86101588Y-77939751D01*
X86002304Y-78134606D01*
X86002295Y-78134627D01*
X85934716Y-78342618D01*
X85934711Y-78342637D01*
X85900501Y-78558633D01*
X85900500Y-78558641D01*
X85900500Y-78558644D01*
X85900500Y-78777356D01*
X85900500Y-78777359D01*
X85900501Y-78777366D01*
X85934711Y-78993362D01*
X85934716Y-78993381D01*
X85990996Y-79166598D01*
X86002299Y-79201383D01*
X86002303Y-79201391D01*
X86002304Y-79201393D01*
X86067833Y-79330001D01*
X86101593Y-79396257D01*
X86230145Y-79573195D01*
X86235899Y-79581114D01*
X86234886Y-79581849D01*
X86277312Y-79657605D01*
X86289500Y-79734552D01*
X86289500Y-88888545D01*
X86327947Y-89081830D01*
X86327949Y-89081835D01*
X86403365Y-89263908D01*
X86403366Y-89263911D01*
X86403368Y-89263914D01*
X86440404Y-89319342D01*
X86481015Y-89380122D01*
X86512861Y-89427782D01*
X86652218Y-89567139D01*
X86652220Y-89567140D01*
X89926570Y-92841490D01*
X89980546Y-92922272D01*
X89999500Y-93017560D01*
X89999500Y-101982440D01*
X89980546Y-102077728D01*
X89926570Y-102158509D01*
X89308511Y-102776569D01*
X89227729Y-102830546D01*
X89132441Y-102849500D01*
X88538336Y-102849500D01*
X88443048Y-102830546D01*
X88362266Y-102776570D01*
X88308290Y-102695788D01*
X88301523Y-102677445D01*
X88247897Y-102512400D01*
X88247890Y-102512383D01*
X88147820Y-102315986D01*
X88147816Y-102315981D01*
X88147815Y-102315978D01*
X88018242Y-102137635D01*
X87862365Y-101981758D01*
X87684022Y-101852185D01*
X87684019Y-101852183D01*
X87684013Y-101852179D01*
X87487616Y-101752109D01*
X87487609Y-101752106D01*
X87487606Y-101752105D01*
X87277951Y-101683985D01*
X87277945Y-101683984D01*
X87277938Y-101683982D01*
X87060232Y-101649501D01*
X87060225Y-101649500D01*
X87060222Y-101649500D01*
X86839778Y-101649500D01*
X86839775Y-101649500D01*
X86839767Y-101649501D01*
X86622061Y-101683982D01*
X86622054Y-101683984D01*
X86622052Y-101683984D01*
X86622049Y-101683985D01*
X86412394Y-101752105D01*
X86412392Y-101752105D01*
X86412392Y-101752106D01*
X86412383Y-101752109D01*
X86215986Y-101852179D01*
X86215979Y-101852184D01*
X86037633Y-101981759D01*
X85881759Y-102137633D01*
X85752184Y-102315979D01*
X85752179Y-102315986D01*
X85652109Y-102512383D01*
X85652105Y-102512392D01*
X85652105Y-102512394D01*
X85583985Y-102722049D01*
X85583984Y-102722052D01*
X85583984Y-102722054D01*
X85583982Y-102722061D01*
X85549501Y-102939767D01*
X85549500Y-102939782D01*
X85549500Y-104760217D01*
X85549501Y-104760232D01*
X85583982Y-104977938D01*
X85583984Y-104977945D01*
X85583985Y-104977951D01*
X85652105Y-105187606D01*
X85652106Y-105187607D01*
X85652109Y-105187616D01*
X85752179Y-105384013D01*
X85752183Y-105384019D01*
X85752185Y-105384022D01*
X85881758Y-105562365D01*
X86037635Y-105718242D01*
X86215978Y-105847815D01*
X86215981Y-105847816D01*
X86215986Y-105847820D01*
X86412383Y-105947890D01*
X86412386Y-105947891D01*
X86412394Y-105947895D01*
X86622049Y-106016015D01*
X86622060Y-106016016D01*
X86622061Y-106016017D01*
X86682640Y-106025611D01*
X86839778Y-106050500D01*
X86839782Y-106050500D01*
X87060218Y-106050500D01*
X87060222Y-106050500D01*
X87277951Y-106016015D01*
X87487606Y-105947895D01*
X87487616Y-105947890D01*
X87684013Y-105847820D01*
X87684015Y-105847818D01*
X87684022Y-105847815D01*
X87862365Y-105718242D01*
X88018242Y-105562365D01*
X88147815Y-105384022D01*
X88148692Y-105382302D01*
X88247890Y-105187616D01*
X88247894Y-105187607D01*
X88247895Y-105187606D01*
X88266970Y-105128897D01*
X88301523Y-105022555D01*
X88348995Y-104937788D01*
X88425292Y-104877640D01*
X88518799Y-104851268D01*
X88538336Y-104850500D01*
X89748539Y-104850500D01*
X89748540Y-104850500D01*
X89748541Y-104850500D01*
X89845188Y-104831275D01*
X89941836Y-104812051D01*
X89995165Y-104789961D01*
X90123914Y-104736632D01*
X90287782Y-104627139D01*
X90427139Y-104487782D01*
X90427139Y-104487780D01*
X90447639Y-104467281D01*
X90447640Y-104467278D01*
X91777139Y-103137782D01*
X91886632Y-102973914D01*
X91962051Y-102791835D01*
X91968749Y-102758165D01*
X92000500Y-102598540D01*
X92000500Y-102401460D01*
X92000500Y-92401459D01*
X91965016Y-92223072D01*
X91962051Y-92208164D01*
X91930811Y-92132745D01*
X91886632Y-92026086D01*
X91777139Y-91862218D01*
X91746634Y-91831713D01*
X91637782Y-91722860D01*
X91637782Y-91722861D01*
X88363430Y-88448509D01*
X88309454Y-88367727D01*
X88290500Y-88272439D01*
X88290500Y-86181912D01*
X91499500Y-86181912D01*
X91499500Y-86418087D01*
X91499501Y-86418103D01*
X91536446Y-86651364D01*
X91536447Y-86651368D01*
X91553238Y-86703045D01*
X91597778Y-86840127D01*
X91609432Y-86875992D01*
X91683104Y-87020581D01*
X91716659Y-87086437D01*
X91855478Y-87277504D01*
X91855480Y-87277506D01*
X91855483Y-87277510D01*
X92022490Y-87444517D01*
X92022493Y-87444519D01*
X92022495Y-87444521D01*
X92213562Y-87583340D01*
X92213564Y-87583341D01*
X92213567Y-87583343D01*
X92424008Y-87690568D01*
X92648632Y-87763553D01*
X92881908Y-87800500D01*
X92881912Y-87800500D01*
X93118088Y-87800500D01*
X93118092Y-87800500D01*
X93351368Y-87763553D01*
X93575992Y-87690568D01*
X93786433Y-87583343D01*
X93977510Y-87444517D01*
X94144517Y-87277510D01*
X94283343Y-87086433D01*
X94390568Y-86875992D01*
X94463553Y-86651368D01*
X94500500Y-86418092D01*
X94500500Y-86181908D01*
X94463553Y-85948632D01*
X94390568Y-85724008D01*
X94283343Y-85513567D01*
X94283341Y-85513564D01*
X94283340Y-85513562D01*
X94144521Y-85322495D01*
X94144519Y-85322493D01*
X94144517Y-85322490D01*
X93977510Y-85155483D01*
X93977506Y-85155480D01*
X93977504Y-85155478D01*
X93786437Y-85016659D01*
X93772747Y-85009683D01*
X93575992Y-84909432D01*
X93575989Y-84909431D01*
X93575987Y-84909430D01*
X93451079Y-84868845D01*
X93351368Y-84836447D01*
X93351366Y-84836446D01*
X93351364Y-84836446D01*
X93118103Y-84799501D01*
X93118094Y-84799500D01*
X93118092Y-84799500D01*
X92881908Y-84799500D01*
X92881905Y-84799500D01*
X92881896Y-84799501D01*
X92648635Y-84836446D01*
X92424012Y-84909430D01*
X92213562Y-85016659D01*
X92022495Y-85155478D01*
X91855478Y-85322495D01*
X91716659Y-85513562D01*
X91609430Y-85724012D01*
X91536446Y-85948635D01*
X91499501Y-86181896D01*
X91499500Y-86181912D01*
X88290500Y-86181912D01*
X88290500Y-79734552D01*
X88296744Y-79703160D01*
X88298690Y-79671217D01*
X88305802Y-79657622D01*
X88309454Y-79639264D01*
X88341257Y-79583884D01*
X88347876Y-79575174D01*
X88349852Y-79573199D01*
X88360141Y-79559036D01*
X88361757Y-79556911D01*
X88396151Y-79526466D01*
X88429897Y-79495272D01*
X88432461Y-79494326D01*
X88434506Y-79492516D01*
X88477935Y-79477549D01*
X88521047Y-79461645D01*
X88523776Y-79461752D01*
X88526360Y-79460862D01*
X88572219Y-79463655D01*
X88618127Y-79465459D01*
X88620608Y-79466602D01*
X88623335Y-79466769D01*
X88664630Y-79486896D01*
X88706358Y-79506133D01*
X88708508Y-79508283D01*
X88710668Y-79509336D01*
X88719201Y-79518976D01*
X88761444Y-79561219D01*
X88770148Y-79573199D01*
X88924801Y-79727852D01*
X89101743Y-79856407D01*
X89296617Y-79955701D01*
X89504625Y-80023286D01*
X89504636Y-80023287D01*
X89504637Y-80023288D01*
X89531780Y-80027587D01*
X89720644Y-80057500D01*
X89720648Y-80057500D01*
X89939352Y-80057500D01*
X89939356Y-80057500D01*
X90155375Y-80023286D01*
X90363383Y-79955701D01*
X90558257Y-79856407D01*
X90735199Y-79727852D01*
X90889852Y-79573199D01*
X90898863Y-79560795D01*
X90970203Y-79494848D01*
X91061352Y-79461219D01*
X91158432Y-79465032D01*
X91246664Y-79505705D01*
X91301753Y-79560793D01*
X91310526Y-79572868D01*
X91465130Y-79727472D01*
X91642005Y-79855979D01*
X91836798Y-79955231D01*
X91836816Y-79955239D01*
X92044733Y-80022795D01*
X92120000Y-80034716D01*
X92120000Y-79101012D01*
X92177007Y-79133925D01*
X92304174Y-79168000D01*
X92435826Y-79168000D01*
X92562993Y-79133925D01*
X92620000Y-79101012D01*
X92620000Y-80034716D01*
X92695266Y-80022795D01*
X92903183Y-79955239D01*
X92903201Y-79955231D01*
X93097994Y-79855979D01*
X93274869Y-79727472D01*
X93429472Y-79572869D01*
X93438241Y-79560800D01*
X93509583Y-79494849D01*
X93600732Y-79461220D01*
X93697812Y-79465031D01*
X93786043Y-79505704D01*
X93841133Y-79560792D01*
X93850144Y-79573195D01*
X93850148Y-79573199D01*
X94004801Y-79727852D01*
X94181743Y-79856407D01*
X94376617Y-79955701D01*
X94584625Y-80023286D01*
X94584636Y-80023287D01*
X94584637Y-80023288D01*
X94611780Y-80027587D01*
X94800644Y-80057500D01*
X94800648Y-80057500D01*
X95019352Y-80057500D01*
X95019356Y-80057500D01*
X95082909Y-80047434D01*
X95179985Y-80051247D01*
X95268216Y-80091921D01*
X95297930Y-80117298D01*
X116323584Y-101142951D01*
X116446505Y-101225084D01*
X116583087Y-101281658D01*
X116728080Y-101310499D01*
X116728081Y-101310500D01*
X116728082Y-101310500D01*
X116875917Y-101310500D01*
X163831019Y-101310500D01*
X163926307Y-101329454D01*
X164007085Y-101383427D01*
X164023072Y-101399414D01*
X164023075Y-101399416D01*
X164023077Y-101399418D01*
X164163207Y-101501229D01*
X164163209Y-101501230D01*
X164163212Y-101501232D01*
X164317555Y-101579873D01*
X164336846Y-101586141D01*
X164358530Y-101593187D01*
X164443298Y-101640659D01*
X164503446Y-101716957D01*
X164529817Y-101810464D01*
X164518398Y-101906945D01*
X164470926Y-101991713D01*
X164394628Y-102051861D01*
X164358530Y-102066813D01*
X164317562Y-102080124D01*
X164317556Y-102080126D01*
X164163207Y-102158770D01*
X164023077Y-102260581D01*
X164023072Y-102260585D01*
X164023072Y-102260586D01*
X164007085Y-102276572D01*
X163926307Y-102330546D01*
X163831019Y-102349500D01*
X136826079Y-102349500D01*
X136681088Y-102378341D01*
X136544507Y-102434915D01*
X136544502Y-102434917D01*
X136495271Y-102467811D01*
X136495270Y-102467813D01*
X136458427Y-102492430D01*
X136421582Y-102517049D01*
X127917049Y-111021582D01*
X127867812Y-111095272D01*
X127834917Y-111144502D01*
X127834915Y-111144507D01*
X127778341Y-111281088D01*
X127749500Y-111426079D01*
X127749500Y-114310891D01*
X127748377Y-114316531D01*
X127749242Y-114322216D01*
X127738939Y-114363982D01*
X127730546Y-114406179D01*
X127727351Y-114410960D01*
X127725974Y-114416544D01*
X127713638Y-114431483D01*
X127676570Y-114486961D01*
X127668379Y-114494787D01*
X127658106Y-114504164D01*
X127652781Y-114508034D01*
X127641385Y-114519429D01*
X127637183Y-114523266D01*
X127600353Y-114545520D01*
X127564584Y-114569419D01*
X127558948Y-114570539D01*
X127554030Y-114573512D01*
X127511492Y-114579977D01*
X127469295Y-114588370D01*
X127463658Y-114587248D01*
X127457979Y-114588112D01*
X127416212Y-114577809D01*
X127374008Y-114569413D01*
X127369230Y-114566220D01*
X127363651Y-114564844D01*
X127328997Y-114539335D01*
X127293228Y-114515433D01*
X127290036Y-114510655D01*
X127285408Y-114507249D01*
X127263153Y-114470419D01*
X127239255Y-114434650D01*
X127237964Y-114429274D01*
X127181350Y-114388140D01*
X126999025Y-114295242D01*
X126999019Y-114295240D01*
X126804413Y-114232009D01*
X126602323Y-114200001D01*
X126602308Y-114200000D01*
X126397692Y-114200000D01*
X126397676Y-114200001D01*
X126195586Y-114232009D01*
X126000980Y-114295240D01*
X126000974Y-114295242D01*
X125818647Y-114388142D01*
X125758318Y-114431973D01*
X125752552Y-114452417D01*
X125692403Y-114528713D01*
X125607635Y-114576184D01*
X125511153Y-114587601D01*
X125417646Y-114561227D01*
X125354624Y-114515439D01*
X125347220Y-114508035D01*
X125346138Y-114507249D01*
X125181610Y-114387713D01*
X125181609Y-114387712D01*
X125181607Y-114387711D01*
X124999224Y-114294782D01*
X124999214Y-114294778D01*
X124804531Y-114231522D01*
X124602361Y-114199500D01*
X124602352Y-114199500D01*
X124397648Y-114199500D01*
X124397638Y-114199500D01*
X124195468Y-114231522D01*
X124000785Y-114294778D01*
X124000775Y-114294782D01*
X123818392Y-114387711D01*
X123758145Y-114431483D01*
X123652781Y-114508034D01*
X123652779Y-114508035D01*
X123646358Y-114512701D01*
X123558127Y-114553375D01*
X123461047Y-114557189D01*
X123369897Y-114523562D01*
X123353642Y-114512701D01*
X123347220Y-114508035D01*
X123347219Y-114508034D01*
X123181610Y-114387713D01*
X123181609Y-114387712D01*
X123181607Y-114387711D01*
X122999224Y-114294782D01*
X122999214Y-114294778D01*
X122804531Y-114231522D01*
X122602361Y-114199500D01*
X122602352Y-114199500D01*
X122397648Y-114199500D01*
X122397638Y-114199500D01*
X122195468Y-114231522D01*
X122000785Y-114294778D01*
X122000775Y-114294782D01*
X121818392Y-114387711D01*
X121758145Y-114431483D01*
X121652781Y-114508034D01*
X121652779Y-114508035D01*
X121646358Y-114512701D01*
X121558127Y-114553375D01*
X121461047Y-114557189D01*
X121369897Y-114523562D01*
X121353642Y-114512701D01*
X121347220Y-114508035D01*
X121347219Y-114508034D01*
X121181610Y-114387713D01*
X121181609Y-114387712D01*
X121181607Y-114387711D01*
X120999224Y-114294782D01*
X120999214Y-114294778D01*
X120804531Y-114231522D01*
X120602361Y-114199500D01*
X120602352Y-114199500D01*
X120397648Y-114199500D01*
X120397638Y-114199500D01*
X120195468Y-114231522D01*
X120000785Y-114294778D01*
X120000775Y-114294782D01*
X119818392Y-114387711D01*
X119758145Y-114431483D01*
X119652781Y-114508034D01*
X119652779Y-114508035D01*
X119646358Y-114512701D01*
X119558127Y-114553375D01*
X119461047Y-114557189D01*
X119369897Y-114523562D01*
X119353642Y-114512701D01*
X119347220Y-114508035D01*
X119347219Y-114508034D01*
X119181610Y-114387713D01*
X119181609Y-114387712D01*
X119181607Y-114387711D01*
X118999224Y-114294782D01*
X118999214Y-114294778D01*
X118804531Y-114231522D01*
X118602361Y-114199500D01*
X118602352Y-114199500D01*
X118397648Y-114199500D01*
X118397638Y-114199500D01*
X118195468Y-114231522D01*
X118000785Y-114294778D01*
X118000775Y-114294782D01*
X117818392Y-114387711D01*
X117652779Y-114508035D01*
X117508035Y-114652779D01*
X117387711Y-114818392D01*
X117294782Y-115000775D01*
X117294778Y-115000785D01*
X117231522Y-115195468D01*
X117199500Y-115397638D01*
X117199500Y-115602361D01*
X117231522Y-115804531D01*
X117285330Y-115970137D01*
X117294780Y-115999219D01*
X117295178Y-116000000D01*
X117387715Y-116181614D01*
X117451944Y-116270016D01*
X117492620Y-116358247D01*
X117499500Y-116416376D01*
X117499500Y-118998545D01*
X117537948Y-119191832D01*
X117537949Y-119191837D01*
X117580547Y-119294679D01*
X117599500Y-119389963D01*
X117599500Y-119525005D01*
X117610001Y-119627800D01*
X117665185Y-119794332D01*
X117751896Y-119934915D01*
X117757288Y-119943656D01*
X117881344Y-120067712D01*
X118030666Y-120159814D01*
X118030669Y-120159815D01*
X118030667Y-120159815D01*
X118194310Y-120214040D01*
X118197203Y-120214999D01*
X118299991Y-120225500D01*
X118900008Y-120225499D01*
X119002797Y-120214999D01*
X119169334Y-120159814D01*
X119318656Y-120067712D01*
X119373933Y-120012434D01*
X119454712Y-119958461D01*
X119550000Y-119939507D01*
X119645288Y-119958461D01*
X119726066Y-120012434D01*
X119781344Y-120067712D01*
X119930666Y-120159814D01*
X119930669Y-120159815D01*
X119930667Y-120159815D01*
X120094310Y-120214040D01*
X120097203Y-120214999D01*
X120199991Y-120225500D01*
X120800008Y-120225499D01*
X120902797Y-120214999D01*
X121069334Y-120159814D01*
X121218656Y-120067712D01*
X121342712Y-119943656D01*
X121342716Y-119943650D01*
X121351708Y-119932279D01*
X121353978Y-119934073D01*
X121404209Y-119880041D01*
X121492553Y-119839614D01*
X121589644Y-119836073D01*
X121680699Y-119869956D01*
X121747993Y-119932515D01*
X121748292Y-119932279D01*
X121749825Y-119934218D01*
X121751856Y-119936106D01*
X121754791Y-119940499D01*
X121757283Y-119943650D01*
X121757286Y-119943653D01*
X121757288Y-119943656D01*
X121881344Y-120067712D01*
X122030666Y-120159814D01*
X122030669Y-120159815D01*
X122030667Y-120159815D01*
X122194310Y-120214040D01*
X122197203Y-120214999D01*
X122299991Y-120225500D01*
X122900008Y-120225499D01*
X123002797Y-120214999D01*
X123169334Y-120159814D01*
X123318656Y-120067712D01*
X123373933Y-120012434D01*
X123454712Y-119958461D01*
X123550000Y-119939507D01*
X123645288Y-119958461D01*
X123726066Y-120012434D01*
X123781344Y-120067712D01*
X123930666Y-120159814D01*
X123930669Y-120159815D01*
X123930667Y-120159815D01*
X124094310Y-120214040D01*
X124097203Y-120214999D01*
X124199991Y-120225500D01*
X124800008Y-120225499D01*
X124902797Y-120214999D01*
X125069334Y-120159814D01*
X125218656Y-120067712D01*
X125218658Y-120067710D01*
X125230031Y-120058718D01*
X125231733Y-120060870D01*
X125293719Y-120019454D01*
X125389007Y-120000500D01*
X152598541Y-120000500D01*
X152721750Y-119975992D01*
X152791836Y-119962051D01*
X152845165Y-119939961D01*
X152973914Y-119886632D01*
X153137782Y-119777139D01*
X153277139Y-119637782D01*
X153277140Y-119637779D01*
X153633007Y-119281912D01*
X156499500Y-119281912D01*
X156499500Y-119518087D01*
X156499501Y-119518103D01*
X156536446Y-119751364D01*
X156603735Y-119958461D01*
X156609432Y-119975992D01*
X156656165Y-120067710D01*
X156716659Y-120186437D01*
X156855478Y-120377504D01*
X156855480Y-120377506D01*
X156855483Y-120377510D01*
X157022490Y-120544517D01*
X157022493Y-120544519D01*
X157022495Y-120544521D01*
X157213562Y-120683340D01*
X157213564Y-120683341D01*
X157213567Y-120683343D01*
X157424008Y-120790568D01*
X157648632Y-120863553D01*
X157881908Y-120900500D01*
X157881912Y-120900500D01*
X158118088Y-120900500D01*
X158118092Y-120900500D01*
X158351368Y-120863553D01*
X158575992Y-120790568D01*
X158786433Y-120683343D01*
X158977510Y-120544517D01*
X159144517Y-120377510D01*
X159283343Y-120186433D01*
X159390568Y-119975992D01*
X159463553Y-119751368D01*
X159500500Y-119518092D01*
X159500500Y-119281908D01*
X159463553Y-119048632D01*
X159390568Y-118824008D01*
X159283343Y-118613567D01*
X159283341Y-118613564D01*
X159283340Y-118613562D01*
X159144521Y-118422495D01*
X159144519Y-118422493D01*
X159144517Y-118422490D01*
X158977510Y-118255483D01*
X158977506Y-118255480D01*
X158977504Y-118255478D01*
X158786437Y-118116659D01*
X158772747Y-118109683D01*
X158575992Y-118009432D01*
X158575989Y-118009431D01*
X158575987Y-118009430D01*
X158451079Y-117968845D01*
X158351368Y-117936447D01*
X158351366Y-117936446D01*
X158351364Y-117936446D01*
X158118103Y-117899501D01*
X158118094Y-117899500D01*
X158118092Y-117899500D01*
X157881908Y-117899500D01*
X157881905Y-117899500D01*
X157881896Y-117899501D01*
X157648635Y-117936446D01*
X157424012Y-118009430D01*
X157213562Y-118116659D01*
X157022495Y-118255478D01*
X156855478Y-118422495D01*
X156716659Y-118613562D01*
X156609430Y-118824012D01*
X156536446Y-119048635D01*
X156499501Y-119281896D01*
X156499500Y-119281912D01*
X153633007Y-119281912D01*
X155841491Y-117073430D01*
X155922273Y-117019454D01*
X156017561Y-117000500D01*
X169098539Y-117000500D01*
X169098540Y-117000500D01*
X169098541Y-117000500D01*
X169195188Y-116981275D01*
X169291836Y-116962051D01*
X169345165Y-116939961D01*
X169473914Y-116886632D01*
X169637782Y-116777139D01*
X169777139Y-116637782D01*
X169777140Y-116637779D01*
X173277139Y-113137782D01*
X173299147Y-113104845D01*
X173386632Y-112973914D01*
X173430811Y-112867255D01*
X173462051Y-112791836D01*
X173500500Y-112598541D01*
X173500500Y-112401460D01*
X173500500Y-64901459D01*
X173490889Y-64853141D01*
X173485391Y-64825498D01*
X173485391Y-64825497D01*
X173470472Y-64750500D01*
X173462051Y-64708164D01*
X173406252Y-64573453D01*
X173386632Y-64526086D01*
X173277139Y-64362218D01*
X173215420Y-64300499D01*
X173137782Y-64222860D01*
X173137782Y-64222861D01*
X173137781Y-64222860D01*
X170737140Y-61822220D01*
X170737139Y-61822218D01*
X170597782Y-61682861D01*
X170433914Y-61573368D01*
X170433912Y-61573367D01*
X170316588Y-61524770D01*
X170316585Y-61524769D01*
X170302097Y-61518768D01*
X170251836Y-61497949D01*
X170138047Y-61475315D01*
X170129430Y-61473601D01*
X170129423Y-61473599D01*
X170058546Y-61459500D01*
X170058541Y-61459500D01*
X166433410Y-61459500D01*
X166338122Y-61440546D01*
X166257340Y-61386570D01*
X166203364Y-61305788D01*
X166184410Y-61210500D01*
X166203364Y-61115212D01*
X166257340Y-61034430D01*
X166338122Y-60980454D01*
X166346382Y-60977203D01*
X166382331Y-60963796D01*
X166497546Y-60877546D01*
X166583796Y-60762331D01*
X166634091Y-60627483D01*
X166640500Y-60567873D01*
X166640499Y-59272128D01*
X166640498Y-59272122D01*
X166640142Y-59265476D01*
X166641884Y-59265382D01*
X166649594Y-59179325D01*
X166694634Y-59093241D01*
X166769189Y-59030946D01*
X166861908Y-59001924D01*
X166888501Y-59000500D01*
X186427619Y-59000500D01*
X186522907Y-59019454D01*
X186603689Y-59073430D01*
X186657665Y-59154212D01*
X186676619Y-59249500D01*
X186657665Y-59344788D01*
X186649480Y-59362544D01*
X186580588Y-59497751D01*
X186527085Y-59662415D01*
X186525884Y-59670000D01*
X187684314Y-59670000D01*
X187679920Y-59674394D01*
X187627259Y-59765606D01*
X187600000Y-59867339D01*
X187600000Y-59972661D01*
X187627259Y-60074394D01*
X187679920Y-60165606D01*
X187684314Y-60170000D01*
X186525885Y-60170000D01*
X186527085Y-60177584D01*
X186580588Y-60342248D01*
X186580592Y-60342258D01*
X186659191Y-60496516D01*
X186659195Y-60496523D01*
X186760968Y-60636603D01*
X186883396Y-60759031D01*
X187023476Y-60860804D01*
X187023483Y-60860808D01*
X187177741Y-60939407D01*
X187177751Y-60939411D01*
X187219338Y-60952924D01*
X187304105Y-61000396D01*
X187364253Y-61076693D01*
X187390625Y-61170200D01*
X187379206Y-61266682D01*
X187331734Y-61351449D01*
X187255437Y-61411597D01*
X187219340Y-61426549D01*
X187177567Y-61440122D01*
X187177556Y-61440126D01*
X187023207Y-61518770D01*
X186883077Y-61620581D01*
X186760581Y-61743077D01*
X186658770Y-61883207D01*
X186580126Y-62037556D01*
X186580124Y-62037562D01*
X186526597Y-62202302D01*
X186499501Y-62373378D01*
X186499500Y-62373393D01*
X186499500Y-62546606D01*
X186499501Y-62546621D01*
X186525003Y-62707630D01*
X186526598Y-62717701D01*
X186533206Y-62738039D01*
X186580124Y-62882437D01*
X186580126Y-62882443D01*
X186658770Y-63036792D01*
X186760581Y-63176922D01*
X186760583Y-63176924D01*
X186760586Y-63176928D01*
X186883072Y-63299414D01*
X186883075Y-63299416D01*
X186883077Y-63299418D01*
X187023207Y-63401229D01*
X187023209Y-63401230D01*
X187023212Y-63401232D01*
X187177555Y-63479873D01*
X187196846Y-63486141D01*
X187218530Y-63493187D01*
X187303298Y-63540659D01*
X187363446Y-63616957D01*
X187389817Y-63710464D01*
X187378398Y-63806945D01*
X187330926Y-63891713D01*
X187254628Y-63951861D01*
X187218530Y-63966813D01*
X187177562Y-63980124D01*
X187177556Y-63980126D01*
X187023207Y-64058770D01*
X186883077Y-64160581D01*
X186760581Y-64283077D01*
X186658770Y-64423207D01*
X186580126Y-64577556D01*
X186580124Y-64577562D01*
X186526597Y-64742302D01*
X186499501Y-64913378D01*
X186499500Y-64913393D01*
X186499500Y-65086606D01*
X186499501Y-65086621D01*
X186526597Y-65257697D01*
X186526598Y-65257701D01*
X186527843Y-65261533D01*
X186580124Y-65422437D01*
X186580126Y-65422443D01*
X186658770Y-65576792D01*
X186760581Y-65716922D01*
X186760583Y-65716924D01*
X186760586Y-65716928D01*
X186883072Y-65839414D01*
X186883075Y-65839416D01*
X186883077Y-65839418D01*
X187023207Y-65941229D01*
X187023209Y-65941230D01*
X187023212Y-65941232D01*
X187177555Y-66019873D01*
X187196846Y-66026141D01*
X187218530Y-66033187D01*
X187303298Y-66080659D01*
X187363446Y-66156957D01*
X187389817Y-66250464D01*
X187378398Y-66346945D01*
X187330926Y-66431713D01*
X187254628Y-66491861D01*
X187218530Y-66506813D01*
X187177562Y-66520124D01*
X187177556Y-66520126D01*
X187023207Y-66598770D01*
X186883077Y-66700581D01*
X186760581Y-66823077D01*
X186658770Y-66963207D01*
X186580126Y-67117556D01*
X186580124Y-67117562D01*
X186526597Y-67282302D01*
X186499501Y-67453378D01*
X186499500Y-67453393D01*
X186499500Y-67626606D01*
X186499501Y-67626621D01*
X186526597Y-67797697D01*
X186580124Y-67962437D01*
X186580126Y-67962443D01*
X186658770Y-68116792D01*
X186760581Y-68256922D01*
X186760583Y-68256924D01*
X186760586Y-68256928D01*
X186883072Y-68379414D01*
X186883075Y-68379416D01*
X186883077Y-68379418D01*
X187023207Y-68481229D01*
X187023209Y-68481230D01*
X187023212Y-68481232D01*
X187177555Y-68559873D01*
X187196846Y-68566141D01*
X187218530Y-68573187D01*
X187303298Y-68620659D01*
X187363446Y-68696957D01*
X187389817Y-68790464D01*
X187378398Y-68886945D01*
X187330926Y-68971713D01*
X187254628Y-69031861D01*
X187218530Y-69046813D01*
X187177562Y-69060124D01*
X187177556Y-69060126D01*
X187023207Y-69138770D01*
X186883077Y-69240581D01*
X186760581Y-69363077D01*
X186658770Y-69503207D01*
X186580126Y-69657556D01*
X186580124Y-69657562D01*
X186526597Y-69822302D01*
X186499501Y-69993378D01*
X186499500Y-69993393D01*
X186499500Y-70166606D01*
X186499501Y-70166621D01*
X186526597Y-70337697D01*
X186580124Y-70502437D01*
X186580126Y-70502443D01*
X186658770Y-70656792D01*
X186760581Y-70796922D01*
X186760583Y-70796924D01*
X186760586Y-70796928D01*
X186883072Y-70919414D01*
X186883075Y-70919416D01*
X186883077Y-70919418D01*
X187023207Y-71021229D01*
X187023209Y-71021230D01*
X187023212Y-71021232D01*
X187177555Y-71099873D01*
X187196846Y-71106141D01*
X187218530Y-71113187D01*
X187303298Y-71160659D01*
X187363446Y-71236957D01*
X187389817Y-71330464D01*
X187378398Y-71426945D01*
X187330926Y-71511713D01*
X187254628Y-71571861D01*
X187218530Y-71586813D01*
X187177562Y-71600124D01*
X187177556Y-71600126D01*
X187023207Y-71678770D01*
X186883077Y-71780581D01*
X186760581Y-71903077D01*
X186658770Y-72043207D01*
X186580126Y-72197556D01*
X186580124Y-72197562D01*
X186526597Y-72362302D01*
X186499501Y-72533378D01*
X186499500Y-72533393D01*
X186499500Y-72706606D01*
X186499501Y-72706621D01*
X186526597Y-72877697D01*
X186580124Y-73042437D01*
X186580126Y-73042443D01*
X186658770Y-73196792D01*
X186760581Y-73336922D01*
X186760583Y-73336924D01*
X186760586Y-73336928D01*
X186883072Y-73459414D01*
X186883075Y-73459416D01*
X186883077Y-73459418D01*
X187023207Y-73561229D01*
X187023209Y-73561230D01*
X187023212Y-73561232D01*
X187177555Y-73639873D01*
X187196846Y-73646141D01*
X187218530Y-73653187D01*
X187303298Y-73700659D01*
X187363446Y-73776957D01*
X187389817Y-73870464D01*
X187378398Y-73966945D01*
X187330926Y-74051713D01*
X187254628Y-74111861D01*
X187218530Y-74126813D01*
X187177562Y-74140124D01*
X187177556Y-74140126D01*
X187023207Y-74218770D01*
X186883077Y-74320581D01*
X186760581Y-74443077D01*
X186658770Y-74583207D01*
X186580126Y-74737556D01*
X186580124Y-74737562D01*
X186526597Y-74902302D01*
X186499501Y-75073378D01*
X186499500Y-75073393D01*
X186499500Y-75246606D01*
X186499501Y-75246621D01*
X186526597Y-75417697D01*
X186526598Y-75417701D01*
X186539461Y-75457288D01*
X186580124Y-75582437D01*
X186580126Y-75582443D01*
X186658770Y-75736792D01*
X186760581Y-75876922D01*
X186760583Y-75876924D01*
X186760586Y-75876928D01*
X186883072Y-75999414D01*
X186883075Y-75999416D01*
X186883077Y-75999418D01*
X187023207Y-76101229D01*
X187023209Y-76101230D01*
X187023212Y-76101232D01*
X187177555Y-76179873D01*
X187196846Y-76186141D01*
X187218530Y-76193187D01*
X187303298Y-76240659D01*
X187363446Y-76316957D01*
X187389817Y-76410464D01*
X187378398Y-76506945D01*
X187330926Y-76591713D01*
X187254628Y-76651861D01*
X187218530Y-76666813D01*
X187177562Y-76680124D01*
X187177556Y-76680126D01*
X187023207Y-76758770D01*
X186883077Y-76860581D01*
X186760581Y-76983077D01*
X186658770Y-77123207D01*
X186580126Y-77277556D01*
X186580124Y-77277562D01*
X186526597Y-77442302D01*
X186499501Y-77613378D01*
X186499500Y-77613393D01*
X186499500Y-77786606D01*
X186499501Y-77786621D01*
X186526597Y-77957697D01*
X186580124Y-78122437D01*
X186580126Y-78122443D01*
X186658770Y-78276792D01*
X186760581Y-78416922D01*
X186760583Y-78416924D01*
X186760586Y-78416928D01*
X186883072Y-78539414D01*
X186883075Y-78539416D01*
X186883077Y-78539418D01*
X187023207Y-78641229D01*
X187023209Y-78641230D01*
X187023212Y-78641232D01*
X187177555Y-78719873D01*
X187196846Y-78726141D01*
X187218530Y-78733187D01*
X187303298Y-78780659D01*
X187363446Y-78856957D01*
X187389817Y-78950464D01*
X187378398Y-79046945D01*
X187330926Y-79131713D01*
X187254628Y-79191861D01*
X187218530Y-79206813D01*
X187177562Y-79220124D01*
X187177556Y-79220126D01*
X187023207Y-79298770D01*
X186883077Y-79400581D01*
X186760581Y-79523077D01*
X186658770Y-79663207D01*
X186580126Y-79817556D01*
X186580124Y-79817562D01*
X186526597Y-79982302D01*
X186499501Y-80153378D01*
X186499500Y-80153393D01*
X186499500Y-80326606D01*
X186499501Y-80326621D01*
X186526597Y-80497697D01*
X186580124Y-80662437D01*
X186580126Y-80662443D01*
X186658770Y-80816792D01*
X186760581Y-80956922D01*
X186760583Y-80956924D01*
X186760586Y-80956928D01*
X186883072Y-81079414D01*
X186883075Y-81079416D01*
X186883077Y-81079418D01*
X187023207Y-81181229D01*
X187023209Y-81181230D01*
X187023212Y-81181232D01*
X187177555Y-81259873D01*
X187196846Y-81266141D01*
X187218530Y-81273187D01*
X187303298Y-81320659D01*
X187363446Y-81396957D01*
X187389817Y-81490464D01*
X187378398Y-81586945D01*
X187330926Y-81671713D01*
X187254628Y-81731861D01*
X187218530Y-81746813D01*
X187177562Y-81760124D01*
X187177556Y-81760126D01*
X187023207Y-81838770D01*
X186883077Y-81940581D01*
X186760581Y-82063077D01*
X186658770Y-82203207D01*
X186580126Y-82357556D01*
X186580124Y-82357562D01*
X186526597Y-82522302D01*
X186499501Y-82693378D01*
X186499500Y-82693393D01*
X186499500Y-82866606D01*
X186499501Y-82866621D01*
X186526597Y-83037697D01*
X186580124Y-83202437D01*
X186580126Y-83202443D01*
X186658770Y-83356792D01*
X186760581Y-83496922D01*
X186760583Y-83496924D01*
X186760586Y-83496928D01*
X186883072Y-83619414D01*
X186883075Y-83619416D01*
X186883077Y-83619418D01*
X187023207Y-83721229D01*
X187023209Y-83721230D01*
X187023212Y-83721232D01*
X187177555Y-83799873D01*
X187196846Y-83806141D01*
X187218530Y-83813187D01*
X187303298Y-83860659D01*
X187363446Y-83936957D01*
X187389817Y-84030464D01*
X187378398Y-84126945D01*
X187330926Y-84211713D01*
X187254628Y-84271861D01*
X187218530Y-84286813D01*
X187177562Y-84300124D01*
X187177556Y-84300126D01*
X187023207Y-84378770D01*
X186883077Y-84480581D01*
X186760581Y-84603077D01*
X186658770Y-84743207D01*
X186580126Y-84897556D01*
X186580124Y-84897562D01*
X186526597Y-85062302D01*
X186499501Y-85233378D01*
X186499500Y-85233393D01*
X186499500Y-85406606D01*
X186499501Y-85406621D01*
X186526597Y-85577697D01*
X186580124Y-85742437D01*
X186580126Y-85742443D01*
X186658770Y-85896792D01*
X186760581Y-86036922D01*
X186760583Y-86036924D01*
X186760586Y-86036928D01*
X186883072Y-86159414D01*
X186883075Y-86159416D01*
X186883077Y-86159418D01*
X187023207Y-86261229D01*
X187023209Y-86261230D01*
X187023212Y-86261232D01*
X187177555Y-86339873D01*
X187196846Y-86346141D01*
X187218530Y-86353187D01*
X187303298Y-86400659D01*
X187363446Y-86476957D01*
X187389817Y-86570464D01*
X187378398Y-86666945D01*
X187330926Y-86751713D01*
X187254628Y-86811861D01*
X187218530Y-86826813D01*
X187177562Y-86840124D01*
X187177556Y-86840126D01*
X187023207Y-86918770D01*
X186883077Y-87020581D01*
X186760581Y-87143077D01*
X186658770Y-87283207D01*
X186580126Y-87437556D01*
X186580124Y-87437562D01*
X186526597Y-87602302D01*
X186499501Y-87773378D01*
X186499500Y-87773393D01*
X186499500Y-87946606D01*
X186499501Y-87946621D01*
X186526597Y-88117697D01*
X186580124Y-88282437D01*
X186580126Y-88282443D01*
X186658770Y-88436792D01*
X186760581Y-88576922D01*
X186760583Y-88576924D01*
X186760586Y-88576928D01*
X186883072Y-88699414D01*
X186883075Y-88699416D01*
X186883077Y-88699418D01*
X187023207Y-88801229D01*
X187023209Y-88801230D01*
X187023212Y-88801232D01*
X187177555Y-88879873D01*
X187196846Y-88886141D01*
X187218530Y-88893187D01*
X187303298Y-88940659D01*
X187363446Y-89016957D01*
X187389817Y-89110464D01*
X187378398Y-89206945D01*
X187330926Y-89291713D01*
X187254628Y-89351861D01*
X187218530Y-89366813D01*
X187177562Y-89380124D01*
X187177556Y-89380126D01*
X187023207Y-89458770D01*
X186883077Y-89560581D01*
X186760581Y-89683077D01*
X186658770Y-89823207D01*
X186580126Y-89977556D01*
X186580124Y-89977562D01*
X186526597Y-90142302D01*
X186499501Y-90313378D01*
X186499500Y-90313393D01*
X186499500Y-90486606D01*
X186499501Y-90486621D01*
X186526597Y-90657697D01*
X186580124Y-90822437D01*
X186580126Y-90822443D01*
X186658770Y-90976792D01*
X186760581Y-91116922D01*
X186760583Y-91116924D01*
X186760586Y-91116928D01*
X186883072Y-91239414D01*
X186883075Y-91239416D01*
X186883077Y-91239418D01*
X187023207Y-91341229D01*
X187023209Y-91341230D01*
X187023212Y-91341232D01*
X187177555Y-91419873D01*
X187196846Y-91426141D01*
X187218530Y-91433187D01*
X187303298Y-91480659D01*
X187363446Y-91556957D01*
X187389817Y-91650464D01*
X187378398Y-91746945D01*
X187330926Y-91831713D01*
X187254628Y-91891861D01*
X187218530Y-91906813D01*
X187177562Y-91920124D01*
X187177556Y-91920126D01*
X187023207Y-91998770D01*
X186883077Y-92100581D01*
X186883072Y-92100585D01*
X186883072Y-92100586D01*
X186760586Y-92223072D01*
X186760583Y-92223076D01*
X186760582Y-92223076D01*
X186658770Y-92363207D01*
X186580126Y-92517556D01*
X186580124Y-92517562D01*
X186526597Y-92682302D01*
X186499501Y-92853378D01*
X186499500Y-92853393D01*
X186499500Y-93026606D01*
X186499501Y-93026621D01*
X186526597Y-93197697D01*
X186580124Y-93362437D01*
X186580126Y-93362443D01*
X186658770Y-93516792D01*
X186760581Y-93656922D01*
X186760583Y-93656924D01*
X186760586Y-93656928D01*
X186883072Y-93779414D01*
X186883075Y-93779416D01*
X186883077Y-93779418D01*
X187023207Y-93881229D01*
X187023209Y-93881230D01*
X187023212Y-93881232D01*
X187177555Y-93959873D01*
X187196846Y-93966141D01*
X187218530Y-93973187D01*
X187303298Y-94020659D01*
X187363446Y-94096957D01*
X187389817Y-94190464D01*
X187378398Y-94286945D01*
X187330926Y-94371713D01*
X187254628Y-94431861D01*
X187218530Y-94446813D01*
X187177562Y-94460124D01*
X187177556Y-94460126D01*
X187023207Y-94538770D01*
X186883077Y-94640581D01*
X186760581Y-94763077D01*
X186658770Y-94903207D01*
X186580126Y-95057556D01*
X186580124Y-95057562D01*
X186526597Y-95222302D01*
X186499501Y-95393378D01*
X186499500Y-95393393D01*
X186499500Y-95566606D01*
X186499501Y-95566621D01*
X186526597Y-95737697D01*
X186580124Y-95902437D01*
X186580126Y-95902443D01*
X186658770Y-96056792D01*
X186760581Y-96196922D01*
X186760583Y-96196924D01*
X186760586Y-96196928D01*
X186883072Y-96319414D01*
X186883075Y-96319416D01*
X186883077Y-96319418D01*
X187023207Y-96421229D01*
X187023209Y-96421230D01*
X187023212Y-96421232D01*
X187177555Y-96499873D01*
X187196846Y-96506141D01*
X187218530Y-96513187D01*
X187303298Y-96560659D01*
X187363446Y-96636957D01*
X187389817Y-96730464D01*
X187378398Y-96826945D01*
X187330926Y-96911713D01*
X187254628Y-96971861D01*
X187218530Y-96986813D01*
X187177562Y-97000124D01*
X187177556Y-97000126D01*
X187023207Y-97078770D01*
X186883077Y-97180581D01*
X186760581Y-97303077D01*
X186658770Y-97443207D01*
X186580126Y-97597556D01*
X186580124Y-97597562D01*
X186526597Y-97762302D01*
X186499501Y-97933378D01*
X186499500Y-97933393D01*
X186499500Y-98106606D01*
X186499501Y-98106621D01*
X186526597Y-98277697D01*
X186580124Y-98442437D01*
X186580126Y-98442443D01*
X186658770Y-98596792D01*
X186760581Y-98736922D01*
X186760583Y-98736924D01*
X186760586Y-98736928D01*
X186883072Y-98859414D01*
X186883075Y-98859416D01*
X186883077Y-98859418D01*
X187023207Y-98961229D01*
X187023209Y-98961230D01*
X187023212Y-98961232D01*
X187177555Y-99039873D01*
X187196846Y-99046141D01*
X187218530Y-99053187D01*
X187303298Y-99100659D01*
X187363446Y-99176957D01*
X187389817Y-99270464D01*
X187378398Y-99366945D01*
X187330926Y-99451713D01*
X187254628Y-99511861D01*
X187218530Y-99526813D01*
X187177562Y-99540124D01*
X187177556Y-99540126D01*
X187023207Y-99618770D01*
X186883077Y-99720581D01*
X186760581Y-99843077D01*
X186658770Y-99983207D01*
X186580126Y-100137556D01*
X186580124Y-100137562D01*
X186526597Y-100302302D01*
X186499501Y-100473378D01*
X186499500Y-100473393D01*
X186499500Y-100646606D01*
X186499501Y-100646621D01*
X186526597Y-100817697D01*
X186580124Y-100982437D01*
X186580126Y-100982443D01*
X186658770Y-101136792D01*
X186760581Y-101276922D01*
X186760583Y-101276924D01*
X186760586Y-101276928D01*
X186883072Y-101399414D01*
X186883075Y-101399416D01*
X186883077Y-101399418D01*
X187023207Y-101501229D01*
X187023209Y-101501230D01*
X187023212Y-101501232D01*
X187177555Y-101579873D01*
X187196846Y-101586141D01*
X187218530Y-101593187D01*
X187303298Y-101640659D01*
X187363446Y-101716957D01*
X187389817Y-101810464D01*
X187378398Y-101906945D01*
X187330926Y-101991713D01*
X187254628Y-102051861D01*
X187218530Y-102066813D01*
X187177562Y-102080124D01*
X187177556Y-102080126D01*
X187023207Y-102158770D01*
X186883077Y-102260581D01*
X186760581Y-102383077D01*
X186658770Y-102523207D01*
X186580126Y-102677556D01*
X186580124Y-102677562D01*
X186526597Y-102842302D01*
X186499501Y-103013378D01*
X186499500Y-103013393D01*
X186499500Y-103186606D01*
X186499501Y-103186621D01*
X186526597Y-103357697D01*
X186580124Y-103522437D01*
X186580126Y-103522443D01*
X186658770Y-103676792D01*
X186760581Y-103816922D01*
X186760583Y-103816924D01*
X186760586Y-103816928D01*
X186883072Y-103939414D01*
X186883075Y-103939416D01*
X186883077Y-103939418D01*
X187023207Y-104041229D01*
X187023209Y-104041230D01*
X187023212Y-104041232D01*
X187177555Y-104119873D01*
X187196846Y-104126141D01*
X187218530Y-104133187D01*
X187303298Y-104180659D01*
X187363446Y-104256957D01*
X187389817Y-104350464D01*
X187378398Y-104446945D01*
X187330926Y-104531713D01*
X187254628Y-104591861D01*
X187218530Y-104606813D01*
X187177562Y-104620124D01*
X187177556Y-104620126D01*
X187023207Y-104698770D01*
X186883077Y-104800581D01*
X186760581Y-104923077D01*
X186658770Y-105063207D01*
X186580126Y-105217556D01*
X186580124Y-105217562D01*
X186526597Y-105382302D01*
X186499501Y-105553378D01*
X186499500Y-105553393D01*
X186499500Y-105726606D01*
X186499501Y-105726621D01*
X186526597Y-105897697D01*
X186580124Y-106062437D01*
X186580126Y-106062443D01*
X186658770Y-106216792D01*
X186760581Y-106356922D01*
X186760583Y-106356924D01*
X186760586Y-106356928D01*
X186883072Y-106479414D01*
X186883075Y-106479416D01*
X186883077Y-106479418D01*
X187023207Y-106581229D01*
X187023209Y-106581230D01*
X187023212Y-106581232D01*
X187177555Y-106659873D01*
X187196846Y-106666141D01*
X187218530Y-106673187D01*
X187303298Y-106720659D01*
X187363446Y-106796957D01*
X187389817Y-106890464D01*
X187378398Y-106986945D01*
X187330926Y-107071713D01*
X187254628Y-107131861D01*
X187218530Y-107146813D01*
X187177562Y-107160124D01*
X187177556Y-107160126D01*
X187023207Y-107238770D01*
X186883077Y-107340581D01*
X186760581Y-107463077D01*
X186658770Y-107603207D01*
X186580126Y-107757556D01*
X186580124Y-107757562D01*
X186526597Y-107922302D01*
X186499501Y-108093378D01*
X186499500Y-108093393D01*
X186499500Y-108266606D01*
X186499501Y-108266621D01*
X186526597Y-108437697D01*
X186580124Y-108602437D01*
X186580126Y-108602443D01*
X186658770Y-108756792D01*
X186760581Y-108896922D01*
X186760583Y-108896924D01*
X186760586Y-108896928D01*
X186883072Y-109019414D01*
X186883075Y-109019416D01*
X186883077Y-109019418D01*
X187023207Y-109121229D01*
X187023209Y-109121230D01*
X187023212Y-109121232D01*
X187177555Y-109199873D01*
X187219338Y-109213449D01*
X187304104Y-109260919D01*
X187364253Y-109337216D01*
X187390625Y-109430723D01*
X187379207Y-109527205D01*
X187331736Y-109611973D01*
X187255439Y-109672122D01*
X187219342Y-109687074D01*
X187177750Y-109700588D01*
X187177741Y-109700592D01*
X187023483Y-109779191D01*
X187023476Y-109779195D01*
X186883396Y-109880968D01*
X186760968Y-110003396D01*
X186659195Y-110143476D01*
X186659191Y-110143483D01*
X186580592Y-110297741D01*
X186580588Y-110297751D01*
X186527085Y-110462415D01*
X186525884Y-110470000D01*
X187684314Y-110470000D01*
X187679920Y-110474394D01*
X187627259Y-110565606D01*
X187600000Y-110667339D01*
X187600000Y-110772661D01*
X187627259Y-110874394D01*
X187679920Y-110965606D01*
X187684314Y-110970000D01*
X186525885Y-110970000D01*
X186527085Y-110977584D01*
X186580588Y-111142248D01*
X186580592Y-111142258D01*
X186659191Y-111296516D01*
X186659195Y-111296523D01*
X186760968Y-111436603D01*
X186883396Y-111559031D01*
X187023476Y-111660804D01*
X187023483Y-111660808D01*
X187177741Y-111739407D01*
X187177751Y-111739411D01*
X187220147Y-111753187D01*
X187304915Y-111800659D01*
X187365063Y-111876956D01*
X187391434Y-111970464D01*
X187380015Y-112066945D01*
X187332543Y-112151713D01*
X187256246Y-112211861D01*
X187220147Y-112226813D01*
X187177751Y-112240588D01*
X187177741Y-112240592D01*
X187023483Y-112319191D01*
X187023476Y-112319195D01*
X186883396Y-112420968D01*
X186760968Y-112543396D01*
X186659195Y-112683476D01*
X186659191Y-112683483D01*
X186580592Y-112837741D01*
X186580588Y-112837751D01*
X186527085Y-113002415D01*
X186525884Y-113010000D01*
X187684314Y-113010000D01*
X187679920Y-113014394D01*
X187627259Y-113105606D01*
X187600000Y-113207339D01*
X187600000Y-113312661D01*
X187627259Y-113414394D01*
X187679920Y-113505606D01*
X187684314Y-113510000D01*
X186525885Y-113510000D01*
X186527085Y-113517584D01*
X186580588Y-113682248D01*
X186580592Y-113682258D01*
X186659191Y-113836516D01*
X186659195Y-113836523D01*
X186760968Y-113976603D01*
X186883396Y-114099031D01*
X187023476Y-114200804D01*
X187023483Y-114200808D01*
X187177741Y-114279407D01*
X187177754Y-114279413D01*
X187342416Y-114332914D01*
X187513418Y-114359999D01*
X187513431Y-114360000D01*
X187749999Y-114360000D01*
X187750000Y-114359999D01*
X187750000Y-113575686D01*
X187754394Y-113580080D01*
X187845606Y-113632741D01*
X187947339Y-113660000D01*
X188052661Y-113660000D01*
X188154394Y-113632741D01*
X188245606Y-113580080D01*
X188250000Y-113575686D01*
X188250000Y-114359999D01*
X188250001Y-114360000D01*
X188486569Y-114360000D01*
X188486581Y-114359999D01*
X188657583Y-114332914D01*
X188657584Y-114332914D01*
X188822245Y-114279413D01*
X188822258Y-114279407D01*
X188976516Y-114200808D01*
X188976523Y-114200804D01*
X189104142Y-114108085D01*
X189192373Y-114067411D01*
X189289453Y-114063597D01*
X189380603Y-114097224D01*
X189451946Y-114163173D01*
X189492620Y-114251404D01*
X189499500Y-114309531D01*
X189499500Y-122250500D01*
X189480546Y-122345788D01*
X189426570Y-122426570D01*
X189345788Y-122480546D01*
X189250500Y-122499500D01*
X84749500Y-122499500D01*
X84654212Y-122480546D01*
X84573430Y-122426570D01*
X84519454Y-122345788D01*
X84500500Y-122250500D01*
X84500500Y-119281912D01*
X91499500Y-119281912D01*
X91499500Y-119518087D01*
X91499501Y-119518103D01*
X91536446Y-119751364D01*
X91603735Y-119958461D01*
X91609432Y-119975992D01*
X91656165Y-120067710D01*
X91716659Y-120186437D01*
X91855478Y-120377504D01*
X91855480Y-120377506D01*
X91855483Y-120377510D01*
X92022490Y-120544517D01*
X92022493Y-120544519D01*
X92022495Y-120544521D01*
X92213562Y-120683340D01*
X92213564Y-120683341D01*
X92213567Y-120683343D01*
X92424008Y-120790568D01*
X92648632Y-120863553D01*
X92881908Y-120900500D01*
X92881912Y-120900500D01*
X93118088Y-120900500D01*
X93118092Y-120900500D01*
X93351368Y-120863553D01*
X93575992Y-120790568D01*
X93786433Y-120683343D01*
X93977510Y-120544517D01*
X94144517Y-120377510D01*
X94283343Y-120186433D01*
X94390568Y-119975992D01*
X94463553Y-119751368D01*
X94500500Y-119518092D01*
X94500500Y-119281908D01*
X94463553Y-119048632D01*
X94390568Y-118824008D01*
X94283343Y-118613567D01*
X94283341Y-118613564D01*
X94283340Y-118613562D01*
X94144521Y-118422495D01*
X94144519Y-118422493D01*
X94144517Y-118422490D01*
X93977510Y-118255483D01*
X93977506Y-118255480D01*
X93977504Y-118255478D01*
X93786437Y-118116659D01*
X93772747Y-118109683D01*
X93575992Y-118009432D01*
X93575989Y-118009431D01*
X93575987Y-118009430D01*
X93451079Y-117968845D01*
X93351368Y-117936447D01*
X93351366Y-117936446D01*
X93351364Y-117936446D01*
X93118103Y-117899501D01*
X93118094Y-117899500D01*
X93118092Y-117899500D01*
X92881908Y-117899500D01*
X92881905Y-117899500D01*
X92881896Y-117899501D01*
X92648635Y-117936446D01*
X92424012Y-118009430D01*
X92213562Y-118116659D01*
X92022495Y-118255478D01*
X91855478Y-118422495D01*
X91716659Y-118613562D01*
X91609430Y-118824012D01*
X91536446Y-119048635D01*
X91499501Y-119281896D01*
X91499500Y-119281912D01*
X84500500Y-119281912D01*
X84500500Y-94439808D01*
X85550000Y-94439808D01*
X85550000Y-95099999D01*
X85550001Y-95100000D01*
X86450000Y-95100000D01*
X86450000Y-95600000D01*
X85550001Y-95600000D01*
X85550000Y-95600001D01*
X85550000Y-96260191D01*
X85584472Y-96477831D01*
X85652566Y-96687406D01*
X85652569Y-96687413D01*
X85752615Y-96883763D01*
X85882137Y-97062035D01*
X86037964Y-97217862D01*
X86216236Y-97347384D01*
X86412586Y-97447430D01*
X86412593Y-97447433D01*
X86622163Y-97515525D01*
X86700000Y-97527853D01*
X86700000Y-96583012D01*
X86757007Y-96615925D01*
X86884174Y-96650000D01*
X87015826Y-96650000D01*
X87142993Y-96615925D01*
X87200000Y-96583012D01*
X87200000Y-97527853D01*
X87277836Y-97515525D01*
X87487406Y-97447433D01*
X87487413Y-97447430D01*
X87683763Y-97347384D01*
X87862035Y-97217862D01*
X88017862Y-97062035D01*
X88147384Y-96883763D01*
X88247430Y-96687413D01*
X88247433Y-96687406D01*
X88315527Y-96477831D01*
X88349999Y-96260191D01*
X88350000Y-96260179D01*
X88350000Y-95600001D01*
X88349999Y-95600000D01*
X87450000Y-95600000D01*
X87450000Y-95100000D01*
X88349999Y-95100000D01*
X88350000Y-95099999D01*
X88350000Y-94439820D01*
X88349999Y-94439808D01*
X88315527Y-94222168D01*
X88247433Y-94012593D01*
X88247430Y-94012586D01*
X88147384Y-93816236D01*
X88017862Y-93637964D01*
X87862035Y-93482137D01*
X87683763Y-93352615D01*
X87487413Y-93252569D01*
X87487406Y-93252566D01*
X87277837Y-93184474D01*
X87277823Y-93184470D01*
X87200000Y-93172144D01*
X87200000Y-94116988D01*
X87142993Y-94084075D01*
X87015826Y-94050000D01*
X86884174Y-94050000D01*
X86757007Y-94084075D01*
X86700000Y-94116988D01*
X86700000Y-93172145D01*
X86699999Y-93172144D01*
X86622176Y-93184470D01*
X86622162Y-93184474D01*
X86412593Y-93252566D01*
X86412586Y-93252569D01*
X86216236Y-93352615D01*
X86037964Y-93482137D01*
X85882137Y-93637964D01*
X85752615Y-93816236D01*
X85652569Y-94012586D01*
X85652566Y-94012593D01*
X85584472Y-94222168D01*
X85550000Y-94439808D01*
X84500500Y-94439808D01*
X84500500Y-61893326D01*
X85824500Y-61893326D01*
X85824500Y-62168673D01*
X85859287Y-62432912D01*
X85860440Y-62441666D01*
X85892370Y-62560831D01*
X85931704Y-62707629D01*
X85931704Y-62707630D01*
X85944479Y-62738471D01*
X86037077Y-62962021D01*
X86037079Y-62962025D01*
X86037081Y-62962029D01*
X86160947Y-63176570D01*
X86174751Y-63200479D01*
X86342372Y-63418928D01*
X86537072Y-63613628D01*
X86755521Y-63781249D01*
X86755530Y-63781254D01*
X86755530Y-63781255D01*
X86951218Y-63894235D01*
X86993979Y-63918923D01*
X87248368Y-64024295D01*
X87514334Y-64095560D01*
X87787326Y-64131500D01*
X88062674Y-64131500D01*
X88335666Y-64095560D01*
X88601632Y-64024295D01*
X88856021Y-63918923D01*
X89094479Y-63781249D01*
X89312928Y-63613628D01*
X89507628Y-63418928D01*
X89675249Y-63200479D01*
X89812923Y-62962021D01*
X89918295Y-62707632D01*
X89989560Y-62441666D01*
X90025500Y-62168674D01*
X90025500Y-61893326D01*
X104874500Y-61893326D01*
X104874500Y-62168673D01*
X104909287Y-62432912D01*
X104910440Y-62441666D01*
X104942370Y-62560831D01*
X104981704Y-62707629D01*
X104981704Y-62707630D01*
X104994479Y-62738471D01*
X105087077Y-62962021D01*
X105087079Y-62962025D01*
X105087081Y-62962029D01*
X105210947Y-63176570D01*
X105224751Y-63200479D01*
X105392372Y-63418928D01*
X105587072Y-63613628D01*
X105805521Y-63781249D01*
X105805530Y-63781254D01*
X105805530Y-63781255D01*
X106001218Y-63894235D01*
X106043979Y-63918923D01*
X106298368Y-64024295D01*
X106564334Y-64095560D01*
X106837326Y-64131500D01*
X107112674Y-64131500D01*
X107385666Y-64095560D01*
X107651632Y-64024295D01*
X107906021Y-63918923D01*
X108144479Y-63781249D01*
X108362928Y-63613628D01*
X108557628Y-63418928D01*
X108725249Y-63200479D01*
X108862923Y-62962021D01*
X108968295Y-62707632D01*
X109039560Y-62441666D01*
X109075500Y-62168674D01*
X109075500Y-61893326D01*
X109039560Y-61620334D01*
X108968295Y-61354368D01*
X108862923Y-61099979D01*
X108856514Y-61088879D01*
X108759313Y-60920521D01*
X108725249Y-60861521D01*
X108557628Y-60643072D01*
X108362928Y-60448372D01*
X108144479Y-60280751D01*
X108144469Y-60280745D01*
X108144469Y-60280744D01*
X107906029Y-60143081D01*
X107906025Y-60143079D01*
X107906021Y-60143077D01*
X107651632Y-60037705D01*
X107651633Y-60037705D01*
X107651630Y-60037704D01*
X107536460Y-60006845D01*
X107385666Y-59966440D01*
X107385661Y-59966439D01*
X107385662Y-59966439D01*
X107112674Y-59930500D01*
X106837326Y-59930500D01*
X106564338Y-59966439D01*
X106298370Y-60037704D01*
X106298369Y-60037704D01*
X106209793Y-60074394D01*
X106043979Y-60143077D01*
X106043977Y-60143077D01*
X106043970Y-60143081D01*
X105805530Y-60280744D01*
X105805530Y-60280745D01*
X105805525Y-60280748D01*
X105805521Y-60280751D01*
X105641684Y-60406466D01*
X105587069Y-60448374D01*
X105392374Y-60643069D01*
X105392372Y-60643072D01*
X105224751Y-60861521D01*
X105224748Y-60861525D01*
X105224745Y-60861530D01*
X105224744Y-60861530D01*
X105087081Y-61099970D01*
X105087077Y-61099977D01*
X105087077Y-61099979D01*
X105058280Y-61169500D01*
X104981704Y-61354369D01*
X104981704Y-61354370D01*
X104910439Y-61620338D01*
X104874500Y-61893326D01*
X90025500Y-61893326D01*
X89989560Y-61620334D01*
X89918295Y-61354368D01*
X89812923Y-61099979D01*
X89806514Y-61088879D01*
X89709313Y-60920521D01*
X89675249Y-60861521D01*
X89507628Y-60643072D01*
X89312928Y-60448372D01*
X89094479Y-60280751D01*
X89094469Y-60280745D01*
X89094469Y-60280744D01*
X88856029Y-60143081D01*
X88856025Y-60143079D01*
X88856021Y-60143077D01*
X88601632Y-60037705D01*
X88601633Y-60037705D01*
X88601630Y-60037704D01*
X88486460Y-60006845D01*
X88335666Y-59966440D01*
X88335661Y-59966439D01*
X88335662Y-59966439D01*
X88062674Y-59930500D01*
X87787326Y-59930500D01*
X87514338Y-59966439D01*
X87248370Y-60037704D01*
X87248369Y-60037704D01*
X87159793Y-60074394D01*
X86993979Y-60143077D01*
X86993977Y-60143077D01*
X86993970Y-60143081D01*
X86755530Y-60280744D01*
X86755530Y-60280745D01*
X86755525Y-60280748D01*
X86755521Y-60280751D01*
X86591684Y-60406466D01*
X86537069Y-60448374D01*
X86342374Y-60643069D01*
X86342372Y-60643072D01*
X86174751Y-60861521D01*
X86174748Y-60861525D01*
X86174745Y-60861530D01*
X86174744Y-60861530D01*
X86037081Y-61099970D01*
X86037077Y-61099977D01*
X86037077Y-61099979D01*
X86008280Y-61169500D01*
X85931704Y-61354369D01*
X85931704Y-61354370D01*
X85860439Y-61620338D01*
X85824500Y-61893326D01*
X84500500Y-61893326D01*
X84500500Y-59249500D01*
X84519454Y-59154212D01*
X84573430Y-59073430D01*
X84654212Y-59019454D01*
X84749500Y-59000500D01*
X115483439Y-59000500D01*
X115578727Y-59019454D01*
G37*
%TD.AperFunction*%
%TA.AperFunction,Conductor*%
G36*
X169537728Y-63479454D02*
G01*
X169618510Y-63533430D01*
X171426570Y-65341490D01*
X171480546Y-65422272D01*
X171499500Y-65517560D01*
X171499500Y-111982439D01*
X171480546Y-112077727D01*
X171426570Y-112158509D01*
X168658510Y-114926570D01*
X168577728Y-114980546D01*
X168482440Y-114999500D01*
X155401459Y-114999500D01*
X155369389Y-115005878D01*
X155369386Y-115005878D01*
X155208168Y-115037946D01*
X155208167Y-115037947D01*
X155026090Y-115113365D01*
X155026085Y-115113368D01*
X154862222Y-115222857D01*
X154862219Y-115222859D01*
X154862219Y-115222860D01*
X153477996Y-116607084D01*
X152158510Y-117926570D01*
X152077728Y-117980546D01*
X151982440Y-117999500D01*
X125749500Y-117999500D01*
X125654212Y-117980546D01*
X125573430Y-117926570D01*
X125519454Y-117845788D01*
X125500500Y-117750500D01*
X125500500Y-116856084D01*
X125519454Y-116760796D01*
X125573430Y-116680014D01*
X125654212Y-116626038D01*
X125749500Y-116607084D01*
X125844788Y-116626038D01*
X125862543Y-116634223D01*
X126000975Y-116704757D01*
X126000980Y-116704759D01*
X126195586Y-116767990D01*
X126397676Y-116799998D01*
X126397692Y-116800000D01*
X126602308Y-116800000D01*
X126602323Y-116799998D01*
X126804413Y-116767990D01*
X126999019Y-116704759D01*
X126999025Y-116704757D01*
X127181342Y-116611863D01*
X127181347Y-116611859D01*
X127241677Y-116568026D01*
X127247440Y-116547592D01*
X127307586Y-116471293D01*
X127392352Y-116423818D01*
X127488833Y-116412396D01*
X127582341Y-116438765D01*
X127645374Y-116484559D01*
X127652781Y-116491966D01*
X127818390Y-116612287D01*
X127818392Y-116612288D01*
X127951311Y-116680014D01*
X128000781Y-116705220D01*
X128195466Y-116768477D01*
X128266575Y-116779739D01*
X128397638Y-116800499D01*
X128397645Y-116800499D01*
X128397648Y-116800500D01*
X128397651Y-116800500D01*
X128602349Y-116800500D01*
X128602352Y-116800500D01*
X128602355Y-116800499D01*
X128602361Y-116800499D01*
X128697870Y-116785371D01*
X128804534Y-116768477D01*
X128999219Y-116705220D01*
X129181610Y-116612287D01*
X129347219Y-116491966D01*
X129347220Y-116491964D01*
X129353642Y-116487299D01*
X129441872Y-116446624D01*
X129538952Y-116442810D01*
X129630102Y-116476437D01*
X129646358Y-116487299D01*
X129652779Y-116491964D01*
X129652781Y-116491966D01*
X129818386Y-116612284D01*
X129818390Y-116612287D01*
X129951311Y-116680014D01*
X130000781Y-116705220D01*
X130195466Y-116768477D01*
X130266575Y-116779739D01*
X130397638Y-116800499D01*
X130397645Y-116800499D01*
X130397648Y-116800500D01*
X130397651Y-116800500D01*
X130602349Y-116800500D01*
X130602352Y-116800500D01*
X130602355Y-116800499D01*
X130602361Y-116800499D01*
X130697870Y-116785371D01*
X130804534Y-116768477D01*
X130999219Y-116705220D01*
X131103195Y-116652241D01*
X131196701Y-116625870D01*
X131293182Y-116637289D01*
X131365459Y-116674768D01*
X131408845Y-116707246D01*
X131457669Y-116743796D01*
X131592517Y-116794091D01*
X131652127Y-116800500D01*
X133347872Y-116800499D01*
X133407483Y-116794091D01*
X133542331Y-116743796D01*
X133657546Y-116657546D01*
X133743796Y-116542331D01*
X133794091Y-116407483D01*
X133800500Y-116347873D01*
X133800499Y-114652128D01*
X133794091Y-114592517D01*
X133743796Y-114457669D01*
X133657546Y-114342454D01*
X133542331Y-114256204D01*
X133542329Y-114256203D01*
X133412483Y-114207773D01*
X133408641Y-114205400D01*
X133404212Y-114204519D01*
X133367441Y-114179950D01*
X133329827Y-114156715D01*
X133327186Y-114153052D01*
X133323430Y-114150543D01*
X133298856Y-114113765D01*
X133273002Y-114077911D01*
X133271963Y-114073517D01*
X133269454Y-114069761D01*
X133260825Y-114026381D01*
X133250659Y-113983360D01*
X133250500Y-113974473D01*
X133250500Y-113914008D01*
X133269454Y-113818720D01*
X133323430Y-113737938D01*
X138060658Y-109000710D01*
X138141440Y-108946734D01*
X138236728Y-108927780D01*
X163827339Y-108927780D01*
X163922627Y-108946734D01*
X164003405Y-109000707D01*
X164019392Y-109016694D01*
X164019395Y-109016696D01*
X164019397Y-109016698D01*
X164159527Y-109118509D01*
X164159529Y-109118510D01*
X164159532Y-109118512D01*
X164313875Y-109197153D01*
X164333166Y-109203421D01*
X164354850Y-109210467D01*
X164439618Y-109257939D01*
X164499766Y-109334237D01*
X164526137Y-109427744D01*
X164514718Y-109524225D01*
X164467246Y-109608993D01*
X164390948Y-109669141D01*
X164354850Y-109684093D01*
X164313882Y-109697404D01*
X164313876Y-109697406D01*
X164159527Y-109776050D01*
X164019397Y-109877861D01*
X163896901Y-110000357D01*
X163795090Y-110140487D01*
X163716446Y-110294836D01*
X163716444Y-110294842D01*
X163662917Y-110459582D01*
X163635821Y-110630658D01*
X163635820Y-110630673D01*
X163635820Y-110803886D01*
X163635821Y-110803901D01*
X163662917Y-110974977D01*
X163716444Y-111139717D01*
X163716446Y-111139723D01*
X163795090Y-111294072D01*
X163896901Y-111434202D01*
X163896903Y-111434204D01*
X163896906Y-111434208D01*
X164019392Y-111556694D01*
X164019395Y-111556696D01*
X164019397Y-111556698D01*
X164159527Y-111658509D01*
X164159529Y-111658510D01*
X164159532Y-111658512D01*
X164313875Y-111737153D01*
X164355658Y-111750729D01*
X164440424Y-111798199D01*
X164500573Y-111874496D01*
X164526945Y-111968003D01*
X164515527Y-112064485D01*
X164468056Y-112149253D01*
X164391759Y-112209402D01*
X164355662Y-112224354D01*
X164314070Y-112237868D01*
X164314061Y-112237872D01*
X164159803Y-112316471D01*
X164159796Y-112316475D01*
X164019716Y-112418248D01*
X163897288Y-112540676D01*
X163795515Y-112680756D01*
X163795511Y-112680763D01*
X163716912Y-112835021D01*
X163716908Y-112835031D01*
X163663405Y-112999695D01*
X163662204Y-113007280D01*
X164820634Y-113007280D01*
X164816240Y-113011674D01*
X164763579Y-113102886D01*
X164736320Y-113204619D01*
X164736320Y-113309941D01*
X164763579Y-113411674D01*
X164816240Y-113502886D01*
X164820634Y-113507280D01*
X163662205Y-113507280D01*
X163663405Y-113514864D01*
X163716908Y-113679528D01*
X163716912Y-113679538D01*
X163795511Y-113833796D01*
X163795515Y-113833803D01*
X163897288Y-113973883D01*
X164019716Y-114096311D01*
X164159796Y-114198084D01*
X164159803Y-114198088D01*
X164314061Y-114276687D01*
X164314074Y-114276693D01*
X164478736Y-114330194D01*
X164649738Y-114357279D01*
X164649751Y-114357280D01*
X164886319Y-114357280D01*
X164886320Y-114357279D01*
X164886320Y-113572966D01*
X164890714Y-113577360D01*
X164981926Y-113630021D01*
X165083659Y-113657280D01*
X165188981Y-113657280D01*
X165290714Y-113630021D01*
X165381926Y-113577360D01*
X165386320Y-113572966D01*
X165386320Y-114357279D01*
X165386321Y-114357280D01*
X165622889Y-114357280D01*
X165622901Y-114357279D01*
X165793903Y-114330194D01*
X165793904Y-114330194D01*
X165958565Y-114276693D01*
X165958578Y-114276687D01*
X166112836Y-114198088D01*
X166112843Y-114198084D01*
X166252923Y-114096311D01*
X166375351Y-113973883D01*
X166477124Y-113833803D01*
X166477128Y-113833796D01*
X166555727Y-113679538D01*
X166555731Y-113679528D01*
X166609234Y-113514864D01*
X166610435Y-113507280D01*
X165452006Y-113507280D01*
X165456400Y-113502886D01*
X165509061Y-113411674D01*
X165536320Y-113309941D01*
X165536320Y-113204619D01*
X165509061Y-113102886D01*
X165456400Y-113011674D01*
X165452006Y-113007280D01*
X166610435Y-113007280D01*
X166609234Y-112999695D01*
X166555731Y-112835031D01*
X166555727Y-112835021D01*
X166477128Y-112680763D01*
X166477124Y-112680756D01*
X166375351Y-112540676D01*
X166252923Y-112418248D01*
X166112843Y-112316475D01*
X166112836Y-112316471D01*
X165958578Y-112237872D01*
X165958566Y-112237867D01*
X165916978Y-112224354D01*
X165832212Y-112176881D01*
X165772064Y-112100583D01*
X165745693Y-112007076D01*
X165757114Y-111910594D01*
X165804587Y-111825828D01*
X165880885Y-111765680D01*
X165916977Y-111750730D01*
X165958765Y-111737153D01*
X166113108Y-111658512D01*
X166253248Y-111556694D01*
X166375734Y-111434208D01*
X166477552Y-111294068D01*
X166556193Y-111139725D01*
X166609722Y-110974981D01*
X166636820Y-110803891D01*
X166636820Y-110630669D01*
X166609722Y-110459579D01*
X166556193Y-110294835D01*
X166477552Y-110140492D01*
X166477550Y-110140489D01*
X166477549Y-110140487D01*
X166375738Y-110000357D01*
X166375736Y-110000355D01*
X166375734Y-110000352D01*
X166253248Y-109877866D01*
X166253244Y-109877863D01*
X166253242Y-109877861D01*
X166113112Y-109776050D01*
X165958763Y-109697406D01*
X165958754Y-109697402D01*
X165917790Y-109684093D01*
X165833022Y-109636622D01*
X165772874Y-109560325D01*
X165746502Y-109466818D01*
X165757921Y-109370336D01*
X165805392Y-109285568D01*
X165881689Y-109225420D01*
X165917790Y-109210467D01*
X165958754Y-109197157D01*
X165958757Y-109197155D01*
X165958765Y-109197153D01*
X166113108Y-109118512D01*
X166253248Y-109016694D01*
X166375734Y-108894208D01*
X166477552Y-108754068D01*
X166556193Y-108599725D01*
X166609722Y-108434981D01*
X166636820Y-108263891D01*
X166636820Y-108090669D01*
X166609722Y-107919579D01*
X166556193Y-107754835D01*
X166477552Y-107600492D01*
X166477550Y-107600489D01*
X166477549Y-107600487D01*
X166375738Y-107460357D01*
X166375736Y-107460355D01*
X166375734Y-107460352D01*
X166253248Y-107337866D01*
X166253244Y-107337863D01*
X166253242Y-107337861D01*
X166113112Y-107236050D01*
X165958763Y-107157406D01*
X165958759Y-107157404D01*
X165923811Y-107146049D01*
X165839045Y-107098576D01*
X165778898Y-107022278D01*
X165752527Y-106928770D01*
X165763948Y-106832288D01*
X165811421Y-106747522D01*
X165887719Y-106687375D01*
X165923802Y-106672428D01*
X165962445Y-106659873D01*
X166116788Y-106581232D01*
X166256928Y-106479414D01*
X166379414Y-106356928D01*
X166481232Y-106216788D01*
X166559873Y-106062445D01*
X166613402Y-105897701D01*
X166640500Y-105726611D01*
X166640500Y-105553389D01*
X166613402Y-105382299D01*
X166559873Y-105217555D01*
X166481232Y-105063212D01*
X166481230Y-105063209D01*
X166481229Y-105063207D01*
X166379418Y-104923077D01*
X166379416Y-104923075D01*
X166379414Y-104923072D01*
X166256928Y-104800586D01*
X166256924Y-104800583D01*
X166256922Y-104800581D01*
X166116792Y-104698770D01*
X165962443Y-104620126D01*
X165962434Y-104620122D01*
X165921470Y-104606813D01*
X165836702Y-104559342D01*
X165776554Y-104483045D01*
X165750182Y-104389538D01*
X165761601Y-104293056D01*
X165809072Y-104208288D01*
X165885369Y-104148140D01*
X165921470Y-104133187D01*
X165962434Y-104119877D01*
X165962437Y-104119875D01*
X165962445Y-104119873D01*
X166116788Y-104041232D01*
X166256928Y-103939414D01*
X166379414Y-103816928D01*
X166481232Y-103676788D01*
X166559873Y-103522445D01*
X166613402Y-103357701D01*
X166640500Y-103186611D01*
X166640500Y-103013389D01*
X166613402Y-102842299D01*
X166559873Y-102677555D01*
X166481232Y-102523212D01*
X166481230Y-102523209D01*
X166481229Y-102523207D01*
X166379418Y-102383077D01*
X166379416Y-102383075D01*
X166379414Y-102383072D01*
X166256928Y-102260586D01*
X166256924Y-102260583D01*
X166256922Y-102260581D01*
X166116792Y-102158770D01*
X165962443Y-102080126D01*
X165962434Y-102080122D01*
X165921470Y-102066813D01*
X165836702Y-102019342D01*
X165776554Y-101943045D01*
X165750182Y-101849538D01*
X165761601Y-101753056D01*
X165809072Y-101668288D01*
X165885369Y-101608140D01*
X165921470Y-101593187D01*
X165962434Y-101579877D01*
X165962437Y-101579875D01*
X165962445Y-101579873D01*
X166116788Y-101501232D01*
X166256928Y-101399414D01*
X166379414Y-101276928D01*
X166481232Y-101136788D01*
X166559873Y-100982445D01*
X166613402Y-100817701D01*
X166640500Y-100646611D01*
X166640500Y-100473389D01*
X166613402Y-100302299D01*
X166559873Y-100137555D01*
X166481232Y-99983212D01*
X166481230Y-99983209D01*
X166481229Y-99983207D01*
X166379418Y-99843077D01*
X166379416Y-99843075D01*
X166379414Y-99843072D01*
X166256928Y-99720586D01*
X166256924Y-99720583D01*
X166256922Y-99720581D01*
X166116792Y-99618770D01*
X165962443Y-99540126D01*
X165962434Y-99540122D01*
X165921470Y-99526813D01*
X165836702Y-99479342D01*
X165776554Y-99403045D01*
X165750182Y-99309538D01*
X165761601Y-99213056D01*
X165809072Y-99128288D01*
X165885369Y-99068140D01*
X165921470Y-99053187D01*
X165962434Y-99039877D01*
X165962437Y-99039875D01*
X165962445Y-99039873D01*
X166116788Y-98961232D01*
X166256928Y-98859414D01*
X166379414Y-98736928D01*
X166481232Y-98596788D01*
X166559873Y-98442445D01*
X166613402Y-98277701D01*
X166640500Y-98106611D01*
X166640500Y-97933389D01*
X166613402Y-97762299D01*
X166559873Y-97597555D01*
X166481232Y-97443212D01*
X166481230Y-97443209D01*
X166481229Y-97443207D01*
X166379418Y-97303077D01*
X166379416Y-97303075D01*
X166379414Y-97303072D01*
X166256928Y-97180586D01*
X166256924Y-97180583D01*
X166256922Y-97180581D01*
X166116792Y-97078770D01*
X165962443Y-97000126D01*
X165962434Y-97000122D01*
X165921470Y-96986813D01*
X165836702Y-96939342D01*
X165776554Y-96863045D01*
X165750182Y-96769538D01*
X165761601Y-96673056D01*
X165809072Y-96588288D01*
X165885369Y-96528140D01*
X165921470Y-96513187D01*
X165962434Y-96499877D01*
X165962437Y-96499875D01*
X165962445Y-96499873D01*
X166116788Y-96421232D01*
X166256928Y-96319414D01*
X166379414Y-96196928D01*
X166481232Y-96056788D01*
X166559873Y-95902445D01*
X166613402Y-95737701D01*
X166640500Y-95566611D01*
X166640500Y-95393389D01*
X166613402Y-95222299D01*
X166559873Y-95057555D01*
X166481232Y-94903212D01*
X166481230Y-94903209D01*
X166481229Y-94903207D01*
X166379418Y-94763077D01*
X166379416Y-94763075D01*
X166379414Y-94763072D01*
X166256928Y-94640586D01*
X166256924Y-94640583D01*
X166256922Y-94640581D01*
X166116792Y-94538770D01*
X165962443Y-94460126D01*
X165962434Y-94460122D01*
X165921470Y-94446813D01*
X165836702Y-94399342D01*
X165776554Y-94323045D01*
X165750182Y-94229538D01*
X165761601Y-94133056D01*
X165809072Y-94048288D01*
X165885369Y-93988140D01*
X165921470Y-93973187D01*
X165962434Y-93959877D01*
X165962437Y-93959875D01*
X165962445Y-93959873D01*
X166116788Y-93881232D01*
X166256928Y-93779414D01*
X166379414Y-93656928D01*
X166481232Y-93516788D01*
X166559873Y-93362445D01*
X166613402Y-93197701D01*
X166640500Y-93026611D01*
X166640500Y-92853389D01*
X166613402Y-92682299D01*
X166559873Y-92517555D01*
X166481232Y-92363212D01*
X166481230Y-92363209D01*
X166481229Y-92363207D01*
X166379417Y-92223076D01*
X166379416Y-92223075D01*
X166379414Y-92223072D01*
X166256928Y-92100586D01*
X166256924Y-92100583D01*
X166256922Y-92100581D01*
X166116792Y-91998770D01*
X165962443Y-91920126D01*
X165962434Y-91920122D01*
X165921470Y-91906813D01*
X165836702Y-91859342D01*
X165776554Y-91783045D01*
X165750182Y-91689538D01*
X165761601Y-91593056D01*
X165809072Y-91508288D01*
X165885369Y-91448140D01*
X165921470Y-91433187D01*
X165962434Y-91419877D01*
X165962437Y-91419875D01*
X165962445Y-91419873D01*
X166116788Y-91341232D01*
X166256928Y-91239414D01*
X166379414Y-91116928D01*
X166481232Y-90976788D01*
X166559873Y-90822445D01*
X166613402Y-90657701D01*
X166640500Y-90486611D01*
X166640500Y-90313389D01*
X166613402Y-90142299D01*
X166559873Y-89977555D01*
X166481232Y-89823212D01*
X166481230Y-89823209D01*
X166481229Y-89823207D01*
X166379418Y-89683077D01*
X166379416Y-89683075D01*
X166379414Y-89683072D01*
X166256928Y-89560586D01*
X166256924Y-89560583D01*
X166256922Y-89560581D01*
X166116792Y-89458770D01*
X165962443Y-89380126D01*
X165962434Y-89380122D01*
X165921470Y-89366813D01*
X165836702Y-89319342D01*
X165776554Y-89243045D01*
X165750182Y-89149538D01*
X165761601Y-89053056D01*
X165809072Y-88968288D01*
X165885369Y-88908140D01*
X165921470Y-88893187D01*
X165962434Y-88879877D01*
X165962437Y-88879875D01*
X165962445Y-88879873D01*
X166116788Y-88801232D01*
X166256928Y-88699414D01*
X166379414Y-88576928D01*
X166481232Y-88436788D01*
X166559873Y-88282445D01*
X166613402Y-88117701D01*
X166640500Y-87946611D01*
X166640500Y-87773389D01*
X166613402Y-87602299D01*
X166559873Y-87437555D01*
X166481232Y-87283212D01*
X166481230Y-87283209D01*
X166481229Y-87283207D01*
X166379418Y-87143077D01*
X166379416Y-87143075D01*
X166379414Y-87143072D01*
X166256928Y-87020586D01*
X166256924Y-87020583D01*
X166256922Y-87020581D01*
X166116792Y-86918770D01*
X165962443Y-86840126D01*
X165962434Y-86840122D01*
X165921470Y-86826813D01*
X165836702Y-86779342D01*
X165776554Y-86703045D01*
X165750182Y-86609538D01*
X165761601Y-86513056D01*
X165809072Y-86428288D01*
X165885369Y-86368140D01*
X165921470Y-86353187D01*
X165962434Y-86339877D01*
X165962437Y-86339875D01*
X165962445Y-86339873D01*
X166116788Y-86261232D01*
X166256928Y-86159414D01*
X166379414Y-86036928D01*
X166481232Y-85896788D01*
X166559873Y-85742445D01*
X166613402Y-85577701D01*
X166640500Y-85406611D01*
X166640500Y-85233389D01*
X166613402Y-85062299D01*
X166559873Y-84897555D01*
X166481232Y-84743212D01*
X166481230Y-84743209D01*
X166481229Y-84743207D01*
X166379418Y-84603077D01*
X166379416Y-84603075D01*
X166379414Y-84603072D01*
X166256928Y-84480586D01*
X166256924Y-84480583D01*
X166256922Y-84480581D01*
X166116792Y-84378770D01*
X165962443Y-84300126D01*
X165962434Y-84300122D01*
X165921470Y-84286813D01*
X165836702Y-84239342D01*
X165776554Y-84163045D01*
X165750182Y-84069538D01*
X165761601Y-83973056D01*
X165809072Y-83888288D01*
X165885369Y-83828140D01*
X165921470Y-83813187D01*
X165962434Y-83799877D01*
X165962437Y-83799875D01*
X165962445Y-83799873D01*
X166116788Y-83721232D01*
X166256928Y-83619414D01*
X166379414Y-83496928D01*
X166481232Y-83356788D01*
X166559873Y-83202445D01*
X166613402Y-83037701D01*
X166640500Y-82866611D01*
X166640500Y-82693389D01*
X166613402Y-82522299D01*
X166559873Y-82357555D01*
X166481232Y-82203212D01*
X166481230Y-82203209D01*
X166481229Y-82203207D01*
X166379418Y-82063077D01*
X166379416Y-82063075D01*
X166379414Y-82063072D01*
X166256928Y-81940586D01*
X166256924Y-81940583D01*
X166256922Y-81940581D01*
X166116792Y-81838770D01*
X165962443Y-81760126D01*
X165962434Y-81760122D01*
X165921470Y-81746813D01*
X165836702Y-81699342D01*
X165776554Y-81623045D01*
X165750182Y-81529538D01*
X165761601Y-81433056D01*
X165809072Y-81348288D01*
X165885369Y-81288140D01*
X165921470Y-81273187D01*
X165962434Y-81259877D01*
X165962437Y-81259875D01*
X165962445Y-81259873D01*
X166116788Y-81181232D01*
X166256928Y-81079414D01*
X166379414Y-80956928D01*
X166481232Y-80816788D01*
X166559873Y-80662445D01*
X166613402Y-80497701D01*
X166640500Y-80326611D01*
X166640500Y-80153389D01*
X166613402Y-79982299D01*
X166559873Y-79817555D01*
X166481232Y-79663212D01*
X166481230Y-79663209D01*
X166481229Y-79663207D01*
X166379418Y-79523077D01*
X166379416Y-79523075D01*
X166379414Y-79523072D01*
X166256928Y-79400586D01*
X166256924Y-79400583D01*
X166256922Y-79400581D01*
X166116792Y-79298770D01*
X165962443Y-79220126D01*
X165962434Y-79220122D01*
X165921470Y-79206813D01*
X165836702Y-79159342D01*
X165776554Y-79083045D01*
X165750182Y-78989538D01*
X165761601Y-78893056D01*
X165809072Y-78808288D01*
X165885369Y-78748140D01*
X165921470Y-78733187D01*
X165962434Y-78719877D01*
X165962437Y-78719875D01*
X165962445Y-78719873D01*
X166116788Y-78641232D01*
X166256928Y-78539414D01*
X166379414Y-78416928D01*
X166481232Y-78276788D01*
X166559873Y-78122445D01*
X166613402Y-77957701D01*
X166640500Y-77786611D01*
X166640500Y-77613389D01*
X166613402Y-77442299D01*
X166559873Y-77277555D01*
X166481232Y-77123212D01*
X166481230Y-77123209D01*
X166481229Y-77123207D01*
X166379418Y-76983077D01*
X166379416Y-76983075D01*
X166379414Y-76983072D01*
X166256928Y-76860586D01*
X166256924Y-76860583D01*
X166256922Y-76860581D01*
X166116792Y-76758770D01*
X165962443Y-76680126D01*
X165962434Y-76680122D01*
X165921470Y-76666813D01*
X165836702Y-76619342D01*
X165776554Y-76543045D01*
X165750182Y-76449538D01*
X165761601Y-76353056D01*
X165809072Y-76268288D01*
X165885369Y-76208140D01*
X165921470Y-76193187D01*
X165962434Y-76179877D01*
X165962437Y-76179875D01*
X165962445Y-76179873D01*
X166116788Y-76101232D01*
X166256928Y-75999414D01*
X166379414Y-75876928D01*
X166481232Y-75736788D01*
X166559873Y-75582445D01*
X166613402Y-75417701D01*
X166640500Y-75246611D01*
X166640500Y-75073389D01*
X166613402Y-74902299D01*
X166559873Y-74737555D01*
X166481232Y-74583212D01*
X166481230Y-74583209D01*
X166481229Y-74583207D01*
X166379418Y-74443077D01*
X166379416Y-74443075D01*
X166379414Y-74443072D01*
X166256928Y-74320586D01*
X166256924Y-74320583D01*
X166256922Y-74320581D01*
X166116792Y-74218770D01*
X165962443Y-74140126D01*
X165962434Y-74140122D01*
X165921470Y-74126813D01*
X165836702Y-74079342D01*
X165776554Y-74003045D01*
X165750182Y-73909538D01*
X165761601Y-73813056D01*
X165809072Y-73728288D01*
X165885369Y-73668140D01*
X165921470Y-73653187D01*
X165962434Y-73639877D01*
X165962437Y-73639875D01*
X165962445Y-73639873D01*
X166116788Y-73561232D01*
X166256928Y-73459414D01*
X166379414Y-73336928D01*
X166481232Y-73196788D01*
X166559873Y-73042445D01*
X166613402Y-72877701D01*
X166640500Y-72706611D01*
X166640500Y-72533389D01*
X166613402Y-72362299D01*
X166559873Y-72197555D01*
X166481232Y-72043212D01*
X166481230Y-72043209D01*
X166481229Y-72043207D01*
X166379418Y-71903077D01*
X166379416Y-71903075D01*
X166379414Y-71903072D01*
X166256928Y-71780586D01*
X166256924Y-71780583D01*
X166256922Y-71780581D01*
X166116792Y-71678770D01*
X165962443Y-71600126D01*
X165962434Y-71600122D01*
X165921470Y-71586813D01*
X165836702Y-71539342D01*
X165776554Y-71463045D01*
X165750182Y-71369538D01*
X165761601Y-71273056D01*
X165809072Y-71188288D01*
X165885369Y-71128140D01*
X165921470Y-71113187D01*
X165962434Y-71099877D01*
X165962437Y-71099875D01*
X165962445Y-71099873D01*
X166116788Y-71021232D01*
X166256928Y-70919414D01*
X166379414Y-70796928D01*
X166481232Y-70656788D01*
X166559873Y-70502445D01*
X166613402Y-70337701D01*
X166640500Y-70166611D01*
X166640500Y-69993389D01*
X166613402Y-69822299D01*
X166559873Y-69657555D01*
X166481232Y-69503212D01*
X166481230Y-69503209D01*
X166481229Y-69503207D01*
X166379418Y-69363077D01*
X166379416Y-69363075D01*
X166379414Y-69363072D01*
X166256928Y-69240586D01*
X166256924Y-69240583D01*
X166256922Y-69240581D01*
X166116792Y-69138770D01*
X165962443Y-69060126D01*
X165962434Y-69060122D01*
X165921470Y-69046813D01*
X165836702Y-68999342D01*
X165776554Y-68923045D01*
X165750182Y-68829538D01*
X165761601Y-68733056D01*
X165809072Y-68648288D01*
X165885369Y-68588140D01*
X165921470Y-68573187D01*
X165962434Y-68559877D01*
X165962437Y-68559875D01*
X165962445Y-68559873D01*
X166116788Y-68481232D01*
X166256928Y-68379414D01*
X166379414Y-68256928D01*
X166481232Y-68116788D01*
X166559873Y-67962445D01*
X166613402Y-67797701D01*
X166640500Y-67626611D01*
X166640500Y-67453389D01*
X166613402Y-67282299D01*
X166559873Y-67117555D01*
X166481232Y-66963212D01*
X166481230Y-66963209D01*
X166481229Y-66963207D01*
X166379418Y-66823077D01*
X166379416Y-66823075D01*
X166379414Y-66823072D01*
X166256928Y-66700586D01*
X166256924Y-66700583D01*
X166256922Y-66700581D01*
X166116792Y-66598770D01*
X165962443Y-66520126D01*
X165962434Y-66520122D01*
X165921470Y-66506813D01*
X165836702Y-66459342D01*
X165776554Y-66383045D01*
X165750182Y-66289538D01*
X165761601Y-66193056D01*
X165809072Y-66108288D01*
X165885369Y-66048140D01*
X165921470Y-66033187D01*
X165962434Y-66019877D01*
X165962437Y-66019875D01*
X165962445Y-66019873D01*
X166116788Y-65941232D01*
X166256928Y-65839414D01*
X166379414Y-65716928D01*
X166481232Y-65576788D01*
X166559873Y-65422445D01*
X166613402Y-65257701D01*
X166640500Y-65086611D01*
X166640500Y-64913389D01*
X166613402Y-64742299D01*
X166559873Y-64577555D01*
X166481232Y-64423212D01*
X166481230Y-64423209D01*
X166481229Y-64423207D01*
X166379418Y-64283077D01*
X166379416Y-64283075D01*
X166379414Y-64283072D01*
X166256928Y-64160586D01*
X166256924Y-64160583D01*
X166256922Y-64160581D01*
X166116792Y-64058770D01*
X165962443Y-63980126D01*
X165962434Y-63980122D01*
X165921470Y-63966813D01*
X165905754Y-63958011D01*
X165888353Y-63953355D01*
X165863751Y-63934490D01*
X165836702Y-63919342D01*
X165825550Y-63905196D01*
X165811256Y-63894235D01*
X165795746Y-63867390D01*
X165776554Y-63843045D01*
X165771664Y-63825708D01*
X165762653Y-63810111D01*
X165758596Y-63779374D01*
X165750182Y-63749538D01*
X165752298Y-63731651D01*
X165749942Y-63713791D01*
X165757957Y-63683839D01*
X165761601Y-63653056D01*
X165770402Y-63637340D01*
X165775059Y-63619939D01*
X165793923Y-63595337D01*
X165809072Y-63568288D01*
X165823217Y-63557136D01*
X165834179Y-63542842D01*
X165859934Y-63528191D01*
X165885369Y-63508140D01*
X165918303Y-63494239D01*
X165919867Y-63493707D01*
X165962445Y-63479873D01*
X165966176Y-63477971D01*
X165978633Y-63473739D01*
X166018902Y-63468424D01*
X166058732Y-63460500D01*
X169442440Y-63460500D01*
X169537728Y-63479454D01*
G37*
%TD.AperFunction*%
%TA.AperFunction,Conductor*%
G36*
X127224596Y-115871043D02*
G01*
X127230084Y-115879257D01*
X127237847Y-115885375D01*
X127256907Y-115919400D01*
X127278572Y-115951824D01*
X127285329Y-115970137D01*
X127286691Y-115974327D01*
X127298123Y-116070807D01*
X127271763Y-116164318D01*
X127211625Y-116240623D01*
X127126863Y-116288105D01*
X127030383Y-116299537D01*
X126936872Y-116273177D01*
X126873818Y-116227372D01*
X126629408Y-115982962D01*
X126692993Y-115965925D01*
X126807007Y-115900099D01*
X126900099Y-115807007D01*
X126965925Y-115692993D01*
X126982962Y-115629408D01*
X127224596Y-115871043D01*
G37*
%TD.AperFunction*%
%TA.AperFunction,Conductor*%
G36*
X126063173Y-114726844D02*
G01*
X126126180Y-114772625D01*
X126370592Y-115017037D01*
X126307007Y-115034075D01*
X126192993Y-115099901D01*
X126099901Y-115192993D01*
X126034075Y-115307007D01*
X126017037Y-115370591D01*
X125775401Y-115128955D01*
X125721425Y-115048173D01*
X125714657Y-115029826D01*
X125713289Y-115025617D01*
X125701879Y-114929137D01*
X125728259Y-114835632D01*
X125788414Y-114759339D01*
X125873186Y-114711875D01*
X125969668Y-114700464D01*
X126063173Y-114726844D01*
G37*
%TD.AperFunction*%
%TA.AperFunction,Conductor*%
G36*
X127145178Y-114718648D02*
G01*
X127225959Y-114772624D01*
X127279936Y-114853406D01*
X127298890Y-114948694D01*
X127286699Y-115025653D01*
X127285337Y-115029844D01*
X127237860Y-115114608D01*
X127224598Y-115128954D01*
X126982962Y-115370590D01*
X126965925Y-115307007D01*
X126900099Y-115192993D01*
X126807007Y-115099901D01*
X126692993Y-115034075D01*
X126629407Y-115017037D01*
X126873820Y-114772625D01*
X126954602Y-114718648D01*
X127049890Y-114699694D01*
X127145178Y-114718648D01*
G37*
%TD.AperFunction*%
%TA.AperFunction,Conductor*%
G36*
X188250000Y-111823013D02*
G01*
X188297907Y-111894712D01*
X188316861Y-111990000D01*
X188297907Y-112085288D01*
X188250000Y-112156986D01*
X188250000Y-112944314D01*
X188245606Y-112939920D01*
X188154394Y-112887259D01*
X188052661Y-112860000D01*
X187947339Y-112860000D01*
X187845606Y-112887259D01*
X187754394Y-112939920D01*
X187750000Y-112944314D01*
X187750000Y-112156986D01*
X187702093Y-112085288D01*
X187683139Y-111990000D01*
X187702093Y-111894712D01*
X187750000Y-111823013D01*
X187750000Y-111035686D01*
X187754394Y-111040080D01*
X187845606Y-111092741D01*
X187947339Y-111120000D01*
X188052661Y-111120000D01*
X188154394Y-111092741D01*
X188245606Y-111040080D01*
X188250000Y-111035686D01*
X188250000Y-111823013D01*
G37*
%TD.AperFunction*%
%TA.AperFunction,Conductor*%
G36*
X157345788Y-60939454D02*
G01*
X157426570Y-60993430D01*
X157480546Y-61074212D01*
X157499500Y-61169500D01*
X157499500Y-62604417D01*
X157480546Y-62699705D01*
X157470058Y-62720215D01*
X157465185Y-62730667D01*
X157410002Y-62897197D01*
X157410001Y-62897204D01*
X157399500Y-62999988D01*
X157399500Y-63999997D01*
X157399501Y-64000014D01*
X157410001Y-64102800D01*
X157465185Y-64269334D01*
X157471314Y-64282476D01*
X157469327Y-64283402D01*
X157496318Y-64355903D01*
X157499500Y-64395581D01*
X157499500Y-65554417D01*
X157480546Y-65649705D01*
X157470058Y-65670215D01*
X157465185Y-65680667D01*
X157410002Y-65847197D01*
X157410001Y-65847204D01*
X157399500Y-65949988D01*
X157399500Y-66949997D01*
X157399501Y-66950014D01*
X157410001Y-67052800D01*
X157465184Y-67219331D01*
X157466446Y-67222036D01*
X157467476Y-67226245D01*
X157469747Y-67233099D01*
X157469197Y-67233281D01*
X157489537Y-67316407D01*
X157474757Y-67412431D01*
X157424354Y-67495490D01*
X157346004Y-67552938D01*
X157251633Y-67576029D01*
X157155609Y-67561249D01*
X157072550Y-67510846D01*
X157064704Y-67503336D01*
X155036366Y-65474998D01*
X152978416Y-63417048D01*
X152893784Y-63360500D01*
X152855495Y-63334916D01*
X152855487Y-63334912D01*
X152718914Y-63278342D01*
X152718911Y-63278341D01*
X152573920Y-63249500D01*
X152573918Y-63249500D01*
X147005421Y-63249500D01*
X146910133Y-63230546D01*
X146829351Y-63176570D01*
X146803976Y-63146859D01*
X146725451Y-63038779D01*
X146725449Y-63038776D01*
X146561224Y-62874551D01*
X146554569Y-62869716D01*
X146373334Y-62738041D01*
X146373333Y-62738040D01*
X146373331Y-62738039D01*
X146166396Y-62632600D01*
X146166393Y-62632599D01*
X146166391Y-62632598D01*
X145945514Y-62560831D01*
X145945509Y-62560829D01*
X145716135Y-62524501D01*
X145716126Y-62524500D01*
X145716124Y-62524500D01*
X145483876Y-62524500D01*
X145483873Y-62524500D01*
X145483864Y-62524501D01*
X145254490Y-62560829D01*
X145254485Y-62560831D01*
X145033608Y-62632598D01*
X145033604Y-62632599D01*
X145033604Y-62632600D01*
X145025960Y-62636495D01*
X144826665Y-62738041D01*
X144638779Y-62874548D01*
X144474548Y-63038779D01*
X144338041Y-63226665D01*
X144232598Y-63433608D01*
X144160831Y-63654485D01*
X144160829Y-63654490D01*
X144124501Y-63883864D01*
X144124500Y-63883880D01*
X144124500Y-64116119D01*
X144124501Y-64116135D01*
X144160829Y-64345509D01*
X144160831Y-64345514D01*
X144232536Y-64566201D01*
X144232600Y-64566396D01*
X144335503Y-64768353D01*
X144338041Y-64773334D01*
X144439789Y-64913378D01*
X144474551Y-64961224D01*
X144638776Y-65125449D01*
X144826669Y-65261961D01*
X145033604Y-65367400D01*
X145254486Y-65439169D01*
X145254488Y-65439169D01*
X145254490Y-65439170D01*
X145434913Y-65467745D01*
X145483876Y-65475500D01*
X145483880Y-65475500D01*
X145716120Y-65475500D01*
X145716124Y-65475500D01*
X145843059Y-65455395D01*
X145945509Y-65439170D01*
X145945509Y-65439169D01*
X145945514Y-65439169D01*
X146166396Y-65367400D01*
X146373331Y-65261961D01*
X146561224Y-65125449D01*
X146725449Y-64961224D01*
X146803976Y-64853141D01*
X146875319Y-64787192D01*
X146966469Y-64753566D01*
X147005421Y-64750500D01*
X152085992Y-64750500D01*
X152181280Y-64769454D01*
X152262062Y-64823430D01*
X153075606Y-65636974D01*
X153129582Y-65717756D01*
X153148536Y-65813044D01*
X153129582Y-65908332D01*
X153075606Y-65989114D01*
X152994824Y-66043090D01*
X152899536Y-66062044D01*
X152804248Y-66043090D01*
X152804246Y-66043089D01*
X152791839Y-66037949D01*
X152734006Y-66026445D01*
X152695188Y-66018724D01*
X152598541Y-65999500D01*
X152598538Y-65999500D01*
X129517561Y-65999500D01*
X129422273Y-65980546D01*
X129341491Y-65926570D01*
X127298840Y-63883919D01*
X139125000Y-63883919D01*
X139125000Y-64116080D01*
X139125001Y-64116096D01*
X139161317Y-64345391D01*
X139233063Y-64566201D01*
X139233066Y-64566208D01*
X139338465Y-64773064D01*
X139338471Y-64773075D01*
X139395237Y-64851207D01*
X139998957Y-64247486D01*
X140023978Y-64307890D01*
X140095112Y-64414351D01*
X140185649Y-64504888D01*
X140292110Y-64576022D01*
X140352510Y-64601041D01*
X139748791Y-65204761D01*
X139826930Y-65261531D01*
X139826932Y-65261533D01*
X140033791Y-65366933D01*
X140033798Y-65366936D01*
X140254608Y-65438682D01*
X140483903Y-65474998D01*
X140483919Y-65475000D01*
X140716081Y-65475000D01*
X140716096Y-65474998D01*
X140945391Y-65438682D01*
X141166199Y-65366937D01*
X141373071Y-65261530D01*
X141451207Y-65204761D01*
X140847487Y-64601041D01*
X140907890Y-64576022D01*
X141014351Y-64504888D01*
X141104888Y-64414351D01*
X141176022Y-64307890D01*
X141201041Y-64247487D01*
X141804761Y-64851207D01*
X141861530Y-64773071D01*
X141966937Y-64566199D01*
X142038682Y-64345391D01*
X142074998Y-64116096D01*
X142075000Y-64116080D01*
X142075000Y-63883919D01*
X142074998Y-63883903D01*
X142038682Y-63654608D01*
X141966936Y-63433798D01*
X141966933Y-63433791D01*
X141861533Y-63226932D01*
X141861531Y-63226930D01*
X141804761Y-63148791D01*
X141201041Y-63752510D01*
X141176022Y-63692110D01*
X141104888Y-63585649D01*
X141014351Y-63495112D01*
X140907890Y-63423978D01*
X140847486Y-63398957D01*
X141451207Y-62795237D01*
X141373075Y-62738471D01*
X141373064Y-62738465D01*
X141166208Y-62633066D01*
X141166201Y-62633063D01*
X140945391Y-62561317D01*
X140716096Y-62525001D01*
X140716081Y-62525000D01*
X140483919Y-62525000D01*
X140483903Y-62525001D01*
X140254608Y-62561317D01*
X140033798Y-62633063D01*
X140033796Y-62633064D01*
X139826937Y-62738463D01*
X139748790Y-62795238D01*
X140352511Y-63398958D01*
X140292110Y-63423978D01*
X140185649Y-63495112D01*
X140095112Y-63585649D01*
X140023978Y-63692110D01*
X139998958Y-63752511D01*
X139395238Y-63148790D01*
X139338463Y-63226937D01*
X139233064Y-63433796D01*
X139233063Y-63433798D01*
X139161317Y-63654608D01*
X139125001Y-63883903D01*
X139125000Y-63883919D01*
X127298840Y-63883919D01*
X126885511Y-63470590D01*
X126875934Y-63456258D01*
X126863051Y-63444810D01*
X126853856Y-63423214D01*
X126831535Y-63389808D01*
X126820650Y-63357395D01*
X126817562Y-63345562D01*
X126792862Y-63189611D01*
X126728389Y-62991184D01*
X126633670Y-62805286D01*
X126511035Y-62636495D01*
X126363505Y-62488965D01*
X126194714Y-62366330D01*
X126008816Y-62271611D01*
X126008815Y-62271610D01*
X126008814Y-62271610D01*
X126008808Y-62271608D01*
X125885817Y-62231646D01*
X125810389Y-62207138D01*
X125810387Y-62207137D01*
X125810385Y-62207137D01*
X125604330Y-62174501D01*
X125604321Y-62174500D01*
X125604319Y-62174500D01*
X125395681Y-62174500D01*
X125395678Y-62174500D01*
X125395669Y-62174501D01*
X125189614Y-62207137D01*
X124991191Y-62271608D01*
X124991185Y-62271610D01*
X124805286Y-62366330D01*
X124636497Y-62488963D01*
X124488963Y-62636497D01*
X124366330Y-62805286D01*
X124271610Y-62991185D01*
X124271608Y-62991191D01*
X124207137Y-63189614D01*
X124174501Y-63395669D01*
X124174500Y-63395685D01*
X124174500Y-63604314D01*
X124174501Y-63604330D01*
X124207094Y-63810111D01*
X124207138Y-63810389D01*
X124216015Y-63837708D01*
X124268745Y-63999997D01*
X124271611Y-64008816D01*
X124366330Y-64194714D01*
X124488965Y-64363505D01*
X124636495Y-64511035D01*
X124805286Y-64633670D01*
X124991184Y-64728389D01*
X125189611Y-64792862D01*
X125333477Y-64815648D01*
X125424622Y-64849273D01*
X125470590Y-64885510D01*
X126874617Y-66289538D01*
X128222860Y-67637781D01*
X128222861Y-67637782D01*
X128222860Y-67637782D01*
X128334579Y-67749500D01*
X128362218Y-67777139D01*
X128526086Y-67886632D01*
X128599519Y-67917048D01*
X128599521Y-67917050D01*
X128708164Y-67962051D01*
X128708167Y-67962052D01*
X128898884Y-67999987D01*
X128901459Y-68000500D01*
X134544426Y-68000500D01*
X134639714Y-68019454D01*
X134720496Y-68073430D01*
X134774472Y-68154212D01*
X134793426Y-68249500D01*
X134774472Y-68344788D01*
X134720496Y-68425570D01*
X134652463Y-68473841D01*
X134377138Y-68606430D01*
X134377114Y-68606443D01*
X134117450Y-68769601D01*
X133877681Y-68960809D01*
X133660809Y-69177681D01*
X133469601Y-69417450D01*
X133306443Y-69677114D01*
X133306430Y-69677138D01*
X133173369Y-69953442D01*
X133072081Y-70242908D01*
X133072075Y-70242929D01*
X133003839Y-70541893D01*
X133003837Y-70541910D01*
X132969500Y-70846645D01*
X132969500Y-71153354D01*
X133003837Y-71458089D01*
X133003839Y-71458106D01*
X133072075Y-71757070D01*
X133072081Y-71757091D01*
X133173369Y-72046557D01*
X133264641Y-72236086D01*
X133306437Y-72322875D01*
X133306441Y-72322881D01*
X133306443Y-72322885D01*
X133469601Y-72582549D01*
X133660809Y-72822318D01*
X133660812Y-72822321D01*
X133660816Y-72822326D01*
X133662923Y-72824433D01*
X133663587Y-72825427D01*
X133665463Y-72827526D01*
X133665170Y-72827787D01*
X133665172Y-72827789D01*
X133665167Y-72827792D01*
X133716897Y-72905212D01*
X133735851Y-73000500D01*
X133716897Y-73095788D01*
X133662921Y-73176570D01*
X133582139Y-73230546D01*
X133486851Y-73249500D01*
X127685403Y-73249500D01*
X127590115Y-73230546D01*
X127509333Y-73176570D01*
X127473474Y-73131218D01*
X127442905Y-73081658D01*
X127442712Y-73081344D01*
X127318656Y-72957288D01*
X127169334Y-72865186D01*
X127169332Y-72865185D01*
X127169330Y-72865184D01*
X127169332Y-72865184D01*
X127002802Y-72810002D01*
X127002798Y-72810001D01*
X127002797Y-72810001D01*
X126900009Y-72799500D01*
X126900005Y-72799500D01*
X126099993Y-72799500D01*
X125997199Y-72810001D01*
X125830667Y-72865185D01*
X125681346Y-72957286D01*
X125681344Y-72957287D01*
X125681344Y-72957288D01*
X125676066Y-72962565D01*
X125595288Y-73016539D01*
X125500000Y-73035493D01*
X125404712Y-73016539D01*
X125323933Y-72962565D01*
X125318656Y-72957288D01*
X125169334Y-72865186D01*
X125169332Y-72865185D01*
X125169330Y-72865184D01*
X125169332Y-72865184D01*
X125002802Y-72810002D01*
X125002798Y-72810001D01*
X125002797Y-72810001D01*
X124900009Y-72799500D01*
X124900005Y-72799500D01*
X124099993Y-72799500D01*
X123997199Y-72810001D01*
X123830667Y-72865185D01*
X123681346Y-72957286D01*
X123557286Y-73081346D01*
X123526526Y-73131218D01*
X123506779Y-73152455D01*
X123490667Y-73176570D01*
X123474008Y-73187700D01*
X123460370Y-73202369D01*
X123433999Y-73214433D01*
X123409885Y-73230546D01*
X123390238Y-73234453D01*
X123372022Y-73242788D01*
X123314597Y-73249500D01*
X123185403Y-73249500D01*
X123090115Y-73230546D01*
X123009333Y-73176570D01*
X122973474Y-73131218D01*
X122942905Y-73081658D01*
X122942712Y-73081344D01*
X122818656Y-72957288D01*
X122669334Y-72865186D01*
X122669332Y-72865185D01*
X122669330Y-72865184D01*
X122669332Y-72865184D01*
X122502802Y-72810002D01*
X122502798Y-72810001D01*
X122502797Y-72810001D01*
X122400009Y-72799500D01*
X122400005Y-72799500D01*
X121649993Y-72799500D01*
X121547199Y-72810001D01*
X121380667Y-72865185D01*
X121231346Y-72957286D01*
X121231344Y-72957287D01*
X121231344Y-72957288D01*
X121175713Y-73012918D01*
X121094935Y-73066892D01*
X120999647Y-73085846D01*
X120904359Y-73066892D01*
X120823577Y-73012916D01*
X120768345Y-72957684D01*
X120768341Y-72957681D01*
X120619121Y-72865641D01*
X120619120Y-72865640D01*
X120452701Y-72810495D01*
X120452694Y-72810494D01*
X120349981Y-72800000D01*
X120225001Y-72800000D01*
X120225000Y-72800001D01*
X120225000Y-80279998D01*
X120225001Y-80279999D01*
X120349968Y-80279999D01*
X120349984Y-80279998D01*
X120452699Y-80269505D01*
X120452702Y-80269504D01*
X120619119Y-80214359D01*
X120619121Y-80214358D01*
X120768341Y-80122318D01*
X120768345Y-80122315D01*
X120823577Y-80067084D01*
X120904359Y-80013108D01*
X120999647Y-79994154D01*
X121094935Y-80013108D01*
X121175713Y-80067081D01*
X121231344Y-80122712D01*
X121380666Y-80214814D01*
X121380669Y-80214815D01*
X121380667Y-80214815D01*
X121544310Y-80269040D01*
X121547203Y-80269999D01*
X121649991Y-80280500D01*
X122400008Y-80280499D01*
X122502797Y-80269999D01*
X122669334Y-80214814D01*
X122818656Y-80122712D01*
X122942712Y-79998656D01*
X122973475Y-79948780D01*
X122993220Y-79927544D01*
X123009333Y-79903430D01*
X123025991Y-79892299D01*
X123039630Y-79877631D01*
X123066000Y-79865566D01*
X123090115Y-79849454D01*
X123109761Y-79845546D01*
X123127978Y-79837212D01*
X123185403Y-79830500D01*
X123367033Y-79830500D01*
X123462321Y-79849454D01*
X123543103Y-79903430D01*
X123551517Y-79912886D01*
X123618595Y-79979963D01*
X123681344Y-80042712D01*
X123830666Y-80134814D01*
X123830669Y-80134815D01*
X123830667Y-80134815D01*
X123953659Y-80175570D01*
X123997203Y-80189999D01*
X124099991Y-80200500D01*
X124900008Y-80200499D01*
X125002797Y-80189999D01*
X125169334Y-80134814D01*
X125318656Y-80042712D01*
X125323933Y-80037434D01*
X125404712Y-79983461D01*
X125500000Y-79964507D01*
X125595288Y-79983461D01*
X125676066Y-80037434D01*
X125681344Y-80042712D01*
X125830666Y-80134814D01*
X125830669Y-80134815D01*
X125830667Y-80134815D01*
X125953659Y-80175570D01*
X125997203Y-80189999D01*
X126099991Y-80200500D01*
X126900008Y-80200499D01*
X127002797Y-80189999D01*
X127169334Y-80134814D01*
X127318656Y-80042712D01*
X127442712Y-79918656D01*
X127473475Y-79868780D01*
X127539630Y-79797631D01*
X127627978Y-79757212D01*
X127685403Y-79750500D01*
X137246358Y-79750500D01*
X137341646Y-79769454D01*
X137422428Y-79823430D01*
X137476404Y-79904212D01*
X137495358Y-79999500D01*
X137476404Y-80094788D01*
X137422428Y-80175570D01*
X137359402Y-80221360D01*
X137326669Y-80238038D01*
X137138779Y-80374548D01*
X136974548Y-80538779D01*
X136838041Y-80726665D01*
X136732598Y-80933608D01*
X136660831Y-81154485D01*
X136660829Y-81154490D01*
X136624501Y-81383864D01*
X136624500Y-81383880D01*
X136624500Y-81616119D01*
X136624501Y-81616135D01*
X136660829Y-81845509D01*
X136660831Y-81845514D01*
X136732536Y-82066201D01*
X136732600Y-82066396D01*
X136838039Y-82273331D01*
X136838041Y-82273334D01*
X136899231Y-82357555D01*
X136974551Y-82461224D01*
X137138776Y-82625449D01*
X137326669Y-82761961D01*
X137533604Y-82867400D01*
X137754486Y-82939169D01*
X137754488Y-82939169D01*
X137754490Y-82939170D01*
X137934913Y-82967745D01*
X137983876Y-82975500D01*
X137983880Y-82975500D01*
X138216120Y-82975500D01*
X138216124Y-82975500D01*
X138348077Y-82954601D01*
X138445155Y-82958415D01*
X138533386Y-82999089D01*
X138563098Y-83024465D01*
X141517049Y-85978416D01*
X141517048Y-85978416D01*
X141575555Y-86036922D01*
X141621584Y-86082951D01*
X141744505Y-86165084D01*
X141881087Y-86221658D01*
X142026080Y-86250499D01*
X142026081Y-86250500D01*
X142026082Y-86250500D01*
X154323919Y-86250500D01*
X154323919Y-86250499D01*
X154468913Y-86221658D01*
X154605495Y-86165084D01*
X154675942Y-86118013D01*
X154728416Y-86082952D01*
X156237938Y-84573430D01*
X156318720Y-84519454D01*
X156414008Y-84500500D01*
X157189422Y-84500500D01*
X157284710Y-84519454D01*
X157365492Y-84573430D01*
X157419468Y-84654212D01*
X157438422Y-84749500D01*
X157419468Y-84844788D01*
X157365492Y-84925570D01*
X157302466Y-84971360D01*
X157213567Y-85016656D01*
X157022495Y-85155478D01*
X156855478Y-85322495D01*
X156716659Y-85513562D01*
X156609430Y-85724012D01*
X156536446Y-85948635D01*
X156499501Y-86181896D01*
X156499500Y-86181912D01*
X156499500Y-86418087D01*
X156499501Y-86418103D01*
X156536446Y-86651364D01*
X156536447Y-86651368D01*
X156553238Y-86703045D01*
X156597778Y-86840127D01*
X156609432Y-86875992D01*
X156683104Y-87020581D01*
X156716659Y-87086437D01*
X156855478Y-87277504D01*
X156855480Y-87277506D01*
X156855483Y-87277510D01*
X157022490Y-87444517D01*
X157022493Y-87444519D01*
X157022495Y-87444521D01*
X157213562Y-87583340D01*
X157213564Y-87583341D01*
X157213567Y-87583343D01*
X157424008Y-87690568D01*
X157648632Y-87763553D01*
X157648633Y-87763553D01*
X157649045Y-87763687D01*
X157733812Y-87811159D01*
X157793960Y-87887456D01*
X157820332Y-87980963D01*
X157808913Y-88077445D01*
X157761441Y-88162212D01*
X157685144Y-88222360D01*
X157591637Y-88248732D01*
X157572100Y-88249500D01*
X156414006Y-88249500D01*
X156318718Y-88230546D01*
X156237939Y-88176572D01*
X155478416Y-87417048D01*
X155478415Y-87417047D01*
X155478411Y-87417043D01*
X155404732Y-87367815D01*
X155404729Y-87367812D01*
X155404729Y-87367813D01*
X155355495Y-87334916D01*
X155218913Y-87278342D01*
X155218911Y-87278341D01*
X155073920Y-87249500D01*
X155073918Y-87249500D01*
X117356008Y-87249500D01*
X117260720Y-87230546D01*
X117179938Y-87176570D01*
X109333369Y-79330001D01*
X118900001Y-79330001D01*
X118900001Y-79579984D01*
X118910494Y-79682699D01*
X118910495Y-79682702D01*
X118965640Y-79849119D01*
X118965641Y-79849121D01*
X119057681Y-79998341D01*
X119057684Y-79998345D01*
X119181654Y-80122315D01*
X119181658Y-80122318D01*
X119330878Y-80214358D01*
X119330879Y-80214359D01*
X119497298Y-80269504D01*
X119497305Y-80269505D01*
X119600023Y-80279999D01*
X119725000Y-80279998D01*
X119725000Y-79330001D01*
X119724999Y-79330000D01*
X118900002Y-79330000D01*
X118900001Y-79330001D01*
X109333369Y-79330001D01*
X109059298Y-79055930D01*
X109005322Y-78975148D01*
X108986368Y-78879860D01*
X108989433Y-78840915D01*
X108999500Y-78777356D01*
X108999500Y-78580018D01*
X118900000Y-78580018D01*
X118900000Y-78829999D01*
X118900001Y-78830000D01*
X119724999Y-78830000D01*
X119725000Y-78829999D01*
X119725000Y-76750001D01*
X119724999Y-76750000D01*
X118900002Y-76750000D01*
X118900001Y-76750001D01*
X118900001Y-76999984D01*
X118910494Y-77102699D01*
X118910495Y-77102702D01*
X118965640Y-77269119D01*
X118965641Y-77269121D01*
X119057681Y-77418341D01*
X119057684Y-77418345D01*
X119181654Y-77542315D01*
X119181659Y-77542319D01*
X119239623Y-77578072D01*
X119310774Y-77644228D01*
X119351192Y-77732577D01*
X119354724Y-77829668D01*
X119320832Y-77920719D01*
X119254676Y-77991870D01*
X119239623Y-78001928D01*
X119181659Y-78037680D01*
X119181654Y-78037684D01*
X119057684Y-78161654D01*
X119057681Y-78161658D01*
X118965641Y-78310878D01*
X118965640Y-78310879D01*
X118910495Y-78477298D01*
X118910494Y-78477305D01*
X118900000Y-78580018D01*
X108999500Y-78580018D01*
X108999500Y-78558644D01*
X108965286Y-78342625D01*
X108897701Y-78134617D01*
X108798407Y-77939743D01*
X108669852Y-77762801D01*
X108515199Y-77608148D01*
X108338257Y-77479593D01*
X108338254Y-77479591D01*
X108338248Y-77479588D01*
X108143393Y-77380304D01*
X108143391Y-77380303D01*
X108143383Y-77380299D01*
X108143376Y-77380296D01*
X108143372Y-77380295D01*
X107935381Y-77312716D01*
X107935375Y-77312714D01*
X107935370Y-77312713D01*
X107935362Y-77312711D01*
X107719366Y-77278501D01*
X107719359Y-77278500D01*
X107719356Y-77278500D01*
X107500644Y-77278500D01*
X107500641Y-77278500D01*
X107500633Y-77278501D01*
X107284637Y-77312711D01*
X107284626Y-77312713D01*
X107284625Y-77312714D01*
X107284622Y-77312714D01*
X107284618Y-77312716D01*
X107076627Y-77380295D01*
X107076619Y-77380298D01*
X107076617Y-77380299D01*
X107076613Y-77380300D01*
X107076606Y-77380304D01*
X106881751Y-77479588D01*
X106881744Y-77479592D01*
X106704799Y-77608149D01*
X106550146Y-77762802D01*
X106541442Y-77774783D01*
X106470098Y-77840730D01*
X106378947Y-77874355D01*
X106281867Y-77870539D01*
X106193637Y-77829862D01*
X106138558Y-77774783D01*
X106129853Y-77762802D01*
X105975200Y-77608149D01*
X105973722Y-77607075D01*
X105798257Y-77479593D01*
X105798254Y-77479591D01*
X105798248Y-77479588D01*
X105603393Y-77380304D01*
X105603391Y-77380303D01*
X105603383Y-77380299D01*
X105603376Y-77380296D01*
X105603372Y-77380295D01*
X105395381Y-77312716D01*
X105395375Y-77312714D01*
X105395370Y-77312713D01*
X105395362Y-77312711D01*
X105179366Y-77278501D01*
X105179359Y-77278500D01*
X105179356Y-77278500D01*
X104960644Y-77278500D01*
X104960641Y-77278500D01*
X104960633Y-77278501D01*
X104744637Y-77312711D01*
X104744626Y-77312713D01*
X104744625Y-77312714D01*
X104744622Y-77312714D01*
X104744618Y-77312716D01*
X104536627Y-77380295D01*
X104536619Y-77380298D01*
X104536617Y-77380299D01*
X104536613Y-77380300D01*
X104536606Y-77380304D01*
X104341751Y-77479588D01*
X104341744Y-77479592D01*
X104164799Y-77608149D01*
X104010146Y-77762802D01*
X104001442Y-77774783D01*
X103930098Y-77840730D01*
X103838947Y-77874355D01*
X103741867Y-77870539D01*
X103653637Y-77829862D01*
X103598558Y-77774783D01*
X103589853Y-77762802D01*
X103435200Y-77608149D01*
X103433722Y-77607075D01*
X103258257Y-77479593D01*
X103258254Y-77479591D01*
X103258248Y-77479588D01*
X103063393Y-77380304D01*
X103063391Y-77380303D01*
X103063383Y-77380299D01*
X103063376Y-77380296D01*
X103063372Y-77380295D01*
X102855381Y-77312716D01*
X102855375Y-77312714D01*
X102855370Y-77312713D01*
X102855362Y-77312711D01*
X102639366Y-77278501D01*
X102639359Y-77278500D01*
X102639356Y-77278500D01*
X102420644Y-77278500D01*
X102420641Y-77278500D01*
X102420633Y-77278501D01*
X102204637Y-77312711D01*
X102204626Y-77312713D01*
X102204625Y-77312714D01*
X102204622Y-77312714D01*
X102204618Y-77312716D01*
X101996627Y-77380295D01*
X101996619Y-77380298D01*
X101996617Y-77380299D01*
X101996613Y-77380300D01*
X101996606Y-77380304D01*
X101801751Y-77479588D01*
X101801744Y-77479592D01*
X101624799Y-77608149D01*
X101470146Y-77762802D01*
X101461442Y-77774783D01*
X101390098Y-77840730D01*
X101298947Y-77874355D01*
X101201867Y-77870539D01*
X101113637Y-77829862D01*
X101058558Y-77774783D01*
X101049853Y-77762802D01*
X100895200Y-77608149D01*
X100893722Y-77607075D01*
X100718257Y-77479593D01*
X100718254Y-77479591D01*
X100718248Y-77479588D01*
X100523393Y-77380304D01*
X100523391Y-77380303D01*
X100523383Y-77380299D01*
X100523376Y-77380296D01*
X100523372Y-77380295D01*
X100315381Y-77312716D01*
X100315375Y-77312714D01*
X100315370Y-77312713D01*
X100315362Y-77312711D01*
X100099366Y-77278501D01*
X100099359Y-77278500D01*
X100099356Y-77278500D01*
X99880644Y-77278500D01*
X99880641Y-77278500D01*
X99880633Y-77278501D01*
X99664637Y-77312711D01*
X99664626Y-77312713D01*
X99664625Y-77312714D01*
X99664622Y-77312714D01*
X99664618Y-77312716D01*
X99456627Y-77380295D01*
X99456619Y-77380298D01*
X99456617Y-77380299D01*
X99456613Y-77380300D01*
X99456606Y-77380304D01*
X99261751Y-77479588D01*
X99261744Y-77479592D01*
X99084799Y-77608149D01*
X98930146Y-77762802D01*
X98921442Y-77774783D01*
X98850098Y-77840730D01*
X98758947Y-77874355D01*
X98661867Y-77870539D01*
X98573637Y-77829862D01*
X98518558Y-77774783D01*
X98509853Y-77762802D01*
X98355200Y-77608149D01*
X98353722Y-77607075D01*
X98178257Y-77479593D01*
X98178254Y-77479591D01*
X98178248Y-77479588D01*
X97983393Y-77380304D01*
X97983391Y-77380303D01*
X97983383Y-77380299D01*
X97983376Y-77380296D01*
X97983372Y-77380295D01*
X97775381Y-77312716D01*
X97775375Y-77312714D01*
X97775370Y-77312713D01*
X97775362Y-77312711D01*
X97559366Y-77278501D01*
X97559359Y-77278500D01*
X97559356Y-77278500D01*
X97340644Y-77278500D01*
X97340641Y-77278500D01*
X97340633Y-77278501D01*
X97124637Y-77312711D01*
X97124626Y-77312713D01*
X97124625Y-77312714D01*
X97124622Y-77312714D01*
X97124618Y-77312716D01*
X96916627Y-77380295D01*
X96916619Y-77380298D01*
X96916617Y-77380299D01*
X96916613Y-77380300D01*
X96916606Y-77380304D01*
X96721751Y-77479588D01*
X96721744Y-77479592D01*
X96544799Y-77608149D01*
X96390146Y-77762802D01*
X96381442Y-77774783D01*
X96310098Y-77840730D01*
X96218947Y-77874355D01*
X96121867Y-77870539D01*
X96033637Y-77829862D01*
X95978558Y-77774783D01*
X95969853Y-77762802D01*
X95815200Y-77608149D01*
X95813722Y-77607075D01*
X95638257Y-77479593D01*
X95638254Y-77479591D01*
X95638248Y-77479588D01*
X95443393Y-77380304D01*
X95443391Y-77380303D01*
X95443383Y-77380299D01*
X95443376Y-77380296D01*
X95443372Y-77380295D01*
X95235381Y-77312716D01*
X95235375Y-77312714D01*
X95235370Y-77312713D01*
X95235362Y-77312711D01*
X95019366Y-77278501D01*
X95019359Y-77278500D01*
X95019356Y-77278500D01*
X94800644Y-77278500D01*
X94800641Y-77278500D01*
X94800633Y-77278501D01*
X94584637Y-77312711D01*
X94584626Y-77312713D01*
X94584625Y-77312714D01*
X94584622Y-77312714D01*
X94584618Y-77312716D01*
X94376627Y-77380295D01*
X94376619Y-77380298D01*
X94376617Y-77380299D01*
X94376613Y-77380300D01*
X94376606Y-77380304D01*
X94181751Y-77479588D01*
X94181744Y-77479592D01*
X94004799Y-77608149D01*
X93850146Y-77762802D01*
X93841130Y-77775212D01*
X93769785Y-77841158D01*
X93678633Y-77874782D01*
X93581553Y-77870964D01*
X93493324Y-77830286D01*
X93438245Y-77775204D01*
X93429475Y-77763133D01*
X93274869Y-77608527D01*
X93097994Y-77480020D01*
X92903201Y-77380768D01*
X92903184Y-77380760D01*
X92695261Y-77313203D01*
X92695247Y-77313199D01*
X92620000Y-77301281D01*
X92620000Y-78234988D01*
X92562993Y-78202075D01*
X92435826Y-78168000D01*
X92304174Y-78168000D01*
X92177007Y-78202075D01*
X92120000Y-78234988D01*
X92120000Y-77301282D01*
X92119999Y-77301281D01*
X92044752Y-77313199D01*
X92044738Y-77313203D01*
X91836815Y-77380760D01*
X91836798Y-77380768D01*
X91642005Y-77480020D01*
X91465130Y-77608527D01*
X91310527Y-77763130D01*
X91301750Y-77775211D01*
X91230404Y-77841157D01*
X91139253Y-77874782D01*
X91042173Y-77870964D01*
X90953944Y-77830287D01*
X90898864Y-77775205D01*
X90890091Y-77763130D01*
X90889852Y-77762801D01*
X90735199Y-77608148D01*
X90558257Y-77479593D01*
X90558254Y-77479591D01*
X90558248Y-77479588D01*
X90363393Y-77380304D01*
X90363391Y-77380303D01*
X90363383Y-77380299D01*
X90363376Y-77380296D01*
X90363372Y-77380295D01*
X90155381Y-77312716D01*
X90155375Y-77312714D01*
X90155370Y-77312713D01*
X90155362Y-77312711D01*
X89939366Y-77278501D01*
X89939359Y-77278500D01*
X89939356Y-77278500D01*
X89720644Y-77278500D01*
X89720641Y-77278500D01*
X89720633Y-77278501D01*
X89504637Y-77312711D01*
X89504626Y-77312713D01*
X89504625Y-77312714D01*
X89504622Y-77312714D01*
X89504618Y-77312716D01*
X89296627Y-77380295D01*
X89296619Y-77380298D01*
X89296617Y-77380299D01*
X89296613Y-77380300D01*
X89296606Y-77380304D01*
X89101751Y-77479588D01*
X89101744Y-77479592D01*
X88924799Y-77608149D01*
X88770146Y-77762802D01*
X88761442Y-77774783D01*
X88734754Y-77799451D01*
X88710668Y-77826663D01*
X88699346Y-77832181D01*
X88690098Y-77840730D01*
X88656001Y-77853307D01*
X88623335Y-77869230D01*
X88610764Y-77869995D01*
X88598947Y-77874355D01*
X88562632Y-77872927D01*
X88526360Y-77875137D01*
X88514453Y-77871033D01*
X88501867Y-77870539D01*
X88468861Y-77855322D01*
X88434506Y-77843483D01*
X88425488Y-77835325D01*
X88413637Y-77829862D01*
X88361757Y-77779088D01*
X88360125Y-77776941D01*
X88349852Y-77762801D01*
X88347879Y-77760828D01*
X88341257Y-77752115D01*
X88323020Y-77714700D01*
X88302682Y-77678378D01*
X88301414Y-77670370D01*
X88298690Y-77664782D01*
X88297540Y-77645907D01*
X88290500Y-77601447D01*
X88290500Y-76000018D01*
X118900000Y-76000018D01*
X118900000Y-76249999D01*
X118900001Y-76250000D01*
X119724999Y-76250000D01*
X119725000Y-76249999D01*
X119725000Y-74250001D01*
X119724999Y-74250000D01*
X118900002Y-74250000D01*
X118900001Y-74250001D01*
X118900001Y-74499984D01*
X118910494Y-74602699D01*
X118910495Y-74602702D01*
X118965640Y-74769119D01*
X118965641Y-74769121D01*
X119057681Y-74918341D01*
X119057684Y-74918345D01*
X119181654Y-75042315D01*
X119193029Y-75051309D01*
X119191326Y-75053462D01*
X119245928Y-75104234D01*
X119286344Y-75192584D01*
X119289873Y-75289675D01*
X119255978Y-75380725D01*
X119192914Y-75448546D01*
X119193029Y-75448691D01*
X119192087Y-75449435D01*
X119189820Y-75451874D01*
X119184548Y-75455396D01*
X119181654Y-75457684D01*
X119057684Y-75581654D01*
X119057681Y-75581658D01*
X118965641Y-75730878D01*
X118965640Y-75730879D01*
X118910495Y-75897298D01*
X118910494Y-75897305D01*
X118900000Y-76000018D01*
X88290500Y-76000018D01*
X88290500Y-73500018D01*
X118900000Y-73500018D01*
X118900000Y-73749999D01*
X118900001Y-73750000D01*
X119724999Y-73750000D01*
X119725000Y-73749999D01*
X119725000Y-72799999D01*
X119600024Y-72800000D01*
X119497300Y-72810494D01*
X119497297Y-72810495D01*
X119330880Y-72865640D01*
X119330878Y-72865641D01*
X119181658Y-72957681D01*
X119181654Y-72957684D01*
X119057684Y-73081654D01*
X119057681Y-73081658D01*
X118965641Y-73230878D01*
X118965640Y-73230879D01*
X118910495Y-73397298D01*
X118910494Y-73397305D01*
X118900000Y-73500018D01*
X88290500Y-73500018D01*
X88290500Y-73227560D01*
X88309454Y-73132272D01*
X88363430Y-73051490D01*
X90841491Y-70573430D01*
X90922273Y-70519454D01*
X91017561Y-70500500D01*
X107098539Y-70500500D01*
X107098540Y-70500500D01*
X107098541Y-70500500D01*
X107195188Y-70481275D01*
X107291836Y-70462051D01*
X107345165Y-70439961D01*
X107473914Y-70386632D01*
X107637782Y-70277139D01*
X107777139Y-70137782D01*
X107777141Y-70137778D01*
X115287753Y-62627167D01*
X119095000Y-62627167D01*
X119095000Y-63249999D01*
X119095001Y-63250000D01*
X119929252Y-63250000D01*
X119907482Y-63287708D01*
X119870000Y-63427591D01*
X119870000Y-63572409D01*
X119907482Y-63712292D01*
X119929252Y-63750000D01*
X119095001Y-63750000D01*
X119095000Y-63750001D01*
X119095000Y-64372832D01*
X119101401Y-64432371D01*
X119101403Y-64432378D01*
X119151646Y-64567087D01*
X119237810Y-64682187D01*
X119237812Y-64682189D01*
X119352912Y-64768353D01*
X119487621Y-64818596D01*
X119487628Y-64818598D01*
X119547167Y-64824999D01*
X119547175Y-64825000D01*
X120169999Y-64825000D01*
X120170000Y-64824999D01*
X120170000Y-63990747D01*
X120207708Y-64012518D01*
X120347591Y-64050000D01*
X120492409Y-64050000D01*
X120632292Y-64012518D01*
X120670000Y-63990747D01*
X120670000Y-64824999D01*
X120670001Y-64825000D01*
X121292825Y-64825000D01*
X121292832Y-64824999D01*
X121352371Y-64818598D01*
X121352378Y-64818596D01*
X121487087Y-64768353D01*
X121602187Y-64682189D01*
X121602189Y-64682187D01*
X121688353Y-64567087D01*
X121738596Y-64432378D01*
X121738598Y-64432371D01*
X121744999Y-64372832D01*
X121745000Y-64372825D01*
X121745000Y-63750001D01*
X121744999Y-63750000D01*
X120910748Y-63750000D01*
X120932518Y-63712292D01*
X120970000Y-63572409D01*
X120970000Y-63427591D01*
X120932518Y-63287708D01*
X120910748Y-63250000D01*
X121744999Y-63250000D01*
X121745000Y-63249999D01*
X121745000Y-62627175D01*
X121744999Y-62627167D01*
X121738598Y-62567628D01*
X121738596Y-62567621D01*
X121688353Y-62432912D01*
X121602189Y-62317812D01*
X121602187Y-62317810D01*
X121487087Y-62231646D01*
X121352378Y-62181403D01*
X121352371Y-62181401D01*
X121292832Y-62175000D01*
X120670001Y-62175000D01*
X120670000Y-62175001D01*
X120670000Y-63009252D01*
X120632292Y-62987482D01*
X120492409Y-62950000D01*
X120347591Y-62950000D01*
X120207708Y-62987482D01*
X120170000Y-63009252D01*
X120170000Y-62175001D01*
X120169999Y-62175000D01*
X119547167Y-62175000D01*
X119487628Y-62181401D01*
X119487621Y-62181403D01*
X119352912Y-62231646D01*
X119237812Y-62317810D01*
X119237810Y-62317812D01*
X119151646Y-62432912D01*
X119101403Y-62567621D01*
X119101401Y-62567628D01*
X119095000Y-62627167D01*
X115287753Y-62627167D01*
X116921490Y-60993430D01*
X117002272Y-60939454D01*
X117097560Y-60920500D01*
X157250500Y-60920500D01*
X157345788Y-60939454D01*
G37*
%TD.AperFunction*%
%TA.AperFunction,Conductor*%
G36*
X147342749Y-79769454D02*
G01*
X147423531Y-79823430D01*
X147477507Y-79904212D01*
X147496461Y-79999500D01*
X147477507Y-80094788D01*
X147423531Y-80175570D01*
X147360503Y-80221361D01*
X147326939Y-80238462D01*
X147248790Y-80295238D01*
X147852511Y-80898958D01*
X147792110Y-80923978D01*
X147685649Y-80995112D01*
X147595112Y-81085649D01*
X147523978Y-81192110D01*
X147498958Y-81252511D01*
X146895238Y-80648790D01*
X146838463Y-80726937D01*
X146733064Y-80933796D01*
X146733063Y-80933798D01*
X146661317Y-81154608D01*
X146625001Y-81383903D01*
X146625000Y-81383919D01*
X146625000Y-81616080D01*
X146625001Y-81616096D01*
X146661317Y-81845391D01*
X146733063Y-82066201D01*
X146733066Y-82066208D01*
X146838465Y-82273065D01*
X146897371Y-82354142D01*
X146938045Y-82442373D01*
X146941859Y-82539453D01*
X146908232Y-82630603D01*
X146842283Y-82701946D01*
X146754052Y-82742620D01*
X146695925Y-82749500D01*
X145514007Y-82749500D01*
X145418719Y-82730546D01*
X145337937Y-82676570D01*
X144624465Y-81963098D01*
X144570489Y-81882316D01*
X144551535Y-81787028D01*
X144554601Y-81748075D01*
X144557169Y-81731861D01*
X144575500Y-81616124D01*
X144575500Y-81383876D01*
X144543405Y-81181229D01*
X144539170Y-81154490D01*
X144539169Y-81154488D01*
X144539169Y-81154486D01*
X144467400Y-80933604D01*
X144361961Y-80726669D01*
X144225449Y-80538776D01*
X144061224Y-80374551D01*
X143952059Y-80295238D01*
X143873330Y-80238038D01*
X143840598Y-80221360D01*
X143764300Y-80161212D01*
X143716829Y-80076444D01*
X143705410Y-79979963D01*
X143731782Y-79886456D01*
X143791930Y-79810158D01*
X143876698Y-79762687D01*
X143953642Y-79750500D01*
X147247461Y-79750500D01*
X147342749Y-79769454D01*
G37*
%TD.AperFunction*%
%TA.AperFunction,Conductor*%
G36*
X150681280Y-79769454D02*
G01*
X150762062Y-79823430D01*
X151761584Y-80822952D01*
X151835270Y-80872186D01*
X151884505Y-80905084D01*
X152021087Y-80961658D01*
X152166080Y-80990499D01*
X152166081Y-80990500D01*
X152166082Y-80990500D01*
X152166083Y-80990500D01*
X152313918Y-80990500D01*
X163831019Y-80990500D01*
X163926307Y-81009454D01*
X164007085Y-81063427D01*
X164023072Y-81079414D01*
X164023075Y-81079416D01*
X164023077Y-81079418D01*
X164163207Y-81181229D01*
X164163209Y-81181230D01*
X164163212Y-81181232D01*
X164317555Y-81259873D01*
X164336846Y-81266141D01*
X164358530Y-81273187D01*
X164443298Y-81320659D01*
X164503446Y-81396957D01*
X164529817Y-81490464D01*
X164518398Y-81586945D01*
X164470926Y-81671713D01*
X164394628Y-81731861D01*
X164358530Y-81746813D01*
X164317562Y-81760124D01*
X164317556Y-81760126D01*
X164163207Y-81838770D01*
X164023077Y-81940581D01*
X164023072Y-81940585D01*
X164023072Y-81940586D01*
X164007085Y-81956572D01*
X163926307Y-82010546D01*
X163831019Y-82029500D01*
X152146079Y-82029500D01*
X152001088Y-82058341D01*
X151864507Y-82114915D01*
X151864502Y-82114917D01*
X151815271Y-82147811D01*
X151815270Y-82147813D01*
X151811997Y-82150000D01*
X151741582Y-82197049D01*
X151262062Y-82676570D01*
X151181280Y-82730546D01*
X151085992Y-82749500D01*
X149504075Y-82749500D01*
X149408787Y-82730546D01*
X149328005Y-82676570D01*
X149274029Y-82595788D01*
X149255075Y-82500500D01*
X149274029Y-82405212D01*
X149302629Y-82354142D01*
X149361534Y-82273065D01*
X149466933Y-82066208D01*
X149466936Y-82066201D01*
X149538682Y-81845391D01*
X149574998Y-81616096D01*
X149575000Y-81616080D01*
X149575000Y-81383919D01*
X149574998Y-81383903D01*
X149538682Y-81154608D01*
X149466936Y-80933798D01*
X149466933Y-80933791D01*
X149361533Y-80726932D01*
X149361531Y-80726930D01*
X149304761Y-80648791D01*
X148701041Y-81252511D01*
X148676022Y-81192110D01*
X148604888Y-81085649D01*
X148514351Y-80995112D01*
X148407890Y-80923978D01*
X148347486Y-80898957D01*
X148951207Y-80295237D01*
X148873075Y-80238471D01*
X148873064Y-80238465D01*
X148839494Y-80221360D01*
X148763196Y-80161212D01*
X148715725Y-80076444D01*
X148704306Y-79979963D01*
X148730678Y-79886456D01*
X148790826Y-79810158D01*
X148875594Y-79762687D01*
X148952538Y-79750500D01*
X150585992Y-79750500D01*
X150681280Y-79769454D01*
G37*
%TD.AperFunction*%
%TA.AperFunction,Conductor*%
G36*
X163758585Y-60920823D02*
G01*
X163760220Y-60920521D01*
X163806205Y-60930296D01*
X163852245Y-60939454D01*
X163854006Y-60940457D01*
X163855252Y-60940722D01*
X163882464Y-60952413D01*
X163897669Y-60963796D01*
X163983232Y-60995709D01*
X163988795Y-60998099D01*
X164023924Y-61022243D01*
X164060171Y-61044634D01*
X164063777Y-61049635D01*
X164068862Y-61053130D01*
X164092077Y-61088879D01*
X164116997Y-61123437D01*
X164118415Y-61129438D01*
X164121775Y-61134612D01*
X164131061Y-61182952D01*
X164139341Y-61217987D01*
X164138632Y-61222360D01*
X164139500Y-61226877D01*
X164139500Y-61409124D01*
X164120546Y-61504412D01*
X164066570Y-61585194D01*
X164036862Y-61610567D01*
X164023074Y-61620584D01*
X163900581Y-61743077D01*
X163798770Y-61883207D01*
X163720126Y-62037556D01*
X163720124Y-62037562D01*
X163666597Y-62202302D01*
X163639501Y-62373378D01*
X163639500Y-62373393D01*
X163639500Y-62546606D01*
X163639501Y-62546621D01*
X163665003Y-62707630D01*
X163666598Y-62717701D01*
X163673206Y-62738039D01*
X163720124Y-62882437D01*
X163720126Y-62882443D01*
X163798770Y-63036792D01*
X163900581Y-63176922D01*
X163900583Y-63176924D01*
X163900586Y-63176928D01*
X164023072Y-63299414D01*
X164023075Y-63299416D01*
X164023077Y-63299418D01*
X164163207Y-63401229D01*
X164163209Y-63401230D01*
X164163212Y-63401232D01*
X164317555Y-63479873D01*
X164336846Y-63486141D01*
X164358530Y-63493187D01*
X164443298Y-63540659D01*
X164503446Y-63616957D01*
X164529817Y-63710464D01*
X164518398Y-63806945D01*
X164470926Y-63891713D01*
X164394628Y-63951861D01*
X164358530Y-63966813D01*
X164317562Y-63980124D01*
X164317556Y-63980126D01*
X164163207Y-64058770D01*
X164023077Y-64160581D01*
X163900581Y-64283077D01*
X163798770Y-64423207D01*
X163720126Y-64577556D01*
X163720124Y-64577562D01*
X163666597Y-64742302D01*
X163639501Y-64913378D01*
X163639500Y-64913393D01*
X163639500Y-65086606D01*
X163639501Y-65086621D01*
X163666597Y-65257697D01*
X163666598Y-65257701D01*
X163667843Y-65261533D01*
X163720124Y-65422437D01*
X163720126Y-65422443D01*
X163798770Y-65576792D01*
X163900581Y-65716922D01*
X163900583Y-65716924D01*
X163900586Y-65716928D01*
X164023072Y-65839414D01*
X164023075Y-65839416D01*
X164023077Y-65839418D01*
X164163207Y-65941229D01*
X164163209Y-65941230D01*
X164163212Y-65941232D01*
X164317555Y-66019873D01*
X164336846Y-66026141D01*
X164358530Y-66033187D01*
X164443298Y-66080659D01*
X164503446Y-66156957D01*
X164529817Y-66250464D01*
X164518398Y-66346945D01*
X164470926Y-66431713D01*
X164394628Y-66491861D01*
X164358530Y-66506813D01*
X164317562Y-66520124D01*
X164317556Y-66520126D01*
X164163207Y-66598770D01*
X164023077Y-66700581D01*
X164023072Y-66700585D01*
X164023072Y-66700586D01*
X164007085Y-66716572D01*
X163926307Y-66770546D01*
X163831019Y-66789500D01*
X163401073Y-66789500D01*
X163305785Y-66770546D01*
X163225003Y-66716570D01*
X163171027Y-66635788D01*
X163152073Y-66540500D01*
X163171027Y-66445212D01*
X163194036Y-66402165D01*
X163209391Y-66379183D01*
X163209394Y-66379179D01*
X163269737Y-66233497D01*
X163300500Y-66078842D01*
X163300500Y-65921158D01*
X163284240Y-65839414D01*
X163269738Y-65766507D01*
X163269737Y-65766505D01*
X163269737Y-65766503D01*
X163209394Y-65620821D01*
X163121789Y-65489711D01*
X163010289Y-65378211D01*
X162994111Y-65367401D01*
X162879180Y-65290606D01*
X162879173Y-65290603D01*
X162733497Y-65230263D01*
X162733492Y-65230261D01*
X162578846Y-65199500D01*
X162578842Y-65199500D01*
X162421158Y-65199500D01*
X162421153Y-65199500D01*
X162266507Y-65230261D01*
X162266502Y-65230263D01*
X162120826Y-65290603D01*
X162120819Y-65290606D01*
X161989714Y-65378208D01*
X161878208Y-65489714D01*
X161853782Y-65526270D01*
X161785082Y-65594968D01*
X161695322Y-65632146D01*
X161598167Y-65632145D01*
X161508408Y-65594964D01*
X161451426Y-65542365D01*
X161442715Y-65531348D01*
X161442713Y-65531346D01*
X161442712Y-65531344D01*
X161318656Y-65407288D01*
X161169334Y-65315186D01*
X161169332Y-65315185D01*
X161169330Y-65315184D01*
X161169332Y-65315184D01*
X161002802Y-65260002D01*
X161002798Y-65260001D01*
X161002797Y-65260001D01*
X160900009Y-65249500D01*
X160900005Y-65249500D01*
X160099993Y-65249500D01*
X159997198Y-65260001D01*
X159997196Y-65260002D01*
X159827822Y-65316127D01*
X159788433Y-65321021D01*
X159749500Y-65328766D01*
X159740507Y-65326977D01*
X159731408Y-65328108D01*
X159693138Y-65317555D01*
X159654212Y-65309812D01*
X159646589Y-65304718D01*
X159637749Y-65302281D01*
X159606436Y-65277890D01*
X159573430Y-65255836D01*
X159568334Y-65248210D01*
X159561103Y-65242577D01*
X159541509Y-65208062D01*
X159519454Y-65175054D01*
X159517665Y-65166060D01*
X159513139Y-65158088D01*
X159500500Y-65079766D01*
X159500500Y-64870233D01*
X159519454Y-64774945D01*
X159573430Y-64694163D01*
X159654212Y-64640187D01*
X159749500Y-64621233D01*
X159827822Y-64633872D01*
X159973628Y-64682187D01*
X159997203Y-64689999D01*
X160099991Y-64700500D01*
X160900008Y-64700499D01*
X161002797Y-64689999D01*
X161169334Y-64634814D01*
X161318656Y-64542712D01*
X161442712Y-64418656D01*
X161534814Y-64269334D01*
X161534816Y-64269329D01*
X161534849Y-64269260D01*
X161534914Y-64269170D01*
X161542427Y-64256991D01*
X161543403Y-64257593D01*
X161560420Y-64234387D01*
X161584446Y-64198430D01*
X161589036Y-64195362D01*
X161592300Y-64190912D01*
X161629268Y-64168481D01*
X161665228Y-64144454D01*
X161670642Y-64143376D01*
X161675361Y-64140514D01*
X161760516Y-64125500D01*
X161919731Y-64125500D01*
X162015019Y-64144454D01*
X162058067Y-64167464D01*
X162120814Y-64209390D01*
X162120818Y-64209392D01*
X162120821Y-64209394D01*
X162266503Y-64269737D01*
X162266505Y-64269737D01*
X162266507Y-64269738D01*
X162333542Y-64283072D01*
X162421158Y-64300500D01*
X162578842Y-64300500D01*
X162733497Y-64269737D01*
X162879179Y-64209394D01*
X163010289Y-64121789D01*
X163121789Y-64010289D01*
X163209394Y-63879179D01*
X163269737Y-63733497D01*
X163300500Y-63578842D01*
X163300500Y-63421158D01*
X163283345Y-63334916D01*
X163269738Y-63266507D01*
X163269737Y-63266505D01*
X163269737Y-63266503D01*
X163209394Y-63120821D01*
X163121789Y-62989711D01*
X163010289Y-62878211D01*
X163010285Y-62878208D01*
X162879180Y-62790606D01*
X162879173Y-62790603D01*
X162733497Y-62730263D01*
X162733492Y-62730261D01*
X162578846Y-62699500D01*
X162578842Y-62699500D01*
X162421158Y-62699500D01*
X162421153Y-62699500D01*
X162266507Y-62730261D01*
X162266502Y-62730263D01*
X162120826Y-62790603D01*
X162120814Y-62790609D01*
X162058067Y-62832536D01*
X162035411Y-62841920D01*
X162015019Y-62855546D01*
X161990966Y-62860330D01*
X161968308Y-62869716D01*
X161919731Y-62874500D01*
X161760516Y-62874500D01*
X161665228Y-62855546D01*
X161584446Y-62801570D01*
X161543134Y-62742572D01*
X161542427Y-62743009D01*
X161534936Y-62730865D01*
X161534849Y-62730740D01*
X161534816Y-62730670D01*
X161528367Y-62720215D01*
X161442712Y-62581344D01*
X161318656Y-62457288D01*
X161293320Y-62441661D01*
X161279136Y-62432912D01*
X161169334Y-62365186D01*
X161169332Y-62365185D01*
X161169330Y-62365184D01*
X161169332Y-62365184D01*
X161002802Y-62310002D01*
X161002798Y-62310001D01*
X161002797Y-62310001D01*
X160900009Y-62299500D01*
X160900005Y-62299500D01*
X160099993Y-62299500D01*
X159997198Y-62310001D01*
X159997196Y-62310002D01*
X159827822Y-62366127D01*
X159731408Y-62378108D01*
X159637749Y-62352281D01*
X159561103Y-62292577D01*
X159513139Y-62208088D01*
X159500500Y-62129766D01*
X159500500Y-61169500D01*
X159519454Y-61074212D01*
X159573430Y-60993430D01*
X159654212Y-60939454D01*
X159749500Y-60920500D01*
X161901459Y-60920500D01*
X163756957Y-60920500D01*
X163758585Y-60920823D01*
G37*
%TD.AperFunction*%
%TD*%
M02*
